# MagicaVoxel @ Ephtracy

# group
o 

# material
mtllib RoadTileTrees.mtl
usemtl palette

# normals
vn -1 0 0
vn 1 0 0
vn 0 0 1
vn 0 0 -1
vn 0 -1 0
vn 0 1 0

# texcoords
vt 0.818359 0.5
vt 0.904297 0.5
vt 0.908203 0.5
vt 0.958984 0.5
vt 0.994141 0.5

# verts
v -2 0 2
v -2 0 -2
v -2 0.1 2
v -2 0.1 -2
v -2 0.4 1.5
v -2 0.4 0.7
v -2 0.4 -0.6
v -2 0.4 -1
v -2 0.5 1.7
v -2 0.5 1.5
v -2 0.5 0.7
v -2 0.5 0.6
v -2 0.5 -0.3
v -2 0.5 -0.6
v -2 0.5 -1
v -2 0.5 -1.3
v -2 0.6 1.8
v -2 0.6 1.7
v -2 0.6 0.6
v -2 0.6 0.4
v -2 0.6 0.0999999
v -2 0.6 -0.3
v -2 0.6 -1.3
v -2 0.6 -1.5
v -2 0.6 -1.6
v -2 0.6 -2
v -2 0.7 2
v -2 0.7 1.8
v -2 0.7 0.4
v -2 0.7 0.0999999
v -2 0.7 -1.5
v -2 0.7 -1.6
v -2 1.2 2
v -2 1.2 -2
v 1.9 0.1 2
v 1.9 0.1 -2
v 1.9 0.4 1.5
v 1.9 0.4 0.7
v 1.9 0.4 -0.6
v 1.9 0.4 -1
v 1.9 0.5 1.7
v 1.9 0.5 1.5
v 1.9 0.5 0.7
v 1.9 0.5 0.6
v 1.9 0.5 -0.3
v 1.9 0.5 -0.6
v 1.9 0.5 -1
v 1.9 0.5 -1.3
v 1.9 0.6 1.8
v 1.9 0.6 1.7
v 1.9 0.6 0.6
v 1.9 0.6 0.4
v 1.9 0.6 0.0999999
v 1.9 0.6 -0.3
v 1.9 0.6 -1.3
v 1.9 0.6 -1.5
v 1.9 0.6 -1.6
v 1.9 0.6 -2
v 1.9 0.7 2
v 1.9 0.7 1.8
v 1.9 0.7 0.4
v 1.9 0.7 0.0999999
v 1.9 0.7 -1.5
v 1.9 0.7 -1.6
v 1.9 1.2 2
v 1.9 1.2 -2
v -1.9 0.1 2
v -1.9 0.1 -2
v -1.9 0.4 1.5
v -1.9 0.4 0.7
v -1.9 0.4 -0.6
v -1.9 0.4 -1
v -1.9 0.5 1.7
v -1.9 0.5 1.5
v -1.9 0.5 0.7
v -1.9 0.5 0.6
v -1.9 0.5 -0.3
v -1.9 0.5 -0.6
v -1.9 0.5 -1
v -1.9 0.5 -1.3
v -1.9 0.6 1.8
v -1.9 0.6 1.7
v -1.9 0.6 0.6
v -1.9 0.6 0.4
v -1.9 0.6 0.0999999
v -1.9 0.6 -0.3
v -1.9 0.6 -1.3
v -1.9 0.6 -1.5
v -1.9 0.6 -1.6
v -1.9 0.6 -2
v -1.9 0.7 2
v -1.9 0.7 1.8
v -1.9 0.7 0.4
v -1.9 0.7 0.0999999
v -1.9 0.7 -1.5
v -1.9 0.7 -1.6
v -1.9 1.2 2
v -1.9 1.2 -2
v 2 0 2
v 2 0 -2
v 2 0.1 2
v 2 0.1 -2
v 2 0.4 1.5
v 2 0.4 0.7
v 2 0.4 -0.6
v 2 0.4 -1
v 2 0.5 1.7
v 2 0.5 1.5
v 2 0.5 0.7
v 2 0.5 0.6
v 2 0.5 -0.3
v 2 0.5 -0.6
v 2 0.5 -1
v 2 0.5 -1.3
v 2 0.6 1.8
v 2 0.6 1.7
v 2 0.6 0.6
v 2 0.6 0.4
v 2 0.6 0.0999999
v 2 0.6 -0.3
v 2 0.6 -1.3
v 2 0.6 -1.5
v 2 0.6 -1.6
v 2 0.6 -2
v 2 0.7 2
v 2 0.7 1.8
v 2 0.7 0.4
v 2 0.7 0.0999999
v 2 0.7 -1.5
v 2 0.7 -1.6
v 2 1.2 2
v 2 1.2 -2
v -2 0 2
v -2 0.1 2
v -2 0.7 2
v -2 1.2 2
v -1.9 0.1 2
v -1.9 0.7 2
v -1.9 1.2 2
v -1.3 0 2
v -1.3 0.1 2
v 1.3 0 2
v 1.3 0.1 2
v 1.9 0.1 2
v 1.9 0.7 2
v 1.9 1.2 2
v 2 0 2
v 2 0.1 2
v 2 0.7 2
v 2 1.2 2
v -2 0 -2
v -2 0.1 -2
v -2 0.6 -2
v -2 1.2 -2
v -1.9 0.1 -2
v -1.9 0.6 -2
v -1.9 1.2 -2
v -1.3 0 -2
v -1.3 0.1 -2
v -0.0999999 0 -2
v -0.0999999 0.1 -2
v 0.1 0 -2
v 0.1 0.1 -2
v 1.3 0 -2
v 1.3 0.1 -2
v 1.9 0.1 -2
v 1.9 0.6 -2
v 1.9 1.2 -2
v 2 0 -2
v 2 0.1 -2
v 2 0.6 -2
v 2 1.2 -2
v -2 0 2
v -1.3 0 2
v 1.3 0 2
v 2 0 2
v -0.0999999 0 1.5
v 0.1 0 1.5
v -0.0999999 0 1
v 0.1 0 1
v -0.0999999 0 0.5
v 0.1 0 0.5
v -0.0999999 0 -2.38419e-07
v 0.1 0 -2.38419e-07
v -0.0999999 0 -0.5
v 0.1 0 -0.5
v -0.0999999 0 -1
v 0.1 0 -1
v -0.0999999 0 -1.5
v 0.1 0 -1.5
v -2 0 -2
v -1.3 0 -2
v -0.0999999 0 -2
v 0.1 0 -2
v 1.3 0 -2
v 2 0 -2
v -1.9 0.1 2
v -1.3 0.1 2
v 1.3 0.1 2
v 1.9 0.1 2
v -0.0999999 0.1 1.5
v 0.1 0.1 1.5
v -0.0999999 0.1 1
v 0.1 0.1 1
v -0.0999999 0.1 0.5
v 0.1 0.1 0.5
v -0.0999999 0.1 -2.38419e-07
v 0.1 0.1 -2.38419e-07
v -0.0999999 0.1 -0.5
v 0.1 0.1 -0.5
v -0.0999999 0.1 -1
v 0.1 0.1 -1
v -0.0999999 0.1 -1.5
v 0.1 0.1 -1.5
v -1.9 0.1 -2
v -1.3 0.1 -2
v -0.0999999 0.1 -2
v 0.1 0.1 -2
v 1.3 0.1 -2
v 1.9 0.1 -2
v -2 1.2 2
v -1.9 1.2 2
v 1.9 1.2 2
v 2 1.2 2
v -2 1.2 -2
v -1.9 1.2 -2
v 1.9 1.2 -2
v 2 1.2 -2

# faces
f 3/2/1 2/2/1 1/2/1
f 4/2/1 2/2/1 3/2/1
f 5/3/1 4/3/1 3/3/1
f 6/3/1 4/3/1 5/3/1
f 7/3/1 4/3/1 6/3/1
f 8/3/1 4/3/1 7/3/1
f 9/3/1 5/3/1 3/3/1
f 10/1/1 6/1/1 5/1/1
f 10/3/1 5/3/1 9/3/1
f 11/3/1 7/3/1 6/3/1
f 11/1/1 6/1/1 10/1/1
f 12/3/1 7/3/1 11/3/1
f 13/3/1 7/3/1 12/3/1
f 14/1/1 8/1/1 7/1/1
f 14/3/1 7/3/1 13/3/1
f 15/3/1 4/3/1 8/3/1
f 15/1/1 8/1/1 14/1/1
f 16/3/1 4/3/1 15/3/1
f 17/3/1 9/3/1 3/3/1
f 18/1/1 10/1/1 9/1/1
f 18/3/1 9/3/1 17/3/1
f 18/1/1 11/1/1 10/1/1
f 18/1/1 12/1/1 11/1/1
f 19/3/1 13/3/1 12/3/1
f 19/1/1 12/1/1 18/1/1
f 20/3/1 13/3/1 19/3/1
f 21/3/1 13/3/1 20/3/1
f 22/1/1 14/1/1 13/1/1
f 22/3/1 13/3/1 21/3/1
f 22/1/1 16/1/1 15/1/1
f 22/1/1 15/1/1 14/1/1
f 23/3/1 4/3/1 16/3/1
f 23/1/1 16/1/1 22/1/1
f 24/3/1 4/3/1 23/3/1
f 25/3/1 4/3/1 24/3/1
f 26/3/1 4/3/1 25/3/1
f 27/3/1 17/3/1 3/3/1
f 28/1/1 18/1/1 17/1/1
f 28/3/1 17/3/1 27/3/1
f 28/1/1 20/1/1 19/1/1
f 28/1/1 19/1/1 18/1/1
f 29/3/1 21/3/1 20/3/1
f 29/1/1 20/1/1 28/1/1
f 30/1/1 22/1/1 21/1/1
f 30/3/1 21/3/1 29/3/1
f 30/1/1 23/1/1 22/1/1
f 30/1/1 24/1/1 23/1/1
f 31/3/1 25/3/1 24/3/1
f 31/1/1 24/1/1 30/1/1
f 32/1/1 26/1/1 25/1/1
f 32/3/1 25/3/1 31/3/1
f 33/1/1 28/1/1 27/1/1
f 33/1/1 29/1/1 28/1/1
f 33/1/1 32/1/1 31/1/1
f 33/1/1 30/1/1 29/1/1
f 33/1/1 31/1/1 30/1/1
f 34/1/1 26/1/1 32/1/1
f 34/1/1 32/1/1 33/1/1
f 37/3/1 36/3/1 35/3/1
f 38/3/1 36/3/1 37/3/1
f 39/3/1 36/3/1 38/3/1
f 40/3/1 36/3/1 39/3/1
f 41/3/1 37/3/1 35/3/1
f 42/1/1 38/1/1 37/1/1
f 42/3/1 37/3/1 41/3/1
f 43/3/1 39/3/1 38/3/1
f 43/1/1 38/1/1 42/1/1
f 44/3/1 39/3/1 43/3/1
f 45/3/1 39/3/1 44/3/1
f 46/1/1 40/1/1 39/1/1
f 46/3/1 39/3/1 45/3/1
f 47/3/1 36/3/1 40/3/1
f 47/1/1 40/1/1 46/1/1
f 48/3/1 36/3/1 47/3/1
f 49/3/1 41/3/1 35/3/1
f 50/1/1 42/1/1 41/1/1
f 50/3/1 41/3/1 49/3/1
f 50/1/1 43/1/1 42/1/1
f 50/1/1 44/1/1 43/1/1
f 51/3/1 45/3/1 44/3/1
f 51/1/1 44/1/1 50/1/1
f 52/3/1 45/3/1 51/3/1
f 53/3/1 45/3/1 52/3/1
f 54/1/1 46/1/1 45/1/1
f 54/3/1 45/3/1 53/3/1
f 54/1/1 48/1/1 47/1/1
f 54/1/1 47/1/1 46/1/1
f 55/3/1 36/3/1 48/3/1
f 55/1/1 48/1/1 54/1/1
f 56/3/1 36/3/1 55/3/1
f 57/3/1 36/3/1 56/3/1
f 58/3/1 36/3/1 57/3/1
f 59/3/1 49/3/1 35/3/1
f 60/1/1 50/1/1 49/1/1
f 60/3/1 49/3/1 59/3/1
f 60/1/1 52/1/1 51/1/1
f 60/1/1 51/1/1 50/1/1
f 61/3/1 53/3/1 52/3/1
f 61/1/1 52/1/1 60/1/1
f 62/1/1 54/1/1 53/1/1
f 62/3/1 53/3/1 61/3/1
f 62/1/1 55/1/1 54/1/1
f 62/1/1 56/1/1 55/1/1
f 63/3/1 57/3/1 56/3/1
f 63/1/1 56/1/1 62/1/1
f 64/1/1 58/1/1 57/1/1
f 64/3/1 57/3/1 63/3/1
f 65/1/1 60/1/1 59/1/1
f 65/1/1 61/1/1 60/1/1
f 65/1/1 64/1/1 63/1/1
f 65/1/1 62/1/1 61/1/1
f 65/1/1 63/1/1 62/1/1
f 66/1/1 58/1/1 64/1/1
f 66/1/1 64/1/1 65/1/1
f 67/3/2 68/3/2 69/3/2
f 69/3/2 68/3/2 70/3/2
f 70/3/2 68/3/2 71/3/2
f 71/3/2 68/3/2 72/3/2
f 67/3/2 69/3/2 73/3/2
f 69/1/2 70/1/2 74/1/2
f 73/3/2 69/3/2 74/3/2
f 70/3/2 71/3/2 75/3/2
f 74/1/2 70/1/2 75/1/2
f 75/3/2 71/3/2 76/3/2
f 76/3/2 71/3/2 77/3/2
f 71/1/2 72/1/2 78/1/2
f 77/3/2 71/3/2 78/3/2
f 72/3/2 68/3/2 79/3/2
f 78/1/2 72/1/2 79/1/2
f 79/3/2 68/3/2 80/3/2
f 67/3/2 73/3/2 81/3/2
f 73/1/2 74/1/2 82/1/2
f 81/3/2 73/3/2 82/3/2
f 74/1/2 75/1/2 82/1/2
f 75/1/2 76/1/2 82/1/2
f 76/3/2 77/3/2 83/3/2
f 82/1/2 76/1/2 83/1/2
f 83/3/2 77/3/2 84/3/2
f 84/3/2 77/3/2 85/3/2
f 77/1/2 78/1/2 86/1/2
f 85/3/2 77/3/2 86/3/2
f 79/1/2 80/1/2 86/1/2
f 78/1/2 79/1/2 86/1/2
f 80/3/2 68/3/2 87/3/2
f 86/1/2 80/1/2 87/1/2
f 87/3/2 68/3/2 88/3/2
f 88/3/2 68/3/2 89/3/2
f 89/3/2 68/3/2 90/3/2
f 67/3/2 81/3/2 91/3/2
f 81/1/2 82/1/2 92/1/2
f 91/3/2 81/3/2 92/3/2
f 83/1/2 84/1/2 92/1/2
f 82/1/2 83/1/2 92/1/2
f 84/3/2 85/3/2 93/3/2
f 92/1/2 84/1/2 93/1/2
f 85/1/2 86/1/2 94/1/2
f 93/3/2 85/3/2 94/3/2
f 86/1/2 87/1/2 94/1/2
f 87/1/2 88/1/2 94/1/2
f 88/3/2 89/3/2 95/3/2
f 94/1/2 88/1/2 95/1/2
f 89/1/2 90/1/2 96/1/2
f 95/3/2 89/3/2 96/3/2
f 91/1/2 92/1/2 97/1/2
f 92/1/2 93/1/2 97/1/2
f 95/1/2 96/1/2 97/1/2
f 93/1/2 94/1/2 97/1/2
f 94/1/2 95/1/2 97/1/2
f 96/1/2 90/1/2 98/1/2
f 97/1/2 96/1/2 98/1/2
f 99/2/2 100/2/2 101/2/2
f 101/2/2 100/2/2 102/2/2
f 101/3/2 102/3/2 103/3/2
f 103/3/2 102/3/2 104/3/2
f 104/3/2 102/3/2 105/3/2
f 105/3/2 102/3/2 106/3/2
f 101/3/2 103/3/2 107/3/2
f 103/1/2 104/1/2 108/1/2
f 107/3/2 103/3/2 108/3/2
f 104/3/2 105/3/2 109/3/2
f 108/1/2 104/1/2 109/1/2
f 109/3/2 105/3/2 110/3/2
f 110/3/2 105/3/2 111/3/2
f 105/1/2 106/1/2 112/1/2
f 111/3/2 105/3/2 112/3/2
f 106/3/2 102/3/2 113/3/2
f 112/1/2 106/1/2 113/1/2
f 113/3/2 102/3/2 114/3/2
f 101/3/2 107/3/2 115/3/2
f 107/1/2 108/1/2 116/1/2
f 115/3/2 107/3/2 116/3/2
f 108/1/2 109/1/2 116/1/2
f 109/1/2 110/1/2 116/1/2
f 110/3/2 111/3/2 117/3/2
f 116/1/2 110/1/2 117/1/2
f 117/3/2 111/3/2 118/3/2
f 118/3/2 111/3/2 119/3/2
f 111/1/2 112/1/2 120/1/2
f 119/3/2 111/3/2 120/3/2
f 113/1/2 114/1/2 120/1/2
f 112/1/2 113/1/2 120/1/2
f 114/3/2 102/3/2 121/3/2
f 120/1/2 114/1/2 121/1/2
f 121/3/2 102/3/2 122/3/2
f 122/3/2 102/3/2 123/3/2
f 123/3/2 102/3/2 124/3/2
f 101/3/2 115/3/2 125/3/2
f 115/1/2 116/1/2 126/1/2
f 125/3/2 115/3/2 126/3/2
f 117/1/2 118/1/2 126/1/2
f 116/1/2 117/1/2 126/1/2
f 118/3/2 119/3/2 127/3/2
f 126/1/2 118/1/2 127/1/2
f 119/1/2 120/1/2 128/1/2
f 127/3/2 119/3/2 128/3/2
f 120/1/2 121/1/2 128/1/2
f 121/1/2 122/1/2 128/1/2
f 122/3/2 123/3/2 129/3/2
f 128/1/2 122/1/2 129/1/2
f 123/1/2 124/1/2 130/1/2
f 129/3/2 123/3/2 130/3/2
f 125/1/2 126/1/2 131/1/2
f 126/1/2 127/1/2 131/1/2
f 129/1/2 130/1/2 131/1/2
f 127/1/2 128/1/2 131/1/2
f 128/1/2 129/1/2 131/1/2
f 130/1/2 124/1/2 132/1/2
f 131/1/2 130/1/2 132/1/2
f 137/2/3 134/2/3 133/2/3
f 137/3/3 135/3/3 134/3/3
f 138/1/3 136/1/3 135/1/3
f 138/3/3 135/3/3 137/3/3
f 139/1/3 136/1/3 138/1/3
f 140/2/3 137/2/3 133/2/3
f 141/2/3 137/2/3 140/2/3
f 142/5/3 141/5/3 140/5/3
f 143/5/3 141/5/3 142/5/3
f 144/2/3 143/2/3 142/2/3
f 147/2/3 144/2/3 142/2/3
f 148/3/3 145/3/3 144/3/3
f 148/2/3 144/2/3 147/2/3
f 149/1/3 146/1/3 145/1/3
f 149/3/3 145/3/3 148/3/3
f 150/1/3 146/1/3 149/1/3
f 151/2/4 152/2/4 155/2/4
f 152/3/4 153/3/4 155/3/4
f 153/1/4 154/1/4 156/1/4
f 155/3/4 153/3/4 156/3/4
f 156/1/4 154/1/4 157/1/4
f 151/2/4 155/2/4 158/2/4
f 158/2/4 155/2/4 159/2/4
f 158/5/4 159/5/4 160/5/4
f 160/5/4 159/5/4 161/5/4
f 160/4/4 161/4/4 162/4/4
f 162/4/4 161/4/4 163/4/4
f 162/5/4 163/5/4 164/5/4
f 164/5/4 163/5/4 165/5/4
f 164/2/4 165/2/4 166/2/4
f 164/2/4 166/2/4 169/2/4
f 166/3/4 167/3/4 170/3/4
f 169/2/4 166/2/4 170/2/4
f 167/1/4 168/1/4 171/1/4
f 170/3/4 167/3/4 171/3/4
f 171/1/4 168/1/4 172/1/4
f 177/5/5 175/5/5 174/5/5
f 178/5/5 175/5/5 177/5/5
f 179/5/5 177/5/5 174/5/5
f 179/4/5 178/4/5 177/4/5
f 180/5/5 175/5/5 178/5/5
f 180/4/5 178/4/5 179/4/5
f 181/5/5 179/5/5 174/5/5
f 181/5/5 180/5/5 179/5/5
f 182/5/5 175/5/5 180/5/5
f 182/5/5 180/5/5 181/5/5
f 183/5/5 181/5/5 174/5/5
f 183/4/5 182/4/5 181/4/5
f 184/5/5 175/5/5 182/5/5
f 184/4/5 182/4/5 183/4/5
f 185/5/5 183/5/5 174/5/5
f 185/5/5 184/5/5 183/5/5
f 186/5/5 175/5/5 184/5/5
f 186/5/5 184/5/5 185/5/5
f 187/5/5 185/5/5 174/5/5
f 187/4/5 186/4/5 185/4/5
f 188/5/5 175/5/5 186/5/5
f 188/4/5 186/4/5 187/4/5
f 189/5/5 187/5/5 174/5/5
f 189/5/5 188/5/5 187/5/5
f 190/5/5 175/5/5 188/5/5
f 190/5/5 188/5/5 189/5/5
f 191/2/5 174/2/5 173/2/5
f 192/5/5 189/5/5 174/5/5
f 192/2/5 174/2/5 191/2/5
f 193/4/5 190/4/5 189/4/5
f 193/5/5 189/5/5 192/5/5
f 194/5/5 175/5/5 190/5/5
f 194/4/5 190/4/5 193/4/5
f 195/2/5 176/2/5 175/2/5
f 195/5/5 175/5/5 194/5/5
f 196/2/5 176/2/5 195/2/5
f 198/5/6 199/5/6 201/5/6
f 201/5/6 199/5/6 202/5/6
f 198/5/6 201/5/6 203/5/6
f 201/4/6 202/4/6 203/4/6
f 202/5/6 199/5/6 204/5/6
f 203/4/6 202/4/6 204/4/6
f 198/5/6 203/5/6 205/5/6
f 203/5/6 204/5/6 205/5/6
f 204/5/6 199/5/6 206/5/6
f 205/5/6 204/5/6 206/5/6
f 198/5/6 205/5/6 207/5/6
f 205/4/6 206/4/6 207/4/6
f 206/5/6 199/5/6 208/5/6
f 207/4/6 206/4/6 208/4/6
f 198/5/6 207/5/6 209/5/6
f 207/5/6 208/5/6 209/5/6
f 208/5/6 199/5/6 210/5/6
f 209/5/6 208/5/6 210/5/6
f 198/5/6 209/5/6 211/5/6
f 209/4/6 210/4/6 211/4/6
f 210/5/6 199/5/6 212/5/6
f 211/4/6 210/4/6 212/4/6
f 198/5/6 211/5/6 213/5/6
f 211/5/6 212/5/6 213/5/6
f 212/5/6 199/5/6 214/5/6
f 213/5/6 212/5/6 214/5/6
f 197/2/6 198/2/6 215/2/6
f 198/5/6 213/5/6 216/5/6
f 215/2/6 198/2/6 216/2/6
f 213/4/6 214/4/6 217/4/6
f 216/5/6 213/5/6 217/5/6
f 214/5/6 199/5/6 218/5/6
f 217/4/6 214/4/6 218/4/6
f 199/2/6 200/2/6 219/2/6
f 218/5/6 199/5/6 219/5/6
f 219/2/6 200/2/6 220/2/6
f 221/1/6 222/1/6 225/1/6
f 225/1/6 222/1/6 226/1/6
f 223/1/6 224/1/6 227/1/6
f 227/1/6 224/1/6 228/1/6
