# MagicaVoxel @ Ephtracy

# material
mtllib FiskSpringvand.mtl
usemtl palette

# normals
vn -1 0 0
vn 1 0 0
vn 0 0 1
vn 0 0 -1
vn 0 -1 0
vn 0 1 0

# texcoords
vt 0.228516 0.5
vt 0.775391 0.5
vt 0.876953 0.5
vt 0.958984 0.5
vt 0.978516 0.5

# verts
v -8.5 1 5.5
v -8.5 1 -5.5
v -8.5 4 5.5
v -8.5 4 -5.5
v -7.5 0 4.5
v -7.5 0 -4.5
v -7.5 1 4.5
v -7.5 1 -4.5
v -6.5 1 7.5
v -6.5 1 5.5
v -6.5 1 -5.5
v -6.5 1 -7.5
v -6.5 4 7.5
v -6.5 4 5.5
v -6.5 4 -5.5
v -6.5 4 -7.5
v -5.5 0 6.5
v -5.5 0 4.5
v -5.5 0 -4.5
v -5.5 0 -6.5
v -5.5 1 8.5
v -5.5 1 7.5
v -5.5 1 6.5
v -5.5 1 4.5
v -5.5 1 -4.5
v -5.5 1 -6.5
v -5.5 1 -7.5
v -5.5 1 -8.5
v -5.5 4 8.5
v -5.5 4 7.5
v -5.5 4 -7.5
v -5.5 4 -8.5
v -4.5 0 7.5
v -4.5 0 6.5
v -4.5 0 -6.5
v -4.5 0 -7.5
v -4.5 1 7.5
v -4.5 1 6.5
v -4.5 1 -6.5
v -4.5 1 -7.5
v -2.5 3 1.5
v -2.5 3 -1.5
v -2.5 6 1.5
v -2.5 6 0.5
v -2.5 6 -0.5
v -2.5 6 -1.5
v -2.5 7 0.5
v -2.5 7 -0.5
v -1.5 3 2.5
v -1.5 3 1.5
v -1.5 3 -1.5
v -1.5 3 -2.5
v -1.5 6 2.5
v -1.5 6 1.5
v -1.5 6 0.5
v -1.5 6 -0.5
v -1.5 6 -1.5
v -1.5 6 -2.5
v -1.5 7 1.5
v -1.5 7 0.5
v -1.5 7 -0.5
v -1.5 7 -1.5
v -1.5 9 0.5
v -1.5 9 -1.5
v -1.5 10 0.5
v -1.5 10 -1.5
v -0.5 6 2.5
v -0.5 6 1.5
v -0.5 6 -1.5
v -0.5 6 -2.5
v -0.5 7 2.5
v -0.5 7 1.5
v -0.5 7 -1.5
v -0.5 7 -2.5
v -0.5 8 4.5
v -0.5 8 1.5
v -0.5 8 -1.5
v -0.5 8 -2.5
v -0.5 8 -3.5
v -0.5 8 -5.5
v -0.5 9 2.5
v -0.5 9 1.5
v -0.5 9 0.5
v -0.5 9 -1.5
v -0.5 9 -2.5
v -0.5 9 -3.5
v -0.5 9 -4.5
v -0.5 9 -5.5
v -0.5 10 4.5
v -0.5 10 3.5
v -0.5 10 2.5
v -0.5 10 1.5
v -0.5 10 0.5
v -0.5 10 -1.5
v -0.5 10 -3.5
v -0.5 10 -4.5
v -0.5 10 -5.5
v -0.5 11 3.5
v -0.5 11 -0.5
v -0.5 11 -1.5
v -0.5 11 -3.5
v -0.5 11 -5.5
v -0.5 12 3.5
v -0.5 12 2.5
v -0.5 12 0.5
v -0.5 12 -0.5
v -0.5 14 2.5
v -0.5 14 0.5
v 4.5 3 7.5
v 4.5 3 6.5
v 4.5 3 -6.5
v 4.5 3 -7.5
v 4.5 4 7.5
v 4.5 4 6.5
v 4.5 4 -6.5
v 4.5 4 -7.5
v 5.5 3 6.5
v 5.5 3 4.5
v 5.5 3 -4.5
v 5.5 3 -6.5
v 5.5 4 6.5
v 5.5 4 4.5
v 5.5 4 -4.5
v 5.5 4 -6.5
v 7.5 3 4.5
v 7.5 3 -4.5
v 7.5 4 4.5
v 7.5 4 -4.5
v -7.5 3 4.5
v -7.5 3 -4.5
v -7.5 4 4.5
v -7.5 4 -4.5
v -5.5 3 6.5
v -5.5 3 4.5
v -5.5 3 -4.5
v -5.5 3 -6.5
v -5.5 4 6.5
v -5.5 4 4.5
v -5.5 4 -4.5
v -5.5 4 -6.5
v -4.5 3 7.5
v -4.5 3 6.5
v -4.5 3 -6.5
v -4.5 3 -7.5
v -4.5 4 7.5
v -4.5 4 6.5
v -4.5 4 -6.5
v -4.5 4 -7.5
v 0.5 6 2.5
v 0.5 6 1.5
v 0.5 6 -1.5
v 0.5 6 -2.5
v 0.5 7 2.5
v 0.5 7 1.5
v 0.5 7 -1.5
v 0.5 7 -2.5
v 0.5 8 4.5
v 0.5 8 1.5
v 0.5 8 -1.5
v 0.5 8 -2.5
v 0.5 8 -3.5
v 0.5 8 -5.5
v 0.5 9 2.5
v 0.5 9 1.5
v 0.5 9 0.5
v 0.5 9 -1.5
v 0.5 9 -2.5
v 0.5 9 -3.5
v 0.5 9 -4.5
v 0.5 9 -5.5
v 0.5 10 4.5
v 0.5 10 3.5
v 0.5 10 2.5
v 0.5 10 1.5
v 0.5 10 0.5
v 0.5 10 -1.5
v 0.5 10 -3.5
v 0.5 10 -4.5
v 0.5 10 -5.5
v 0.5 11 3.5
v 0.5 11 -0.5
v 0.5 11 -1.5
v 0.5 11 -3.5
v 0.5 11 -5.5
v 0.5 12 3.5
v 0.5 12 2.5
v 0.5 12 0.5
v 0.5 12 -0.5
v 0.5 14 2.5
v 0.5 14 0.5
v 1.5 3 2.5
v 1.5 3 1.5
v 1.5 3 -1.5
v 1.5 3 -2.5
v 1.5 6 2.5
v 1.5 6 1.5
v 1.5 6 0.5
v 1.5 6 -0.5
v 1.5 6 -1.5
v 1.5 6 -2.5
v 1.5 7 1.5
v 1.5 7 0.5
v 1.5 7 -0.5
v 1.5 7 -1.5
v 1.5 9 0.5
v 1.5 9 -1.5
v 1.5 10 0.5
v 1.5 10 -1.5
v 2.5 3 1.5
v 2.5 3 -1.5
v 2.5 6 1.5
v 2.5 6 0.5
v 2.5 6 -0.5
v 2.5 6 -1.5
v 2.5 7 0.5
v 2.5 7 -0.5
v 4.5 0 7.5
v 4.5 0 6.5
v 4.5 0 -6.5
v 4.5 0 -7.5
v 4.5 1 7.5
v 4.5 1 6.5
v 4.5 1 -6.5
v 4.5 1 -7.5
v 5.5 0 6.5
v 5.5 0 4.5
v 5.5 0 -4.5
v 5.5 0 -6.5
v 5.5 1 8.5
v 5.5 1 7.5
v 5.5 1 6.5
v 5.5 1 4.5
v 5.5 1 -4.5
v 5.5 1 -6.5
v 5.5 1 -7.5
v 5.5 1 -8.5
v 5.5 4 8.5
v 5.5 4 7.5
v 5.5 4 -7.5
v 5.5 4 -8.5
v 6.5 1 7.5
v 6.5 1 5.5
v 6.5 1 -5.5
v 6.5 1 -7.5
v 6.5 4 7.5
v 6.5 4 5.5
v 6.5 4 -5.5
v 6.5 4 -7.5
v 7.5 0 4.5
v 7.5 0 -4.5
v 7.5 1 4.5
v 7.5 1 -4.5
v 8.5 1 5.5
v 8.5 1 -5.5
v 8.5 4 5.5
v 8.5 4 -5.5
v -5.5 1 8.5
v -5.5 4 8.5
v 5.5 1 8.5
v 5.5 4 8.5
v -6.5 1 7.5
v -6.5 4 7.5
v -5.5 1 7.5
v -5.5 4 7.5
v -4.5 0 7.5
v -4.5 1 7.5
v 4.5 0 7.5
v 4.5 1 7.5
v 5.5 1 7.5
v 5.5 4 7.5
v 6.5 1 7.5
v 6.5 4 7.5
v -5.5 0 6.5
v -5.5 1 6.5
v -4.5 0 6.5
v -4.5 1 6.5
v 4.5 0 6.5
v 4.5 1 6.5
v 5.5 0 6.5
v 5.5 1 6.5
v -8.5 1 5.5
v -8.5 4 5.5
v -6.5 1 5.5
v -6.5 4 5.5
v 6.5 1 5.5
v 6.5 4 5.5
v 8.5 1 5.5
v 8.5 4 5.5
v -7.5 0 4.5
v -7.5 1 4.5
v -5.5 0 4.5
v -5.5 1 4.5
v -0.5 8 4.5
v -0.5 10 4.5
v 0.5 8 4.5
v 0.5 10 4.5
v 5.5 0 4.5
v 5.5 1 4.5
v 7.5 0 4.5
v 7.5 1 4.5
v -0.5 10 3.5
v -0.5 11 3.5
v -0.5 12 3.5
v 0.5 10 3.5
v 0.5 11 3.5
v 0.5 12 3.5
v -1.5 3 2.5
v -1.5 6 2.5
v -0.5 6 2.5
v -0.5 7 2.5
v -0.5 12 2.5
v -0.5 14 2.5
v 0.5 6 2.5
v 0.5 7 2.5
v 0.5 12 2.5
v 0.5 14 2.5
v 1.5 3 2.5
v 1.5 6 2.5
v -2.5 3 1.5
v -2.5 6 1.5
v -1.5 3 1.5
v -1.5 6 1.5
v -1.5 7 1.5
v -0.5 6 1.5
v -0.5 7 1.5
v -0.5 8 1.5
v 0.5 6 1.5
v 0.5 7 1.5
v 0.5 8 1.5
v 1.5 3 1.5
v 1.5 6 1.5
v 1.5 7 1.5
v 2.5 3 1.5
v 2.5 6 1.5
v -2.5 6 0.5
v -2.5 7 0.5
v -1.5 6 0.5
v -1.5 7 0.5
v -1.5 9 0.5
v -1.5 10 0.5
v -0.5 9 0.5
v -0.5 10 0.5
v 0.5 9 0.5
v 0.5 10 0.5
v 1.5 6 0.5
v 1.5 7 0.5
v 1.5 9 0.5
v 1.5 10 0.5
v 2.5 6 0.5
v 2.5 7 0.5
v -0.5 8 -3.5
v -0.5 9 -3.5
v -0.5 10 -3.5
v -0.5 11 -3.5
v 0.5 8 -3.5
v 0.5 9 -3.5
v 0.5 10 -3.5
v 0.5 11 -3.5
v -7.5 3 -4.5
v -7.5 4 -4.5
v -5.5 3 -4.5
v -5.5 4 -4.5
v 5.5 3 -4.5
v 5.5 4 -4.5
v 7.5 3 -4.5
v 7.5 4 -4.5
v -5.5 3 -6.5
v -5.5 4 -6.5
v -4.5 3 -6.5
v -4.5 4 -6.5
v 4.5 3 -6.5
v 4.5 4 -6.5
v 5.5 3 -6.5
v 5.5 4 -6.5
v -4.5 3 -7.5
v -4.5 4 -7.5
v 4.5 3 -7.5
v 4.5 4 -7.5
v -4.5 3 7.5
v -4.5 4 7.5
v 4.5 3 7.5
v 4.5 4 7.5
v -5.5 3 6.5
v -5.5 4 6.5
v -4.5 3 6.5
v -4.5 4 6.5
v 4.5 3 6.5
v 4.5 4 6.5
v 5.5 3 6.5
v 5.5 4 6.5
v -7.5 3 4.5
v -7.5 4 4.5
v -5.5 3 4.5
v -5.5 4 4.5
v 5.5 3 4.5
v 5.5 4 4.5
v 7.5 3 4.5
v 7.5 4 4.5
v -0.5 12 0.5
v -0.5 14 0.5
v 0.5 12 0.5
v 0.5 14 0.5
v -2.5 6 -0.5
v -2.5 7 -0.5
v -1.5 6 -0.5
v -1.5 7 -0.5
v -0.5 11 -0.5
v -0.5 12 -0.5
v 0.5 11 -0.5
v 0.5 12 -0.5
v 1.5 6 -0.5
v 1.5 7 -0.5
v 2.5 6 -0.5
v 2.5 7 -0.5
v -2.5 3 -1.5
v -2.5 6 -1.5
v -1.5 3 -1.5
v -1.5 6 -1.5
v -1.5 7 -1.5
v -1.5 9 -1.5
v -1.5 10 -1.5
v -0.5 6 -1.5
v -0.5 7 -1.5
v -0.5 8 -1.5
v -0.5 9 -1.5
v -0.5 10 -1.5
v -0.5 11 -1.5
v 0.5 6 -1.5
v 0.5 7 -1.5
v 0.5 8 -1.5
v 0.5 9 -1.5
v 0.5 10 -1.5
v 0.5 11 -1.5
v 1.5 3 -1.5
v 1.5 6 -1.5
v 1.5 7 -1.5
v 1.5 9 -1.5
v 1.5 10 -1.5
v 2.5 3 -1.5
v 2.5 6 -1.5
v -1.5 3 -2.5
v -1.5 6 -2.5
v -0.5 6 -2.5
v -0.5 7 -2.5
v -0.5 8 -2.5
v -0.5 9 -2.5
v 0.5 6 -2.5
v 0.5 7 -2.5
v 0.5 8 -2.5
v 0.5 9 -2.5
v 1.5 3 -2.5
v 1.5 6 -2.5
v -7.5 0 -4.5
v -7.5 1 -4.5
v -5.5 0 -4.5
v -5.5 1 -4.5
v -0.5 9 -4.5
v -0.5 10 -4.5
v 0.5 9 -4.5
v 0.5 10 -4.5
v 5.5 0 -4.5
v 5.5 1 -4.5
v 7.5 0 -4.5
v 7.5 1 -4.5
v -8.5 1 -5.5
v -8.5 4 -5.5
v -6.5 1 -5.5
v -6.5 4 -5.5
v -0.5 8 -5.5
v -0.5 9 -5.5
v -0.5 10 -5.5
v -0.5 11 -5.5
v 0.5 8 -5.5
v 0.5 9 -5.5
v 0.5 10 -5.5
v 0.5 11 -5.5
v 6.5 1 -5.5
v 6.5 4 -5.5
v 8.5 1 -5.5
v 8.5 4 -5.5
v -5.5 0 -6.5
v -5.5 1 -6.5
v -4.5 0 -6.5
v -4.5 1 -6.5
v 4.5 0 -6.5
v 4.5 1 -6.5
v 5.5 0 -6.5
v 5.5 1 -6.5
v -6.5 1 -7.5
v -6.5 4 -7.5
v -5.5 1 -7.5
v -5.5 4 -7.5
v -4.5 0 -7.5
v -4.5 1 -7.5
v 4.5 0 -7.5
v 4.5 1 -7.5
v 5.5 1 -7.5
v 5.5 4 -7.5
v 6.5 1 -7.5
v 6.5 4 -7.5
v -5.5 1 -8.5
v -5.5 4 -8.5
v 5.5 1 -8.5
v 5.5 4 -8.5
v -4.5 0 7.5
v 4.5 0 7.5
v -5.5 0 6.5
v -4.5 0 6.5
v 4.5 0 6.5
v 5.5 0 6.5
v -7.5 0 4.5
v -5.5 0 4.5
v 5.5 0 4.5
v 7.5 0 4.5
v -7.5 0 -4.5
v -5.5 0 -4.5
v 5.5 0 -4.5
v 7.5 0 -4.5
v -5.5 0 -6.5
v -4.5 0 -6.5
v 4.5 0 -6.5
v 5.5 0 -6.5
v -4.5 0 -7.5
v 4.5 0 -7.5
v -5.5 1 8.5
v 5.5 1 8.5
v -6.5 1 7.5
v -5.5 1 7.5
v -4.5 1 7.5
v 4.5 1 7.5
v 5.5 1 7.5
v 6.5 1 7.5
v -5.5 1 6.5
v -4.5 1 6.5
v 4.5 1 6.5
v 5.5 1 6.5
v -8.5 1 5.5
v -6.5 1 5.5
v 6.5 1 5.5
v 8.5 1 5.5
v -7.5 1 4.5
v -5.5 1 4.5
v 5.5 1 4.5
v 7.5 1 4.5
v -7.5 1 -4.5
v -5.5 1 -4.5
v 5.5 1 -4.5
v 7.5 1 -4.5
v -8.5 1 -5.5
v -6.5 1 -5.5
v 6.5 1 -5.5
v 8.5 1 -5.5
v -5.5 1 -6.5
v -4.5 1 -6.5
v 4.5 1 -6.5
v 5.5 1 -6.5
v -6.5 1 -7.5
v -5.5 1 -7.5
v -4.5 1 -7.5
v 4.5 1 -7.5
v 5.5 1 -7.5
v 6.5 1 -7.5
v -5.5 1 -8.5
v 5.5 1 -8.5
v -0.5 8 4.5
v 0.5 8 4.5
v -0.5 8 1.5
v 0.5 8 1.5
v -0.5 8 -1.5
v 0.5 8 -1.5
v -0.5 8 -2.5
v 0.5 8 -2.5
v -0.5 8 -3.5
v 0.5 8 -3.5
v -0.5 8 -5.5
v 0.5 8 -5.5
v -1.5 9 0.5
v -0.5 9 0.5
v 0.5 9 0.5
v 1.5 9 0.5
v -1.5 9 -1.5
v -0.5 9 -1.5
v 0.5 9 -1.5
v 1.5 9 -1.5
v -0.5 9 -2.5
v 0.5 9 -2.5
v -0.5 9 -3.5
v 0.5 9 -3.5
v -0.5 10 -4.5
v 0.5 10 -4.5
v -0.5 10 -5.5
v 0.5 10 -5.5
v -4.5 3 7.5
v 4.5 3 7.5
v -5.5 3 6.5
v -4.5 3 6.5
v 4.5 3 6.5
v 5.5 3 6.5
v -7.5 3 4.5
v -5.5 3 4.5
v 5.5 3 4.5
v 7.5 3 4.5
v -1.5 3 2.5
v 1.5 3 2.5
v -2.5 3 1.5
v -1.5 3 1.5
v 1.5 3 1.5
v 2.5 3 1.5
v -2.5 3 -1.5
v -1.5 3 -1.5
v 1.5 3 -1.5
v 2.5 3 -1.5
v -1.5 3 -2.5
v 1.5 3 -2.5
v -7.5 3 -4.5
v -5.5 3 -4.5
v 5.5 3 -4.5
v 7.5 3 -4.5
v -5.5 3 -6.5
v -4.5 3 -6.5
v 4.5 3 -6.5
v 5.5 3 -6.5
v -4.5 3 -7.5
v 4.5 3 -7.5
v -5.5 4 8.5
v 5.5 4 8.5
v -6.5 4 7.5
v -5.5 4 7.5
v -4.5 4 7.5
v 4.5 4 7.5
v 5.5 4 7.5
v 6.5 4 7.5
v -5.5 4 6.5
v -4.5 4 6.5
v 4.5 4 6.5
v 5.5 4 6.5
v -8.5 4 5.5
v -6.5 4 5.5
v 6.5 4 5.5
v 8.5 4 5.5
v -7.5 4 4.5
v -5.5 4 4.5
v 5.5 4 4.5
v 7.5 4 4.5
v -7.5 4 -4.5
v -5.5 4 -4.5
v 5.5 4 -4.5
v 7.5 4 -4.5
v -8.5 4 -5.5
v -6.5 4 -5.5
v 6.5 4 -5.5
v 8.5 4 -5.5
v -5.5 4 -6.5
v -4.5 4 -6.5
v 4.5 4 -6.5
v 5.5 4 -6.5
v -6.5 4 -7.5
v -5.5 4 -7.5
v -4.5 4 -7.5
v 4.5 4 -7.5
v 5.5 4 -7.5
v 6.5 4 -7.5
v -5.5 4 -8.5
v 5.5 4 -8.5
v -1.5 6 2.5
v -0.5 6 2.5
v 0.5 6 2.5
v 1.5 6 2.5
v -2.5 6 1.5
v -1.5 6 1.5
v -0.5 6 1.5
v 0.5 6 1.5
v 1.5 6 1.5
v 2.5 6 1.5
v -2.5 6 0.5
v -1.5 6 0.5
v 1.5 6 0.5
v 2.5 6 0.5
v -2.5 6 -0.5
v -1.5 6 -0.5
v 1.5 6 -0.5
v 2.5 6 -0.5
v -2.5 6 -1.5
v -1.5 6 -1.5
v -0.5 6 -1.5
v 0.5 6 -1.5
v 1.5 6 -1.5
v 2.5 6 -1.5
v -1.5 6 -2.5
v -0.5 6 -2.5
v 0.5 6 -2.5
v 1.5 6 -2.5
v -0.5 7 2.5
v 0.5 7 2.5
v -1.5 7 1.5
v -0.5 7 1.5
v 0.5 7 1.5
v 1.5 7 1.5
v -2.5 7 0.5
v -1.5 7 0.5
v 1.5 7 0.5
v 2.5 7 0.5
v -2.5 7 -0.5
v -1.5 7 -0.5
v 1.5 7 -0.5
v 2.5 7 -0.5
v -1.5 7 -1.5
v -0.5 7 -1.5
v 0.5 7 -1.5
v 1.5 7 -1.5
v -0.5 7 -2.5
v 0.5 7 -2.5
v -0.5 9 -4.5
v 0.5 9 -4.5
v -0.5 9 -5.5
v 0.5 9 -5.5
v -0.5 10 4.5
v 0.5 10 4.5
v -0.5 10 3.5
v 0.5 10 3.5
v -1.5 10 0.5
v -0.5 10 0.5
v 0.5 10 0.5
v 1.5 10 0.5
v -1.5 10 -1.5
v -0.5 10 -1.5
v 0.5 10 -1.5
v 1.5 10 -1.5
v -0.5 10 -3.5
v 0.5 10 -3.5
v -0.5 11 -0.5
v 0.5 11 -0.5
v -0.5 11 -1.5
v 0.5 11 -1.5
v -0.5 11 -3.5
v 0.5 11 -3.5
v -0.5 11 -5.5
v 0.5 11 -5.5
v -0.5 12 3.5
v 0.5 12 3.5
v -0.5 12 2.5
v 0.5 12 2.5
v -0.5 12 0.5
v 0.5 12 0.5
v -0.5 12 -0.5
v 0.5 12 -0.5
v -0.5 14 2.5
v 0.5 14 2.5
v -0.5 14 0.5
v 0.5 14 0.5

# faces
f 3/5/1 2/5/1 1/5/1
f 4/5/1 2/5/1 3/5/1
f 7/5/1 6/5/1 5/5/1
f 8/5/1 6/5/1 7/5/1
f 13/5/1 10/5/1 9/5/1
f 14/5/1 10/5/1 13/5/1
f 15/5/1 12/5/1 11/5/1
f 16/5/1 12/5/1 15/5/1
f 23/5/1 18/5/1 17/5/1
f 24/5/1 18/5/1 23/5/1
f 25/5/1 20/5/1 19/5/1
f 26/5/1 20/5/1 25/5/1
f 29/5/1 22/5/1 21/5/1
f 30/5/1 22/5/1 29/5/1
f 31/5/1 28/5/1 27/5/1
f 32/5/1 28/5/1 31/5/1
f 37/5/1 34/5/1 33/5/1
f 38/5/1 34/5/1 37/5/1
f 39/5/1 36/5/1 35/5/1
f 40/5/1 36/5/1 39/5/1
f 43/5/1 42/5/1 41/5/1
f 44/5/1 42/5/1 43/5/1
f 45/5/1 42/5/1 44/5/1
f 46/5/1 42/5/1 45/5/1
f 47/5/1 45/5/1 44/5/1
f 48/5/1 45/5/1 47/5/1
f 53/5/1 50/5/1 49/5/1
f 54/5/1 50/5/1 53/5/1
f 57/5/1 52/5/1 51/5/1
f 58/5/1 52/5/1 57/5/1
f 59/5/1 55/5/1 54/5/1
f 60/5/1 55/5/1 59/5/1
f 61/5/1 57/5/1 56/5/1
f 62/5/1 57/5/1 61/5/1
f 65/1/1 64/1/1 63/1/1
f 66/1/1 64/1/1 65/1/1
f 71/5/1 68/5/1 67/5/1
f 72/5/1 68/5/1 71/5/1
f 73/5/1 70/5/1 69/5/1
f 74/5/1 70/5/1 73/5/1
f 76/5/1 73/5/1 72/5/1
f 77/5/1 73/5/1 76/5/1
f 81/1/1 78/1/1 77/1/1
f 81/1/1 76/1/1 75/1/1
f 81/1/1 77/1/1 76/1/1
f 82/1/1 78/1/1 81/1/1
f 83/1/1 78/1/1 82/1/1
f 84/1/1 78/1/1 83/1/1
f 85/1/1 78/1/1 84/1/1
f 86/1/1 80/1/1 79/1/1
f 87/1/1 80/1/1 86/1/1
f 88/1/1 80/1/1 87/1/1
f 89/1/1 81/1/1 75/1/1
f 90/1/1 81/1/1 89/1/1
f 91/4/1 82/4/1 81/4/1
f 91/1/1 81/1/1 90/1/1
f 92/1/1 83/1/1 82/1/1
f 92/4/1 82/4/1 91/4/1
f 93/1/1 83/1/1 92/1/1
f 94/1/1 85/1/1 84/1/1
f 94/1/1 87/1/1 86/1/1
f 94/1/1 86/1/1 85/1/1
f 95/1/1 87/1/1 94/1/1
f 96/1/1 87/1/1 95/1/1
f 98/1/1 93/1/1 92/1/1
f 98/1/1 91/1/1 90/1/1
f 98/1/1 94/1/1 93/1/1
f 98/1/1 92/1/1 91/1/1
f 99/1/1 94/1/1 98/1/1
f 100/1/1 94/1/1 99/1/1
f 101/1/1 97/1/1 96/1/1
f 101/1/1 96/1/1 95/1/1
f 102/1/1 97/1/1 101/1/1
f 103/3/1 99/3/1 98/3/1
f 104/3/1 99/3/1 103/3/1
f 105/3/1 99/3/1 104/3/1
f 106/3/1 99/3/1 105/3/1
f 107/3/1 105/3/1 104/3/1
f 108/3/1 105/3/1 107/3/1
f 113/5/1 110/5/1 109/5/1
f 114/5/1 110/5/1 113/5/1
f 115/5/1 112/5/1 111/5/1
f 116/5/1 112/5/1 115/5/1
f 121/5/1 118/5/1 117/5/1
f 122/5/1 118/5/1 121/5/1
f 123/5/1 120/5/1 119/5/1
f 124/5/1 120/5/1 123/5/1
f 127/5/1 126/5/1 125/5/1
f 128/5/1 126/5/1 127/5/1
f 129/5/2 130/5/2 131/5/2
f 131/5/2 130/5/2 132/5/2
f 133/5/2 134/5/2 137/5/2
f 137/5/2 134/5/2 138/5/2
f 135/5/2 136/5/2 139/5/2
f 139/5/2 136/5/2 140/5/2
f 141/5/2 142/5/2 145/5/2
f 145/5/2 142/5/2 146/5/2
f 143/5/2 144/5/2 147/5/2
f 147/5/2 144/5/2 148/5/2
f 149/5/2 150/5/2 153/5/2
f 153/5/2 150/5/2 154/5/2
f 151/5/2 152/5/2 155/5/2
f 155/5/2 152/5/2 156/5/2
f 154/5/2 155/5/2 158/5/2
f 158/5/2 155/5/2 159/5/2
f 159/1/2 160/1/2 163/1/2
f 157/1/2 158/1/2 163/1/2
f 158/1/2 159/1/2 163/1/2
f 163/1/2 160/1/2 164/1/2
f 164/1/2 160/1/2 165/1/2
f 165/1/2 160/1/2 166/1/2
f 166/1/2 160/1/2 167/1/2
f 161/1/2 162/1/2 168/1/2
f 168/1/2 162/1/2 169/1/2
f 169/1/2 162/1/2 170/1/2
f 157/1/2 163/1/2 171/1/2
f 171/1/2 163/1/2 172/1/2
f 163/4/2 164/4/2 173/4/2
f 172/1/2 163/1/2 173/1/2
f 164/1/2 165/1/2 174/1/2
f 173/4/2 164/4/2 174/4/2
f 174/1/2 165/1/2 175/1/2
f 166/1/2 167/1/2 176/1/2
f 168/1/2 169/1/2 176/1/2
f 167/1/2 168/1/2 176/1/2
f 176/1/2 169/1/2 177/1/2
f 177/1/2 169/1/2 178/1/2
f 174/1/2 175/1/2 180/1/2
f 172/1/2 173/1/2 180/1/2
f 175/1/2 176/1/2 180/1/2
f 173/1/2 174/1/2 180/1/2
f 180/1/2 176/1/2 181/1/2
f 181/1/2 176/1/2 182/1/2
f 178/1/2 179/1/2 183/1/2
f 177/1/2 178/1/2 183/1/2
f 183/1/2 179/1/2 184/1/2
f 180/3/2 181/3/2 185/3/2
f 185/3/2 181/3/2 186/3/2
f 186/3/2 181/3/2 187/3/2
f 187/3/2 181/3/2 188/3/2
f 186/3/2 187/3/2 189/3/2
f 189/3/2 187/3/2 190/3/2
f 191/5/2 192/5/2 195/5/2
f 195/5/2 192/5/2 196/5/2
f 193/5/2 194/5/2 199/5/2
f 199/5/2 194/5/2 200/5/2
f 196/5/2 197/5/2 201/5/2
f 201/5/2 197/5/2 202/5/2
f 198/5/2 199/5/2 203/5/2
f 203/5/2 199/5/2 204/5/2
f 205/1/2 206/1/2 207/1/2
f 207/1/2 206/1/2 208/1/2
f 209/5/2 210/5/2 211/5/2
f 211/5/2 210/5/2 212/5/2
f 212/5/2 210/5/2 213/5/2
f 213/5/2 210/5/2 214/5/2
f 212/5/2 213/5/2 215/5/2
f 215/5/2 213/5/2 216/5/2
f 217/5/2 218/5/2 221/5/2
f 221/5/2 218/5/2 222/5/2
f 219/5/2 220/5/2 223/5/2
f 223/5/2 220/5/2 224/5/2
f 225/5/2 226/5/2 231/5/2
f 231/5/2 226/5/2 232/5/2
f 227/5/2 228/5/2 233/5/2
f 233/5/2 228/5/2 234/5/2
f 229/5/2 230/5/2 237/5/2
f 237/5/2 230/5/2 238/5/2
f 235/5/2 236/5/2 239/5/2
f 239/5/2 236/5/2 240/5/2
f 241/5/2 242/5/2 245/5/2
f 245/5/2 242/5/2 246/5/2
f 243/5/2 244/5/2 247/5/2
f 247/5/2 244/5/2 248/5/2
f 249/5/2 250/5/2 251/5/2
f 251/5/2 250/5/2 252/5/2
f 253/5/2 254/5/2 255/5/2
f 255/5/2 254/5/2 256/5/2
f 259/5/3 258/5/3 257/5/3
f 260/5/3 258/5/3 259/5/3
f 263/5/3 262/5/3 261/5/3
f 264/5/3 262/5/3 263/5/3
f 267/5/3 266/5/3 265/5/3
f 268/5/3 266/5/3 267/5/3
f 271/5/3 270/5/3 269/5/3
f 272/5/3 270/5/3 271/5/3
f 275/5/3 274/5/3 273/5/3
f 276/5/3 274/5/3 275/5/3
f 279/5/3 278/5/3 277/5/3
f 280/5/3 278/5/3 279/5/3
f 283/5/3 282/5/3 281/5/3
f 284/5/3 282/5/3 283/5/3
f 287/5/3 286/5/3 285/5/3
f 288/5/3 286/5/3 287/5/3
f 291/5/3 290/5/3 289/5/3
f 292/5/3 290/5/3 291/5/3
f 295/1/3 294/1/3 293/1/3
f 296/1/3 294/1/3 295/1/3
f 299/5/3 298/5/3 297/5/3
f 300/5/3 298/5/3 299/5/3
f 304/1/3 302/1/3 301/1/3
f 305/3/3 303/3/3 302/3/3
f 305/1/3 302/1/3 304/1/3
f 306/3/3 303/3/3 305/3/3
f 309/5/3 308/5/3 307/5/3
f 313/5/3 309/5/3 307/5/3
f 313/5/3 310/5/3 309/5/3
f 314/5/3 310/5/3 313/5/3
f 315/3/3 312/3/3 311/3/3
f 316/3/3 312/3/3 315/3/3
f 317/5/3 313/5/3 307/5/3
f 318/5/3 313/5/3 317/5/3
f 321/5/3 320/5/3 319/5/3
f 322/5/3 320/5/3 321/5/3
f 324/5/3 323/5/3 322/5/3
f 325/5/3 323/5/3 324/5/3
f 328/5/3 326/5/3 325/5/3
f 329/5/3 326/5/3 328/5/3
f 331/5/3 328/5/3 327/5/3
f 332/5/3 328/5/3 331/5/3
f 333/5/3 331/5/3 330/5/3
f 334/5/3 331/5/3 333/5/3
f 337/5/3 336/5/3 335/5/3
f 338/5/3 336/5/3 337/5/3
f 341/1/3 340/1/3 339/1/3
f 342/1/3 340/1/3 341/1/3
f 347/1/3 344/1/3 343/1/3
f 348/1/3 344/1/3 347/1/3
f 349/5/3 346/5/3 345/5/3
f 350/5/3 346/5/3 349/5/3
f 355/1/3 352/1/3 351/1/3
f 356/1/3 352/1/3 355/1/3
f 357/1/3 354/1/3 353/1/3
f 358/1/3 354/1/3 357/1/3
f 361/5/3 360/5/3 359/5/3
f 362/5/3 360/5/3 361/5/3
f 365/5/3 364/5/3 363/5/3
f 366/5/3 364/5/3 365/5/3
f 369/5/3 368/5/3 367/5/3
f 370/5/3 368/5/3 369/5/3
f 373/5/3 372/5/3 371/5/3
f 374/5/3 372/5/3 373/5/3
f 377/5/3 376/5/3 375/5/3
f 378/5/3 376/5/3 377/5/3
f 379/5/4 380/5/4 381/5/4
f 381/5/4 380/5/4 382/5/4
f 383/5/4 384/5/4 385/5/4
f 385/5/4 384/5/4 386/5/4
f 387/5/4 388/5/4 389/5/4
f 389/5/4 388/5/4 390/5/4
f 391/5/4 392/5/4 393/5/4
f 393/5/4 392/5/4 394/5/4
f 395/5/4 396/5/4 397/5/4
f 397/5/4 396/5/4 398/5/4
f 399/3/4 400/3/4 401/3/4
f 401/3/4 400/3/4 402/3/4
f 403/5/4 404/5/4 405/5/4
f 405/5/4 404/5/4 406/5/4
f 407/3/4 408/3/4 409/3/4
f 409/3/4 408/3/4 410/3/4
f 411/5/4 412/5/4 413/5/4
f 413/5/4 412/5/4 414/5/4
f 415/5/4 416/5/4 417/5/4
f 417/5/4 416/5/4 418/5/4
f 418/5/4 419/5/4 422/5/4
f 422/5/4 419/5/4 423/5/4
f 420/1/4 421/1/4 425/1/4
f 425/1/4 421/1/4 426/1/4
f 423/5/4 424/5/4 429/5/4
f 429/5/4 424/5/4 430/5/4
f 426/1/4 427/1/4 432/1/4
f 432/1/4 427/1/4 433/1/4
f 428/5/4 429/5/4 435/5/4
f 435/5/4 429/5/4 436/5/4
f 431/1/4 432/1/4 437/1/4
f 437/1/4 432/1/4 438/1/4
f 434/5/4 435/5/4 439/5/4
f 439/5/4 435/5/4 440/5/4
f 441/5/4 442/5/4 443/5/4
f 441/5/4 443/5/4 447/5/4
f 443/5/4 444/5/4 447/5/4
f 447/5/4 444/5/4 448/5/4
f 445/1/4 446/1/4 449/1/4
f 449/1/4 446/1/4 450/1/4
f 441/5/4 447/5/4 451/5/4
f 451/5/4 447/5/4 452/5/4
f 453/5/4 454/5/4 455/5/4
f 455/5/4 454/5/4 456/5/4
f 457/1/4 458/1/4 459/1/4
f 459/1/4 458/1/4 460/1/4
f 461/5/4 462/5/4 463/5/4
f 463/5/4 462/5/4 464/5/4
f 465/5/4 466/5/4 467/5/4
f 467/5/4 466/5/4 468/5/4
f 469/1/4 470/1/4 473/1/4
f 473/1/4 470/1/4 474/1/4
f 471/1/4 472/1/4 475/1/4
f 475/1/4 472/1/4 476/1/4
f 477/5/4 478/5/4 479/5/4
f 479/5/4 478/5/4 480/5/4
f 481/5/4 482/5/4 483/5/4
f 483/5/4 482/5/4 484/5/4
f 485/5/4 486/5/4 487/5/4
f 487/5/4 486/5/4 488/5/4
f 489/5/4 490/5/4 491/5/4
f 491/5/4 490/5/4 492/5/4
f 493/5/4 494/5/4 495/5/4
f 495/5/4 494/5/4 496/5/4
f 497/5/4 498/5/4 499/5/4
f 499/5/4 498/5/4 500/5/4
f 501/5/4 502/5/4 503/5/4
f 503/5/4 502/5/4 504/5/4
f 508/5/5 506/5/5 505/5/5
f 509/5/5 506/5/5 508/5/5
f 512/5/5 508/5/5 507/5/5
f 512/5/5 510/5/5 509/5/5
f 512/5/5 509/5/5 508/5/5
f 513/5/5 510/5/5 512/5/5
f 515/5/5 512/5/5 511/5/5
f 515/5/5 514/5/5 513/5/5
f 515/5/5 513/5/5 512/5/5
f 516/5/5 514/5/5 515/5/5
f 517/5/5 514/5/5 516/5/5
f 518/5/5 514/5/5 517/5/5
f 519/5/5 517/5/5 516/5/5
f 520/5/5 517/5/5 519/5/5
f 521/5/5 517/5/5 520/5/5
f 522/5/5 517/5/5 521/5/5
f 523/5/5 521/5/5 520/5/5
f 524/5/5 521/5/5 523/5/5
f 528/5/5 526/5/5 525/5/5
f 529/5/5 526/5/5 528/5/5
f 530/5/5 526/5/5 529/5/5
f 531/5/5 526/5/5 530/5/5
f 533/5/5 528/5/5 527/5/5
f 533/5/5 529/5/5 528/5/5
f 534/5/5 529/5/5 533/5/5
f 535/5/5 532/5/5 531/5/5
f 535/5/5 531/5/5 530/5/5
f 536/5/5 532/5/5 535/5/5
f 538/5/5 533/5/5 527/5/5
f 539/5/5 532/5/5 536/5/5
f 541/5/5 538/5/5 537/5/5
f 542/5/5 533/5/5 538/5/5
f 542/5/5 538/5/5 541/5/5
f 543/5/5 540/5/5 539/5/5
f 543/5/5 539/5/5 536/5/5
f 544/5/5 540/5/5 543/5/5
f 545/5/5 541/5/5 537/5/5
f 548/5/5 540/5/5 544/5/5
f 549/5/5 546/5/5 545/5/5
f 549/5/5 545/5/5 537/5/5
f 550/5/5 546/5/5 549/5/5
f 551/5/5 548/5/5 547/5/5
f 552/5/5 540/5/5 548/5/5
f 552/5/5 548/5/5 551/5/5
f 553/5/5 546/5/5 550/5/5
f 556/5/5 551/5/5 547/5/5
f 557/5/5 554/5/5 553/5/5
f 557/5/5 553/5/5 550/5/5
f 558/5/5 554/5/5 557/5/5
f 559/5/5 554/5/5 558/5/5
f 560/5/5 556/5/5 555/5/5
f 561/5/5 551/5/5 556/5/5
f 561/5/5 556/5/5 560/5/5
f 562/5/5 551/5/5 561/5/5
f 563/5/5 559/5/5 558/5/5
f 563/5/5 560/5/5 559/5/5
f 563/5/5 561/5/5 560/5/5
f 564/5/5 561/5/5 563/5/5
f 567/1/5 566/1/5 565/1/5
f 568/1/5 566/1/5 567/1/5
f 571/1/5 570/1/5 569/1/5
f 572/1/5 570/1/5 571/1/5
f 575/1/5 574/1/5 573/1/5
f 576/1/5 574/1/5 575/1/5
f 581/1/5 578/1/5 577/1/5
f 582/1/5 578/1/5 581/1/5
f 583/1/5 580/1/5 579/1/5
f 584/1/5 580/1/5 583/1/5
f 587/1/5 586/1/5 585/1/5
f 588/1/5 586/1/5 587/1/5
f 591/1/5 590/1/5 589/1/5
f 592/1/5 590/1/5 591/1/5
f 593/2/6 594/2/6 596/2/6
f 596/2/6 594/2/6 597/2/6
f 595/2/6 596/2/6 600/2/6
f 597/2/6 598/2/6 600/2/6
f 596/2/6 597/2/6 600/2/6
f 600/2/6 598/2/6 601/2/6
f 599/2/6 600/2/6 603/2/6
f 601/2/6 602/2/6 603/2/6
f 600/2/6 601/2/6 603/2/6
f 603/2/6 602/2/6 604/2/6
f 599/2/6 603/2/6 605/2/6
f 605/2/6 603/2/6 606/2/6
f 604/2/6 602/2/6 607/2/6
f 607/2/6 602/2/6 608/2/6
f 599/2/6 605/2/6 609/2/6
f 608/2/6 602/2/6 612/2/6
f 609/2/6 610/2/6 613/2/6
f 611/2/6 612/2/6 614/2/6
f 609/2/6 613/2/6 615/2/6
f 613/2/6 614/2/6 615/2/6
f 599/2/6 609/2/6 615/2/6
f 615/2/6 614/2/6 616/2/6
f 614/2/6 612/2/6 617/2/6
f 616/2/6 614/2/6 617/2/6
f 612/2/6 602/2/6 617/2/6
f 617/2/6 602/2/6 618/2/6
f 616/2/6 617/2/6 619/2/6
f 619/2/6 617/2/6 620/2/6
f 620/2/6 617/2/6 621/2/6
f 621/2/6 617/2/6 622/2/6
f 620/2/6 621/2/6 623/2/6
f 623/2/6 621/2/6 624/2/6
f 625/5/6 626/5/6 628/5/6
f 628/5/6 626/5/6 629/5/6
f 629/5/6 626/5/6 630/5/6
f 630/5/6 626/5/6 631/5/6
f 627/5/6 628/5/6 633/5/6
f 628/5/6 629/5/6 633/5/6
f 633/5/6 629/5/6 634/5/6
f 631/5/6 632/5/6 635/5/6
f 630/5/6 631/5/6 635/5/6
f 635/5/6 632/5/6 636/5/6
f 627/5/6 633/5/6 638/5/6
f 636/5/6 632/5/6 639/5/6
f 637/5/6 638/5/6 641/5/6
f 638/5/6 633/5/6 642/5/6
f 641/5/6 638/5/6 642/5/6
f 639/5/6 640/5/6 643/5/6
f 636/5/6 639/5/6 643/5/6
f 643/5/6 640/5/6 644/5/6
f 637/5/6 641/5/6 645/5/6
f 644/5/6 640/5/6 648/5/6
f 645/5/6 646/5/6 649/5/6
f 637/5/6 645/5/6 649/5/6
f 649/5/6 646/5/6 650/5/6
f 647/5/6 648/5/6 651/5/6
f 648/5/6 640/5/6 652/5/6
f 651/5/6 648/5/6 652/5/6
f 650/5/6 646/5/6 653/5/6
f 647/5/6 651/5/6 656/5/6
f 653/5/6 654/5/6 657/5/6
f 650/5/6 653/5/6 657/5/6
f 657/5/6 654/5/6 658/5/6
f 658/5/6 654/5/6 659/5/6
f 655/5/6 656/5/6 660/5/6
f 656/5/6 651/5/6 661/5/6
f 660/5/6 656/5/6 661/5/6
f 661/5/6 651/5/6 662/5/6
f 658/5/6 659/5/6 663/5/6
f 659/5/6 660/5/6 663/5/6
f 660/5/6 661/5/6 663/5/6
f 663/5/6 661/5/6 664/5/6
f 665/5/6 666/5/6 670/5/6
f 670/5/6 666/5/6 671/5/6
f 667/5/6 668/5/6 672/5/6
f 672/5/6 668/5/6 673/5/6
f 669/5/6 670/5/6 675/5/6
f 675/5/6 670/5/6 676/5/6
f 673/5/6 674/5/6 677/5/6
f 677/5/6 674/5/6 678/5/6
f 679/5/6 680/5/6 683/5/6
f 683/5/6 680/5/6 684/5/6
f 681/5/6 682/5/6 687/5/6
f 687/5/6 682/5/6 688/5/6
f 684/5/6 685/5/6 689/5/6
f 689/5/6 685/5/6 690/5/6
f 686/5/6 687/5/6 691/5/6
f 691/5/6 687/5/6 692/5/6
f 693/5/6 694/5/6 696/5/6
f 696/5/6 694/5/6 697/5/6
f 695/5/6 696/5/6 700/5/6
f 697/5/6 698/5/6 701/5/6
f 699/5/6 700/5/6 703/5/6
f 700/5/6 696/5/6 704/5/6
f 703/5/6 700/5/6 704/5/6
f 701/5/6 702/5/6 705/5/6
f 697/5/6 701/5/6 705/5/6
f 705/5/6 702/5/6 706/5/6
f 704/5/6 696/5/6 707/5/6
f 707/5/6 696/5/6 708/5/6
f 697/5/6 705/5/6 709/5/6
f 709/5/6 705/5/6 710/5/6
f 708/5/6 709/5/6 711/5/6
f 711/5/6 709/5/6 712/5/6
f 713/1/6 714/1/6 715/1/6
f 715/1/6 714/1/6 716/1/6
f 717/1/6 718/1/6 719/1/6
f 719/1/6 718/1/6 720/1/6
f 721/1/6 722/1/6 725/1/6
f 725/1/6 722/1/6 726/1/6
f 723/1/6 724/1/6 727/1/6
f 727/1/6 724/1/6 728/1/6
f 726/1/6 727/1/6 729/1/6
f 729/1/6 727/1/6 730/1/6
f 731/1/6 732/1/6 733/1/6
f 733/1/6 732/1/6 734/1/6
f 735/1/6 736/1/6 737/1/6
f 737/1/6 736/1/6 738/1/6
f 739/3/6 740/3/6 741/3/6
f 741/3/6 740/3/6 742/3/6
f 743/3/6 744/3/6 745/3/6
f 745/3/6 744/3/6 746/3/6
f 747/3/6 748/3/6 749/3/6
f 749/3/6 748/3/6 750/3/6
