# MagicaVoxel @ Ephtracy

# material
mtllib trafiklys.mtl
usemtl palette

# normals
vn -1 0 0
vn 1 0 0
vn 0 0 1
vn 0 0 -1
vn 0 -1 0
vn 0 1 0

# texcoords
vt 0.0449219 0.5
vt 0.373047 0.5
vt 0.861328 0.5
vt 0.904297 0.5
vt 0.990234 0.5

# verts
v -3.5 0 -0
v -3.5 0 -1
v -3.5 22 -0
v -3.5 22 -1
v -3.5 23 2
v -3.5 23 -3
v -3.5 35 2
v -3.5 35 -3
v -2.5 0 2
v -2.5 0 -0
v -2.5 0 -1
v -2.5 0 -3
v -2.5 22 2
v -2.5 22 1
v -2.5 22 -0
v -2.5 22 -1
v -2.5 22 -2
v -2.5 22 -3
v -2.5 23 3
v -2.5 23 2
v -2.5 23 1
v -2.5 23 -2
v -2.5 23 -3
v -2.5 23 -4
v -2.5 24 4
v -2.5 24 3
v -2.5 26 4
v -2.5 26 3
v -2.5 28 4
v -2.5 28 3
v -2.5 30 4
v -2.5 30 3
v -2.5 32 4
v -2.5 32 3
v -2.5 34 4
v -2.5 34 3
v -2.5 35 3
v -2.5 35 2
v -2.5 35 -3
v -2.5 35 -4
v -2.5 36 2
v -2.5 36 -3
v -1.5 22 2
v -1.5 22 1
v -1.5 22 -2
v -1.5 22 -3
v -1.5 23 2
v -1.5 23 1
v -1.5 23 -2
v -1.5 23 -3
v -1.5 26 4
v -1.5 26 3
v -1.5 27 4
v -1.5 27 3
v -1.5 30 4
v -1.5 30 3
v -1.5 31 4
v -1.5 31 3
v -1.5 34 4
v -1.5 34 3
v -1.5 35 4
v -1.5 35 3
v -0.5 0 3
v -0.5 0 2
v -0.5 0 -3
v -0.5 0 -4
v -0.5 22 3
v -0.5 22 2
v -0.5 22 -3
v -0.5 22 -4
v 0.5 25 4
v 0.5 25 3
v 0.5 26 4
v 0.5 26 3
v 0.5 29 4
v 0.5 29 3
v 0.5 30 4
v 0.5 30 3
v 0.5 33 4
v 0.5 33 3
v 0.5 34 4
v 0.5 34 3
v 1.5 24 4
v 1.5 24 3
v 1.5 25 4
v 1.5 25 3
v 1.5 28 4
v 1.5 28 3
v 1.5 29 4
v 1.5 29 3
v 1.5 32 4
v 1.5 32 3
v 1.5 33 4
v 1.5 33 3
v -1.5 24 4
v -1.5 24 3
v -1.5 25 4
v -1.5 25 3
v -1.5 28 4
v -1.5 28 3
v -1.5 29 4
v -1.5 29 3
v -1.5 32 4
v -1.5 32 3
v -1.5 33 4
v -1.5 33 3
v -0.5 25 4
v -0.5 25 3
v -0.5 26 4
v -0.5 26 3
v -0.5 29 4
v -0.5 29 3
v -0.5 30 4
v -0.5 30 3
v -0.5 33 4
v -0.5 33 3
v -0.5 34 4
v -0.5 34 3
v 0.5 0 3
v 0.5 0 2
v 0.5 0 -3
v 0.5 0 -4
v 0.5 22 3
v 0.5 22 2
v 0.5 22 -3
v 0.5 22 -4
v 1.5 22 2
v 1.5 22 1
v 1.5 22 -2
v 1.5 22 -3
v 1.5 23 2
v 1.5 23 1
v 1.5 23 -2
v 1.5 23 -3
v 1.5 26 4
v 1.5 26 3
v 1.5 27 4
v 1.5 27 3
v 1.5 30 4
v 1.5 30 3
v 1.5 31 4
v 1.5 31 3
v 1.5 34 4
v 1.5 34 3
v 1.5 35 4
v 1.5 35 3
v 2.5 0 2
v 2.5 0 -0
v 2.5 0 -1
v 2.5 0 -3
v 2.5 22 2
v 2.5 22 1
v 2.5 22 -0
v 2.5 22 -1
v 2.5 22 -2
v 2.5 22 -3
v 2.5 23 3
v 2.5 23 2
v 2.5 23 1
v 2.5 23 -2
v 2.5 23 -3
v 2.5 23 -4
v 2.5 24 4
v 2.5 24 3
v 2.5 26 4
v 2.5 26 3
v 2.5 28 4
v 2.5 28 3
v 2.5 30 4
v 2.5 30 3
v 2.5 32 4
v 2.5 32 3
v 2.5 34 4
v 2.5 34 3
v 2.5 35 3
v 2.5 35 2
v 2.5 35 -3
v 2.5 35 -4
v 2.5 36 2
v 2.5 36 -3
v 3.5 0 -0
v 3.5 0 -1
v 3.5 22 -0
v 3.5 22 -1
v 3.5 23 2
v 3.5 23 -3
v 3.5 35 2
v 3.5 35 -3
v -2.5 24 4
v -2.5 26 4
v -2.5 28 4
v -2.5 30 4
v -2.5 32 4
v -2.5 34 4
v -1.5 24 4
v -1.5 25 4
v -1.5 26 4
v -1.5 27 4
v -1.5 28 4
v -1.5 29 4
v -1.5 30 4
v -1.5 31 4
v -1.5 32 4
v -1.5 33 4
v -1.5 34 4
v -1.5 35 4
v -0.5 25 4
v -0.5 26 4
v -0.5 29 4
v -0.5 30 4
v -0.5 33 4
v -0.5 34 4
v 0.5 25 4
v 0.5 26 4
v 0.5 29 4
v 0.5 30 4
v 0.5 33 4
v 0.5 34 4
v 1.5 24 4
v 1.5 25 4
v 1.5 26 4
v 1.5 27 4
v 1.5 28 4
v 1.5 29 4
v 1.5 30 4
v 1.5 31 4
v 1.5 32 4
v 1.5 33 4
v 1.5 34 4
v 1.5 35 4
v 2.5 24 4
v 2.5 26 4
v 2.5 28 4
v 2.5 30 4
v 2.5 32 4
v 2.5 34 4
v -2.5 23 3
v -2.5 24 3
v -2.5 26 3
v -2.5 28 3
v -2.5 30 3
v -2.5 32 3
v -2.5 34 3
v -2.5 35 3
v -1.5 24 3
v -1.5 25 3
v -1.5 26 3
v -1.5 27 3
v -1.5 28 3
v -1.5 29 3
v -1.5 30 3
v -1.5 31 3
v -1.5 32 3
v -1.5 33 3
v -1.5 34 3
v -1.5 35 3
v -0.5 0 3
v -0.5 22 3
v -0.5 23 3
v -0.5 24 3
v -0.5 25 3
v -0.5 26 3
v -0.5 27 3
v -0.5 28 3
v -0.5 29 3
v -0.5 30 3
v -0.5 31 3
v -0.5 32 3
v -0.5 33 3
v -0.5 34 3
v 0.5 0 3
v 0.5 22 3
v 0.5 23 3
v 0.5 24 3
v 0.5 25 3
v 0.5 26 3
v 0.5 27 3
v 0.5 28 3
v 0.5 29 3
v 0.5 30 3
v 0.5 31 3
v 0.5 32 3
v 0.5 33 3
v 0.5 34 3
v 1.5 24 3
v 1.5 25 3
v 1.5 26 3
v 1.5 27 3
v 1.5 28 3
v 1.5 29 3
v 1.5 30 3
v 1.5 31 3
v 1.5 32 3
v 1.5 33 3
v 1.5 34 3
v 1.5 35 3
v 2.5 23 3
v 2.5 24 3
v 2.5 26 3
v 2.5 28 3
v 2.5 30 3
v 2.5 32 3
v 2.5 34 3
v 2.5 35 3
v -3.5 23 2
v -3.5 35 2
v -2.5 0 2
v -2.5 22 2
v -2.5 23 2
v -2.5 35 2
v -2.5 36 2
v -1.5 22 2
v -1.5 23 2
v -0.5 0 2
v -0.5 22 2
v -0.5 23 2
v 0.5 0 2
v 0.5 22 2
v 0.5 23 2
v 1.5 22 2
v 1.5 23 2
v 2.5 0 2
v 2.5 22 2
v 2.5 23 2
v 2.5 35 2
v 2.5 36 2
v 3.5 23 2
v 3.5 35 2
v -2.5 22 1
v -2.5 23 1
v -1.5 22 1
v -1.5 23 1
v 1.5 22 1
v 1.5 23 1
v 2.5 22 1
v 2.5 23 1
v -3.5 0 -0
v -3.5 22 -0
v -2.5 0 -0
v -2.5 22 -0
v 2.5 0 -0
v 2.5 22 -0
v 3.5 0 -0
v 3.5 22 -0
v -3.5 0 -1
v -3.5 22 -1
v -2.5 0 -1
v -2.5 22 -1
v 2.5 0 -1
v 2.5 22 -1
v 3.5 0 -1
v 3.5 22 -1
v -2.5 22 -2
v -2.5 23 -2
v -1.5 22 -2
v -1.5 23 -2
v 1.5 22 -2
v 1.5 23 -2
v 2.5 22 -2
v 2.5 23 -2
v -3.5 23 -3
v -3.5 35 -3
v -2.5 0 -3
v -2.5 22 -3
v -2.5 23 -3
v -2.5 35 -3
v -2.5 36 -3
v -1.5 22 -3
v -1.5 23 -3
v -0.5 0 -3
v -0.5 22 -3
v 0.5 0 -3
v 0.5 22 -3
v 1.5 22 -3
v 1.5 23 -3
v 2.5 0 -3
v 2.5 22 -3
v 2.5 23 -3
v 2.5 35 -3
v 2.5 36 -3
v 3.5 23 -3
v 3.5 35 -3
v -2.5 23 -4
v -2.5 35 -4
v -0.5 0 -4
v -0.5 22 -4
v 0.5 0 -4
v 0.5 22 -4
v 2.5 23 -4
v 2.5 35 -4
v -0.5 0 3
v 0.5 0 3
v -2.5 0 2
v -0.5 0 2
v 0.5 0 2
v 2.5 0 2
v -3.5 0 -0
v -2.5 0 -0
v 2.5 0 -0
v 3.5 0 -0
v -3.5 0 -1
v -2.5 0 -1
v 2.5 0 -1
v 3.5 0 -1
v -2.5 0 -3
v -0.5 0 -3
v 0.5 0 -3
v 2.5 0 -3
v -0.5 0 -4
v 0.5 0 -4
v -2.5 23 3
v -0.5 23 3
v 0.5 23 3
v 2.5 23 3
v -3.5 23 2
v -2.5 23 2
v -1.5 23 2
v -0.5 23 2
v 0.5 23 2
v 1.5 23 2
v 2.5 23 2
v 3.5 23 2
v -2.5 23 1
v -1.5 23 1
v 1.5 23 1
v 2.5 23 1
v -2.5 23 -2
v -1.5 23 -2
v 1.5 23 -2
v 2.5 23 -2
v -3.5 23 -3
v -2.5 23 -3
v -1.5 23 -3
v 1.5 23 -3
v 2.5 23 -3
v 3.5 23 -3
v -2.5 23 -4
v 2.5 23 -4
v -2.5 24 4
v -1.5 24 4
v 1.5 24 4
v 2.5 24 4
v -2.5 24 3
v -1.5 24 3
v 1.5 24 3
v 2.5 24 3
v -1.5 25 4
v -0.5 25 4
v 0.5 25 4
v 1.5 25 4
v -1.5 25 3
v -0.5 25 3
v 0.5 25 3
v 1.5 25 3
v -0.5 26 4
v 0.5 26 4
v -0.5 26 3
v 0.5 26 3
v -2.5 28 4
v -1.5 28 4
v 1.5 28 4
v 2.5 28 4
v -2.5 28 3
v -1.5 28 3
v 1.5 28 3
v 2.5 28 3
v -1.5 29 4
v -0.5 29 4
v 0.5 29 4
v 1.5 29 4
v -1.5 29 3
v -0.5 29 3
v 0.5 29 3
v 1.5 29 3
v -0.5 30 4
v 0.5 30 4
v -0.5 30 3
v 0.5 30 3
v -2.5 32 4
v -1.5 32 4
v 1.5 32 4
v 2.5 32 4
v -2.5 32 3
v -1.5 32 3
v 1.5 32 3
v 2.5 32 3
v -1.5 33 4
v -0.5 33 4
v 0.5 33 4
v 1.5 33 4
v -1.5 33 3
v -0.5 33 3
v 0.5 33 3
v 1.5 33 3
v -0.5 34 4
v 0.5 34 4
v -0.5 34 3
v 0.5 34 3
v -0.5 22 3
v 0.5 22 3
v -2.5 22 2
v -1.5 22 2
v -0.5 22 2
v 0.5 22 2
v 1.5 22 2
v 2.5 22 2
v -2.5 22 1
v -1.5 22 1
v 1.5 22 1
v 2.5 22 1
v -3.5 22 -0
v -2.5 22 -0
v 2.5 22 -0
v 3.5 22 -0
v -3.5 22 -1
v -2.5 22 -1
v 2.5 22 -1
v 3.5 22 -1
v -2.5 22 -2
v -1.5 22 -2
v 1.5 22 -2
v 2.5 22 -2
v -2.5 22 -3
v -1.5 22 -3
v -0.5 22 -3
v 0.5 22 -3
v 1.5 22 -3
v 2.5 22 -3
v -0.5 22 -4
v 0.5 22 -4
v -2.5 26 4
v -1.5 26 4
v 1.5 26 4
v 2.5 26 4
v -2.5 26 3
v -1.5 26 3
v 1.5 26 3
v 2.5 26 3
v -1.5 27 4
v 1.5 27 4
v -1.5 27 3
v -0.5 27 3
v 0.5 27 3
v 1.5 27 3
v -2.5 30 4
v -1.5 30 4
v 1.5 30 4
v 2.5 30 4
v -2.5 30 3
v -1.5 30 3
v 1.5 30 3
v 2.5 30 3
v -1.5 31 4
v 1.5 31 4
v -1.5 31 3
v -0.5 31 3
v 0.5 31 3
v 1.5 31 3
v -2.5 34 4
v -1.5 34 4
v 1.5 34 4
v 2.5 34 4
v -2.5 34 3
v -1.5 34 3
v 1.5 34 3
v 2.5 34 3
v -1.5 35 4
v 1.5 35 4
v -2.5 35 3
v -1.5 35 3
v 1.5 35 3
v 2.5 35 3
v -3.5 35 2
v -2.5 35 2
v 2.5 35 2
v 3.5 35 2
v -3.5 35 -3
v -2.5 35 -3
v 2.5 35 -3
v 3.5 35 -3
v -2.5 35 -4
v 2.5 35 -4
v -2.5 36 2
v 2.5 36 2
v -2.5 36 -3
v 2.5 36 -3

# faces
f 3/5/1 2/5/1 1/5/1
f 4/5/1 2/5/1 3/5/1
f 7/5/1 6/5/1 5/5/1
f 8/5/1 6/5/1 7/5/1
f 13/5/1 10/5/1 9/5/1
f 14/5/1 10/5/1 13/5/1
f 15/5/1 10/5/1 14/5/1
f 16/5/1 12/5/1 11/5/1
f 17/5/1 12/5/1 16/5/1
f 18/5/1 12/5/1 17/5/1
f 21/5/1 15/5/1 14/5/1
f 21/5/1 16/5/1 15/5/1
f 21/5/1 17/5/1 16/5/1
f 22/5/1 17/5/1 21/5/1
f 26/5/1 20/5/1 19/5/1
f 27/5/1 26/5/1 25/5/1
f 28/5/1 20/5/1 26/5/1
f 28/5/1 26/5/1 27/5/1
f 30/5/1 20/5/1 28/5/1
f 31/5/1 30/5/1 29/5/1
f 32/5/1 20/5/1 30/5/1
f 32/5/1 30/5/1 31/5/1
f 34/5/1 20/5/1 32/5/1
f 35/5/1 34/5/1 33/5/1
f 36/5/1 20/5/1 34/5/1
f 36/5/1 34/5/1 35/5/1
f 37/5/1 20/5/1 36/5/1
f 38/5/1 20/5/1 37/5/1
f 39/5/1 24/5/1 23/5/1
f 40/5/1 24/5/1 39/5/1
f 41/5/1 39/5/1 38/5/1
f 42/5/1 39/5/1 41/5/1
f 47/5/1 44/5/1 43/5/1
f 48/5/1 44/5/1 47/5/1
f 49/5/1 46/5/1 45/5/1
f 50/5/1 46/5/1 49/5/1
f 53/5/1 52/5/1 51/5/1
f 54/5/1 52/5/1 53/5/1
f 57/5/1 56/5/1 55/5/1
f 58/5/1 56/5/1 57/5/1
f 61/5/1 60/5/1 59/5/1
f 62/5/1 60/5/1 61/5/1
f 67/5/1 64/5/1 63/5/1
f 68/5/1 64/5/1 67/5/1
f 69/5/1 66/5/1 65/5/1
f 70/5/1 66/5/1 69/5/1
f 73/5/1 72/5/1 71/5/1
f 74/5/1 72/5/1 73/5/1
f 77/5/1 76/5/1 75/5/1
f 78/5/1 76/5/1 77/5/1
f 81/5/1 80/5/1 79/5/1
f 82/5/1 80/5/1 81/5/1
f 85/5/1 84/5/1 83/5/1
f 86/5/1 84/5/1 85/5/1
f 89/5/1 88/5/1 87/5/1
f 90/5/1 88/5/1 89/5/1
f 93/5/1 92/5/1 91/5/1
f 94/5/1 92/5/1 93/5/1
f 95/5/2 96/5/2 97/5/2
f 97/5/2 96/5/2 98/5/2
f 99/5/2 100/5/2 101/5/2
f 101/5/2 100/5/2 102/5/2
f 103/5/2 104/5/2 105/5/2
f 105/5/2 104/5/2 106/5/2
f 107/5/2 108/5/2 109/5/2
f 109/5/2 108/5/2 110/5/2
f 111/5/2 112/5/2 113/5/2
f 113/5/2 112/5/2 114/5/2
f 115/5/2 116/5/2 117/5/2
f 117/5/2 116/5/2 118/5/2
f 119/5/2 120/5/2 123/5/2
f 123/5/2 120/5/2 124/5/2
f 121/5/2 122/5/2 125/5/2
f 125/5/2 122/5/2 126/5/2
f 127/5/2 128/5/2 131/5/2
f 131/5/2 128/5/2 132/5/2
f 129/5/2 130/5/2 133/5/2
f 133/5/2 130/5/2 134/5/2
f 135/5/2 136/5/2 137/5/2
f 137/5/2 136/5/2 138/5/2
f 139/5/2 140/5/2 141/5/2
f 141/5/2 140/5/2 142/5/2
f 143/5/2 144/5/2 145/5/2
f 145/5/2 144/5/2 146/5/2
f 147/5/2 148/5/2 151/5/2
f 151/5/2 148/5/2 152/5/2
f 152/5/2 148/5/2 153/5/2
f 149/5/2 150/5/2 154/5/2
f 154/5/2 150/5/2 155/5/2
f 155/5/2 150/5/2 156/5/2
f 152/5/2 153/5/2 159/5/2
f 153/5/2 154/5/2 159/5/2
f 154/5/2 155/5/2 159/5/2
f 159/5/2 155/5/2 160/5/2
f 157/5/2 158/5/2 164/5/2
f 163/5/2 164/5/2 165/5/2
f 164/5/2 158/5/2 166/5/2
f 165/5/2 164/5/2 166/5/2
f 166/5/2 158/5/2 168/5/2
f 167/5/2 168/5/2 169/5/2
f 168/5/2 158/5/2 170/5/2
f 169/5/2 168/5/2 170/5/2
f 170/5/2 158/5/2 172/5/2
f 171/5/2 172/5/2 173/5/2
f 172/5/2 158/5/2 174/5/2
f 173/5/2 172/5/2 174/5/2
f 174/5/2 158/5/2 175/5/2
f 175/5/2 158/5/2 176/5/2
f 161/5/2 162/5/2 177/5/2
f 177/5/2 162/5/2 178/5/2
f 176/5/2 177/5/2 179/5/2
f 179/5/2 177/5/2 180/5/2
f 181/5/2 182/5/2 183/5/2
f 183/5/2 182/5/2 184/5/2
f 185/5/2 186/5/2 187/5/2
f 187/5/2 186/5/2 188/5/2
f 195/5/3 190/5/3 189/5/3
f 196/5/3 190/5/3 195/5/3
f 197/5/3 190/5/3 196/5/3
f 199/5/3 192/5/3 191/5/3
f 200/5/3 192/5/3 199/5/3
f 201/5/3 192/5/3 200/5/3
f 203/5/3 194/5/3 193/5/3
f 204/5/3 194/5/3 203/5/3
f 205/5/3 194/5/3 204/5/3
f 207/5/3 198/5/3 197/5/3
f 207/5/3 197/5/3 196/5/3
f 208/5/3 198/5/3 207/5/3
f 209/5/3 202/5/3 201/5/3
f 209/5/3 201/5/3 200/5/3
f 210/5/3 202/5/3 209/5/3
f 211/5/3 206/5/3 205/5/3
f 211/5/3 205/5/3 204/5/3
f 212/5/3 206/5/3 211/5/3
f 214/5/3 198/5/3 208/5/3
f 216/5/3 202/5/3 210/5/3
f 218/5/3 206/5/3 212/5/3
f 220/5/3 214/5/3 213/5/3
f 221/5/3 198/5/3 214/5/3
f 221/5/3 214/5/3 220/5/3
f 222/5/3 198/5/3 221/5/3
f 224/5/3 216/5/3 215/5/3
f 225/5/3 202/5/3 216/5/3
f 225/5/3 216/5/3 224/5/3
f 226/5/3 202/5/3 225/5/3
f 228/5/3 218/5/3 217/5/3
f 229/5/3 206/5/3 218/5/3
f 229/5/3 218/5/3 228/5/3
f 230/5/3 206/5/3 229/5/3
f 231/5/3 220/5/3 219/5/3
f 231/5/3 221/5/3 220/5/3
f 232/5/3 221/5/3 231/5/3
f 233/5/3 224/5/3 223/5/3
f 233/5/3 225/5/3 224/5/3
f 234/5/3 225/5/3 233/5/3
f 235/5/3 229/5/3 228/5/3
f 235/5/3 228/5/3 227/5/3
f 236/5/3 229/5/3 235/5/3
f 245/5/3 238/5/3 237/5/3
f 247/5/3 240/5/3 239/5/3
f 248/5/3 240/5/3 247/5/3
f 249/5/3 240/5/3 248/5/3
f 251/5/3 242/5/3 241/5/3
f 252/5/3 242/5/3 251/5/3
f 253/5/3 242/5/3 252/5/3
f 255/5/3 244/5/3 243/5/3
f 256/5/3 244/5/3 255/5/3
f 259/5/3 245/5/3 237/5/3
f 260/3/3 246/3/3 245/3/3
f 260/5/3 245/5/3 259/5/3
f 261/3/3 246/3/3 260/3/3
f 263/5/3 249/5/3 248/5/3
f 264/2/3 250/2/3 249/2/3
f 264/5/3 249/5/3 263/5/3
f 265/2/3 250/2/3 264/2/3
f 267/5/3 253/5/3 252/5/3
f 268/4/3 254/4/3 253/4/3
f 268/5/3 253/5/3 267/5/3
f 269/4/3 254/4/3 268/4/3
f 271/5/3 258/5/3 257/5/3
f 272/5/3 258/5/3 271/5/3
f 273/3/3 262/3/3 261/3/3
f 273/3/3 260/3/3 259/3/3
f 273/3/3 261/3/3 260/3/3
f 274/3/3 262/3/3 273/3/3
f 275/3/3 262/3/3 274/3/3
f 276/3/3 262/3/3 275/3/3
f 277/2/3 266/2/3 265/2/3
f 277/2/3 264/2/3 263/2/3
f 277/2/3 265/2/3 264/2/3
f 278/2/3 266/2/3 277/2/3
f 279/2/3 266/2/3 278/2/3
f 280/2/3 266/2/3 279/2/3
f 281/4/3 270/4/3 269/4/3
f 281/4/3 269/4/3 268/4/3
f 281/4/3 268/4/3 267/4/3
f 282/4/3 270/4/3 281/4/3
f 283/4/3 270/4/3 282/4/3
f 284/4/3 270/4/3 283/4/3
f 285/3/3 275/3/3 274/3/3
f 285/5/3 274/5/3 273/5/3
f 286/3/3 275/3/3 285/3/3
f 288/5/3 278/5/3 277/5/3
f 289/2/3 279/2/3 278/2/3
f 289/5/3 278/5/3 288/5/3
f 290/2/3 279/2/3 289/2/3
f 292/5/3 282/5/3 281/5/3
f 293/4/3 283/4/3 282/4/3
f 293/5/3 282/5/3 292/5/3
f 294/4/3 283/4/3 293/4/3
f 297/5/3 285/5/3 273/5/3
f 298/5/3 285/5/3 297/5/3
f 299/5/3 288/5/3 287/5/3
f 299/5/3 289/5/3 288/5/3
f 300/5/3 289/5/3 299/5/3
f 301/5/3 292/5/3 291/5/3
f 301/5/3 293/5/3 292/5/3
f 302/5/3 293/5/3 301/5/3
f 303/5/3 296/5/3 295/5/3
f 304/5/3 296/5/3 303/5/3
f 309/5/3 306/5/3 305/5/3
f 310/5/3 306/5/3 309/5/3
f 312/5/3 308/5/3 307/5/3
f 314/5/3 312/5/3 307/5/3
f 314/5/3 313/5/3 312/5/3
f 315/5/3 313/5/3 314/5/3
f 316/5/3 313/5/3 315/5/3
f 318/5/3 316/5/3 315/5/3
f 319/5/3 316/5/3 318/5/3
f 320/5/3 318/5/3 317/5/3
f 320/5/3 319/5/3 318/5/3
f 321/5/3 319/5/3 320/5/3
f 322/5/3 320/5/3 317/5/3
f 323/5/3 320/5/3 322/5/3
f 325/5/3 311/5/3 310/5/3
f 326/5/3 311/5/3 325/5/3
f 327/5/3 325/5/3 324/5/3
f 328/5/3 325/5/3 327/5/3
f 331/5/3 330/5/3 329/5/3
f 332/5/3 330/5/3 331/5/3
f 335/5/3 334/5/3 333/5/3
f 336/5/3 334/5/3 335/5/3
f 339/5/3 338/5/3 337/5/3
f 340/5/3 338/5/3 339/5/3
f 343/5/3 342/5/3 341/5/3
f 344/5/3 342/5/3 343/5/3
f 345/5/4 346/5/4 347/5/4
f 347/5/4 346/5/4 348/5/4
f 349/5/4 350/5/4 351/5/4
f 351/5/4 350/5/4 352/5/4
f 353/5/4 354/5/4 355/5/4
f 355/5/4 354/5/4 356/5/4
f 357/5/4 358/5/4 359/5/4
f 359/5/4 358/5/4 360/5/4
f 361/5/4 362/5/4 365/5/4
f 365/5/4 362/5/4 366/5/4
f 363/5/4 364/5/4 368/5/4
f 363/5/4 368/5/4 370/5/4
f 368/5/4 369/5/4 370/5/4
f 370/5/4 369/5/4 371/5/4
f 371/5/4 369/5/4 373/5/4
f 373/5/4 369/5/4 374/5/4
f 372/5/4 373/5/4 374/5/4
f 374/5/4 369/5/4 375/5/4
f 372/5/4 374/5/4 376/5/4
f 376/5/4 374/5/4 377/5/4
f 366/5/4 367/5/4 379/5/4
f 379/5/4 367/5/4 380/5/4
f 378/5/4 379/5/4 381/5/4
f 381/5/4 379/5/4 382/5/4
f 385/5/4 386/5/4 387/5/4
f 387/5/4 386/5/4 388/5/4
f 383/5/4 384/5/4 389/5/4
f 389/5/4 384/5/4 390/5/4
f 394/5/5 392/5/5 391/5/5
f 395/5/5 392/5/5 394/5/5
f 398/5/5 394/5/5 393/5/5
f 398/5/5 396/5/5 395/5/5
f 398/5/5 395/5/5 394/5/5
f 399/5/5 396/5/5 398/5/5
f 401/5/5 398/5/5 397/5/5
f 401/5/5 400/5/5 399/5/5
f 401/5/5 399/5/5 398/5/5
f 402/5/5 400/5/5 401/5/5
f 403/5/5 400/5/5 402/5/5
f 404/5/5 400/5/5 403/5/5
f 405/5/5 403/5/5 402/5/5
f 406/5/5 403/5/5 405/5/5
f 407/5/5 403/5/5 406/5/5
f 408/5/5 403/5/5 407/5/5
f 409/5/5 407/5/5 406/5/5
f 410/5/5 407/5/5 409/5/5
f 416/5/5 412/5/5 411/5/5
f 417/5/5 412/5/5 416/5/5
f 418/3/5 413/3/5 412/3/5
f 418/5/5 412/5/5 417/5/5
f 419/5/5 414/5/5 413/5/5
f 419/3/5 413/3/5 418/3/5
f 420/5/5 414/5/5 419/5/5
f 421/5/5 414/5/5 420/5/5
f 423/5/5 417/5/5 416/5/5
f 423/5/5 416/5/5 415/5/5
f 424/5/5 417/5/5 423/5/5
f 425/5/5 422/5/5 421/5/5
f 425/5/5 421/5/5 420/5/5
f 426/5/5 422/5/5 425/5/5
f 427/5/5 423/5/5 415/5/5
f 430/5/5 422/5/5 426/5/5
f 431/5/5 428/5/5 427/5/5
f 431/5/5 427/5/5 415/5/5
f 432/5/5 428/5/5 431/5/5
f 433/5/5 428/5/5 432/5/5
f 434/5/5 430/5/5 429/5/5
f 435/5/5 422/5/5 430/5/5
f 435/5/5 430/5/5 434/5/5
f 436/5/5 422/5/5 435/5/5
f 437/5/5 433/5/5 432/5/5
f 437/5/5 434/5/5 433/5/5
f 437/5/5 435/5/5 434/5/5
f 438/5/5 435/5/5 437/5/5
f 443/5/5 440/5/5 439/5/5
f 444/5/5 440/5/5 443/5/5
f 445/5/5 442/5/5 441/5/5
f 446/5/5 442/5/5 445/5/5
f 451/5/5 448/5/5 447/5/5
f 452/5/5 448/5/5 451/5/5
f 453/5/5 450/5/5 449/5/5
f 454/5/5 450/5/5 453/5/5
f 457/5/5 456/5/5 455/5/5
f 458/5/5 456/5/5 457/5/5
f 463/5/5 460/5/5 459/5/5
f 464/5/5 460/5/5 463/5/5
f 465/5/5 462/5/5 461/5/5
f 466/5/5 462/5/5 465/5/5
f 471/5/5 468/5/5 467/5/5
f 472/5/5 468/5/5 471/5/5
f 473/5/5 470/5/5 469/5/5
f 474/5/5 470/5/5 473/5/5
f 477/5/5 476/5/5 475/5/5
f 478/5/5 476/5/5 477/5/5
f 483/5/5 480/5/5 479/5/5
f 484/5/5 480/5/5 483/5/5
f 485/5/5 482/5/5 481/5/5
f 486/5/5 482/5/5 485/5/5
f 491/5/5 488/5/5 487/5/5
f 492/5/5 488/5/5 491/5/5
f 493/5/5 490/5/5 489/5/5
f 494/5/5 490/5/5 493/5/5
f 497/5/5 496/5/5 495/5/5
f 498/5/5 496/5/5 497/5/5
f 499/5/6 500/5/6 503/5/6
f 503/5/6 500/5/6 504/5/6
f 501/5/6 502/5/6 507/5/6
f 507/5/6 502/5/6 508/5/6
f 505/5/6 506/5/6 509/5/6
f 509/5/6 506/5/6 510/5/6
f 511/5/6 512/5/6 515/5/6
f 515/5/6 512/5/6 516/5/6
f 513/5/6 514/5/6 517/5/6
f 517/5/6 514/5/6 518/5/6
f 519/5/6 520/5/6 523/5/6
f 523/5/6 520/5/6 524/5/6
f 521/5/6 522/5/6 527/5/6
f 527/5/6 522/5/6 528/5/6
f 525/5/6 526/5/6 529/5/6
f 529/5/6 526/5/6 530/5/6
f 531/5/6 532/5/6 535/5/6
f 535/5/6 532/5/6 536/5/6
f 533/5/6 534/5/6 537/5/6
f 537/5/6 534/5/6 538/5/6
f 539/5/6 540/5/6 541/5/6
f 541/5/6 540/5/6 542/5/6
f 542/5/6 540/5/6 543/5/6
f 543/5/6 540/5/6 544/5/6
f 545/5/6 546/5/6 549/5/6
f 549/5/6 546/5/6 550/5/6
f 547/5/6 548/5/6 551/5/6
f 551/5/6 548/5/6 552/5/6
f 553/5/6 554/5/6 555/5/6
f 555/5/6 554/5/6 556/5/6
f 556/5/6 554/5/6 557/5/6
f 557/5/6 554/5/6 558/5/6
f 559/5/6 560/5/6 563/5/6
f 563/5/6 560/5/6 564/5/6
f 561/5/6 562/5/6 565/5/6
f 565/5/6 562/5/6 566/5/6
f 567/5/6 568/5/6 570/5/6
f 570/5/6 568/5/6 571/5/6
f 569/5/6 570/5/6 574/5/6
f 571/5/6 572/5/6 574/5/6
f 570/5/6 571/5/6 574/5/6
f 574/5/6 572/5/6 575/5/6
f 573/5/6 574/5/6 577/5/6
f 577/5/6 574/5/6 578/5/6
f 575/5/6 576/5/6 579/5/6
f 579/5/6 576/5/6 580/5/6
f 578/5/6 579/5/6 581/5/6
f 581/5/6 579/5/6 582/5/6
f 583/5/6 584/5/6 585/5/6
f 585/5/6 584/5/6 586/5/6
