# MagicaVoxel @ Ephtracy

# material
mtllib Dansk flag.mtl
usemtl palette

# normals
vn -1 0 0
vn 1 0 0
vn 0 0 1
vn 0 0 -1
vn 0 -1 0
vn 0 1 0

# texcoords
vt 0.849609 0.5
vt 0.962891 0.5

# verts
v -7.5 0 1.5
v -7.5 0 -1.5
v -7.5 37 1.5
v -7.5 37 -1.5
v -7.5 39 1.5
v -7.5 39 -1.5
v -6.5 0 2.5
v -6.5 0 1.5
v -6.5 0 -1.5
v -6.5 0 -2.5
v -6.5 37 2.5
v -6.5 37 1.5
v -6.5 37 -1.5
v -6.5 37 -2.5
v -6.5 39 2.5
v -6.5 39 1.5
v -6.5 39 -1.5
v -6.5 39 -2.5
v -6.5 40 1.5
v -6.5 40 -1.5
v -5.5 0 1.5
v -5.5 0 0.5
v -5.5 0 -0.5
v -5.5 0 -1.5
v -5.5 6 1.5
v -5.5 6 0.5
v -5.5 6 -0.5
v -5.5 6 -1.5
v -3.5 0 1.5
v -3.5 0 0.5
v -3.5 0 -0.5
v -3.5 0 -1.5
v -3.5 6 1.5
v -3.5 6 0.5
v -3.5 6 -0.5
v -3.5 6 -1.5
v -1.5 28 -0.5
v -1.5 28 -1.5
v -1.5 31 -0.5
v -1.5 31 -1.5
v -1.5 33 -0.5
v -1.5 33 -1.5
v -1.5 36 -0.5
v -1.5 36 -1.5
v 0.5 28 0.5
v 0.5 28 -0.5
v 0.5 31 -0.5
v 0.5 33 -0.5
v 0.5 36 0.5
v 0.5 36 -0.5
v 3.5 28 1.5
v 3.5 28 0.5
v 3.5 31 1.5
v 3.5 31 0.5
v 3.5 33 1.5
v 3.5 33 0.5
v 3.5 36 1.5
v 3.5 36 0.5
v 5.5 28 0.5
v 5.5 28 -0.5
v 5.5 31 0.5
v 5.5 31 -0.5
v 5.5 33 0.5
v 5.5 33 -0.5
v 5.5 36 0.5
v 5.5 36 -0.5
v -6.5 0 1.5
v -6.5 0 0.5
v -6.5 0 -0.5
v -6.5 0 -1.5
v -6.5 6 1.5
v -6.5 6 0.5
v -6.5 6 -0.5
v -6.5 6 -1.5
v -4.5 0 1.5
v -4.5 0 0.5
v -4.5 0 -0.5
v -4.5 0 -1.5
v -4.5 6 1.5
v -4.5 6 0.5
v -4.5 6 -0.5
v -4.5 6 -1.5
v -3.5 0 2.5
v -3.5 0 1.5
v -3.5 0 -1.5
v -3.5 0 -2.5
v -3.5 37 2.5
v -3.5 37 1.5
v -3.5 37 -1.5
v -3.5 37 -2.5
v -3.5 39 2.5
v -3.5 39 1.5
v -3.5 39 -1.5
v -3.5 39 -2.5
v -3.5 40 1.5
v -3.5 40 -1.5
v -2.5 0 1.5
v -2.5 0 -1.5
v -2.5 28 0.5
v -2.5 28 -0.5
v -2.5 31 0.5
v -2.5 31 -0.5
v -2.5 33 0.5
v -2.5 33 -0.5
v -2.5 36 0.5
v -2.5 36 -0.5
v -2.5 37 1.5
v -2.5 37 -1.5
v -2.5 39 1.5
v -2.5 39 -1.5
v -1.5 28 0.5
v -1.5 28 -0.5
v -1.5 31 0.5
v -1.5 31 -0.5
v -1.5 33 0.5
v -1.5 33 -0.5
v -1.5 36 0.5
v -1.5 36 -0.5
v 0.5 28 -0.5
v 0.5 28 -1.5
v 0.5 31 -0.5
v 0.5 31 -1.5
v 0.5 33 -0.5
v 0.5 33 -1.5
v 0.5 36 -0.5
v 0.5 36 -1.5
v 3.5 28 0.5
v 3.5 28 -0.5
v 3.5 31 0.5
v 3.5 31 -0.5
v 3.5 33 0.5
v 3.5 33 -0.5
v 3.5 36 0.5
v 3.5 36 -0.5
v 5.5 28 1.5
v 5.5 28 0.5
v 5.5 31 1.5
v 5.5 31 0.5
v 5.5 33 1.5
v 5.5 33 0.5
v 5.5 36 1.5
v 5.5 36 0.5
v 7.5 28 0.5
v 7.5 28 -0.5
v 7.5 31 0.5
v 7.5 31 -0.5
v 7.5 33 0.5
v 7.5 33 -0.5
v 7.5 36 0.5
v 7.5 36 -0.5
v -6.5 0 2.5
v -6.5 37 2.5
v -6.5 39 2.5
v -3.5 0 2.5
v -3.5 37 2.5
v -3.5 39 2.5
v -7.5 0 1.5
v -7.5 37 1.5
v -7.5 39 1.5
v -6.5 0 1.5
v -6.5 37 1.5
v -6.5 39 1.5
v -6.5 40 1.5
v -3.5 0 1.5
v -3.5 37 1.5
v -3.5 39 1.5
v -3.5 40 1.5
v -2.5 0 1.5
v -2.5 37 1.5
v -2.5 39 1.5
v 3.5 28 1.5
v 3.5 31 1.5
v 3.5 33 1.5
v 3.5 36 1.5
v 5.5 28 1.5
v 5.5 31 1.5
v 5.5 33 1.5
v 5.5 36 1.5
v -6.5 0 0.5
v -6.5 6 0.5
v -5.5 0 0.5
v -5.5 6 0.5
v -4.5 0 0.5
v -4.5 6 0.5
v -3.5 0 0.5
v -3.5 6 0.5
v -2.5 28 0.5
v -2.5 31 0.5
v -2.5 33 0.5
v -2.5 36 0.5
v -1.5 28 0.5
v -1.5 31 0.5
v -1.5 33 0.5
v -1.5 36 0.5
v 0.5 28 0.5
v 0.5 36 0.5
v 2.5 28 0.5
v 2.5 31 0.5
v 2.5 33 0.5
v 2.5 36 0.5
v 3.5 28 0.5
v 3.5 31 0.5
v 3.5 33 0.5
v 3.5 36 0.5
v 5.5 28 0.5
v 5.5 31 0.5
v 5.5 33 0.5
v 5.5 36 0.5
v 7.5 28 0.5
v 7.5 31 0.5
v 7.5 33 0.5
v 7.5 36 0.5
v -1.5 28 -0.5
v -1.5 31 -0.5
v -1.5 33 -0.5
v -1.5 36 -0.5
v 0.5 28 -0.5
v 0.5 31 -0.5
v 0.5 33 -0.5
v 0.5 36 -0.5
v -6.5 0 -1.5
v -6.5 6 -1.5
v -5.5 0 -1.5
v -5.5 6 -1.5
v -4.5 0 -1.5
v -4.5 6 -1.5
v -3.5 0 -1.5
v -3.5 6 -1.5
v -6.5 0 1.5
v -6.5 6 1.5
v -5.5 0 1.5
v -5.5 6 1.5
v -4.5 0 1.5
v -4.5 6 1.5
v -3.5 0 1.5
v -3.5 6 1.5
v 3.5 28 0.5
v 3.5 31 0.5
v 3.5 33 0.5
v 3.5 36 0.5
v 5.5 28 0.5
v 5.5 31 0.5
v 5.5 33 0.5
v 5.5 36 0.5
v -6.5 0 -0.5
v -6.5 6 -0.5
v -5.5 0 -0.5
v -5.5 6 -0.5
v -4.5 0 -0.5
v -4.5 6 -0.5
v -3.5 0 -0.5
v -3.5 6 -0.5
v -2.5 28 -0.5
v -2.5 31 -0.5
v -2.5 33 -0.5
v -2.5 36 -0.5
v -1.5 28 -0.5
v -1.5 31 -0.5
v -1.5 33 -0.5
v -1.5 36 -0.5
v 0.5 28 -0.5
v 0.5 31 -0.5
v 0.5 33 -0.5
v 0.5 36 -0.5
v 2.5 28 -0.5
v 2.5 31 -0.5
v 2.5 33 -0.5
v 2.5 36 -0.5
v 3.5 28 -0.5
v 3.5 31 -0.5
v 3.5 33 -0.5
v 3.5 36 -0.5
v 5.5 28 -0.5
v 5.5 31 -0.5
v 5.5 33 -0.5
v 5.5 36 -0.5
v 7.5 28 -0.5
v 7.5 31 -0.5
v 7.5 33 -0.5
v 7.5 36 -0.5
v -7.5 0 -1.5
v -7.5 37 -1.5
v -7.5 39 -1.5
v -6.5 0 -1.5
v -6.5 37 -1.5
v -6.5 39 -1.5
v -6.5 40 -1.5
v -3.5 0 -1.5
v -3.5 37 -1.5
v -3.5 39 -1.5
v -3.5 40 -1.5
v -2.5 0 -1.5
v -2.5 37 -1.5
v -2.5 39 -1.5
v -1.5 28 -1.5
v -1.5 31 -1.5
v -1.5 33 -1.5
v -1.5 36 -1.5
v 0.5 28 -1.5
v 0.5 31 -1.5
v 0.5 33 -1.5
v 0.5 36 -1.5
v -6.5 0 -2.5
v -6.5 37 -2.5
v -6.5 39 -2.5
v -3.5 0 -2.5
v -3.5 37 -2.5
v -3.5 39 -2.5
v -6.5 0 2.5
v -3.5 0 2.5
v -7.5 0 1.5
v -6.5 0 1.5
v -5.5 0 1.5
v -4.5 0 1.5
v -3.5 0 1.5
v -2.5 0 1.5
v -6.5 0 0.5
v -5.5 0 0.5
v -4.5 0 0.5
v -3.5 0 0.5
v -6.5 0 -0.5
v -5.5 0 -0.5
v -4.5 0 -0.5
v -3.5 0 -0.5
v -7.5 0 -1.5
v -6.5 0 -1.5
v -5.5 0 -1.5
v -4.5 0 -1.5
v -3.5 0 -1.5
v -2.5 0 -1.5
v -6.5 0 -2.5
v -3.5 0 -2.5
v -6.5 6 1.5
v -5.5 6 1.5
v -4.5 6 1.5
v -3.5 6 1.5
v -6.5 6 0.5
v -5.5 6 0.5
v -4.5 6 0.5
v -3.5 6 0.5
v -6.5 6 -0.5
v -5.5 6 -0.5
v -4.5 6 -0.5
v -3.5 6 -0.5
v -6.5 6 -1.5
v -5.5 6 -1.5
v -4.5 6 -1.5
v -3.5 6 -1.5
v 3.5 28 1.5
v 5.5 28 1.5
v -2.5 28 0.5
v -1.5 28 0.5
v 0.5 28 0.5
v 2.5 28 0.5
v 3.5 28 0.5
v 5.5 28 0.5
v 7.5 28 0.5
v -2.5 28 -0.5
v -1.5 28 -0.5
v 0.5 28 -0.5
v 2.5 28 -0.5
v 3.5 28 -0.5
v 5.5 28 -0.5
v 7.5 28 -0.5
v -1.5 28 -1.5
v 0.5 28 -1.5
v 3.5 36 1.5
v 5.5 36 1.5
v -2.5 36 0.5
v -1.5 36 0.5
v 0.5 36 0.5
v 2.5 36 0.5
v 3.5 36 0.5
v 5.5 36 0.5
v 7.5 36 0.5
v -2.5 36 -0.5
v -1.5 36 -0.5
v 0.5 36 -0.5
v 2.5 36 -0.5
v 3.5 36 -0.5
v 5.5 36 -0.5
v 7.5 36 -0.5
v -1.5 36 -1.5
v 0.5 36 -1.5
v -6.5 39 2.5
v -3.5 39 2.5
v -7.5 39 1.5
v -6.5 39 1.5
v -3.5 39 1.5
v -2.5 39 1.5
v -7.5 39 -1.5
v -6.5 39 -1.5
v -3.5 39 -1.5
v -2.5 39 -1.5
v -6.5 39 -2.5
v -3.5 39 -2.5
v -6.5 40 1.5
v -3.5 40 1.5
v -6.5 40 -1.5
v -3.5 40 -1.5

# faces
f 3/2/1 2/2/1 1/2/1
f 4/2/1 2/2/1 3/2/1
f 5/1/1 4/1/1 3/1/1
f 6/1/1 4/1/1 5/1/1
f 11/2/1 8/2/1 7/2/1
f 12/2/1 8/2/1 11/2/1
f 13/2/1 10/2/1 9/2/1
f 14/2/1 10/2/1 13/2/1
f 15/1/1 12/1/1 11/1/1
f 16/1/1 12/1/1 15/1/1
f 17/1/1 14/1/1 13/1/1
f 18/1/1 14/1/1 17/1/1
f 19/1/1 17/1/1 16/1/1
f 20/1/1 17/1/1 19/1/1
f 25/2/1 22/2/1 21/2/1
f 26/2/1 22/2/1 25/2/1
f 27/2/1 24/2/1 23/2/1
f 28/2/1 24/2/1 27/2/1
f 33/2/1 30/2/1 29/2/1
f 34/2/1 30/2/1 33/2/1
f 35/2/1 32/2/1 31/2/1
f 36/2/1 32/2/1 35/2/1
f 39/1/1 38/1/1 37/1/1
f 40/1/1 38/1/1 39/1/1
f 41/2/1 40/2/1 39/2/1
f 42/2/1 40/2/1 41/2/1
f 43/1/1 42/1/1 41/1/1
f 44/1/1 42/1/1 43/1/1
f 47/2/1 46/2/1 45/2/1
f 48/2/1 47/2/1 45/2/1
f 49/2/1 48/2/1 45/2/1
f 50/2/1 48/2/1 49/2/1
f 53/1/1 52/1/1 51/1/1
f 54/1/1 52/1/1 53/1/1
f 55/2/1 54/2/1 53/2/1
f 56/2/1 54/2/1 55/2/1
f 57/1/1 56/1/1 55/1/1
f 58/1/1 56/1/1 57/1/1
f 61/1/1 60/1/1 59/1/1
f 62/1/1 60/1/1 61/1/1
f 63/2/1 62/2/1 61/2/1
f 64/2/1 62/2/1 63/2/1
f 65/1/1 64/1/1 63/1/1
f 66/1/1 64/1/1 65/1/1
f 67/2/2 68/2/2 71/2/2
f 71/2/2 68/2/2 72/2/2
f 69/2/2 70/2/2 73/2/2
f 73/2/2 70/2/2 74/2/2
f 75/2/2 76/2/2 79/2/2
f 79/2/2 76/2/2 80/2/2
f 77/2/2 78/2/2 81/2/2
f 81/2/2 78/2/2 82/2/2
f 83/2/2 84/2/2 87/2/2
f 87/2/2 84/2/2 88/2/2
f 85/2/2 86/2/2 89/2/2
f 89/2/2 86/2/2 90/2/2
f 87/1/2 88/1/2 91/1/2
f 91/1/2 88/1/2 92/1/2
f 89/1/2 90/1/2 93/1/2
f 93/1/2 90/1/2 94/1/2
f 92/1/2 93/1/2 95/1/2
f 95/1/2 93/1/2 96/1/2
f 97/2/2 98/2/2 99/2/2
f 99/2/2 98/2/2 100/2/2
f 97/2/2 99/2/2 101/2/2
f 100/2/2 98/2/2 102/2/2
f 97/2/2 101/2/2 103/2/2
f 102/2/2 98/2/2 104/2/2
f 97/2/2 103/2/2 105/2/2
f 104/2/2 98/2/2 106/2/2
f 97/2/2 105/2/2 107/2/2
f 105/2/2 106/2/2 107/2/2
f 106/2/2 98/2/2 108/2/2
f 107/2/2 106/2/2 108/2/2
f 107/1/2 108/1/2 109/1/2
f 109/1/2 108/1/2 110/1/2
f 111/1/2 112/1/2 113/1/2
f 113/1/2 112/1/2 114/1/2
f 113/2/2 114/2/2 115/2/2
f 115/2/2 114/2/2 116/2/2
f 115/1/2 116/1/2 117/1/2
f 117/1/2 116/1/2 118/1/2
f 119/1/2 120/1/2 121/1/2
f 121/1/2 120/1/2 122/1/2
f 121/2/2 122/2/2 123/2/2
f 123/2/2 122/2/2 124/2/2
f 123/1/2 124/1/2 125/1/2
f 125/1/2 124/1/2 126/1/2
f 127/1/2 128/1/2 129/1/2
f 129/1/2 128/1/2 130/1/2
f 129/2/2 130/2/2 131/2/2
f 131/2/2 130/2/2 132/2/2
f 131/1/2 132/1/2 133/1/2
f 133/1/2 132/1/2 134/1/2
f 135/1/2 136/1/2 137/1/2
f 137/1/2 136/1/2 138/1/2
f 137/2/2 138/2/2 139/2/2
f 139/2/2 138/2/2 140/2/2
f 139/1/2 140/1/2 141/1/2
f 141/1/2 140/1/2 142/1/2
f 143/1/2 144/1/2 145/1/2
f 145/1/2 144/1/2 146/1/2
f 145/2/2 146/2/2 147/2/2
f 147/2/2 146/2/2 148/2/2
f 147/1/2 148/1/2 149/1/2
f 149/1/2 148/1/2 150/1/2
f 154/2/3 152/2/3 151/2/3
f 155/1/3 153/1/3 152/1/3
f 155/2/3 152/2/3 154/2/3
f 156/1/3 153/1/3 155/1/3
f 160/2/3 158/2/3 157/2/3
f 161/1/3 159/1/3 158/1/3
f 161/2/3 158/2/3 160/2/3
f 162/1/3 159/1/3 161/1/3
f 166/1/3 163/1/3 162/1/3
f 167/1/3 163/1/3 166/1/3
f 168/2/3 165/2/3 164/2/3
f 169/1/3 166/1/3 165/1/3
f 169/2/3 165/2/3 168/2/3
f 170/1/3 166/1/3 169/1/3
f 175/1/3 172/1/3 171/1/3
f 176/2/3 173/2/3 172/2/3
f 176/1/3 172/1/3 175/1/3
f 177/1/3 174/1/3 173/1/3
f 177/2/3 173/2/3 176/2/3
f 178/1/3 174/1/3 177/1/3
f 181/2/3 180/2/3 179/2/3
f 182/2/3 180/2/3 181/2/3
f 185/2/3 184/2/3 183/2/3
f 186/2/3 184/2/3 185/2/3
f 191/1/3 188/1/3 187/1/3
f 192/2/3 189/2/3 188/2/3
f 192/1/3 188/1/3 191/1/3
f 193/1/3 190/1/3 189/1/3
f 193/2/3 189/2/3 192/2/3
f 194/1/3 190/1/3 193/1/3
f 197/2/3 196/2/3 195/2/3
f 198/2/3 196/2/3 197/2/3
f 199/2/3 196/2/3 198/2/3
f 200/2/3 196/2/3 199/2/3
f 201/1/3 198/1/3 197/1/3
f 202/2/3 199/2/3 198/2/3
f 202/1/3 198/1/3 201/1/3
f 203/1/3 200/1/3 199/1/3
f 203/2/3 199/2/3 202/2/3
f 204/1/3 200/1/3 203/1/3
f 209/1/3 206/1/3 205/1/3
f 210/2/3 207/2/3 206/2/3
f 210/1/3 206/1/3 209/1/3
f 211/1/3 208/1/3 207/1/3
f 211/2/3 207/2/3 210/2/3
f 212/1/3 208/1/3 211/1/3
f 217/1/3 214/1/3 213/1/3
f 218/2/3 215/2/3 214/2/3
f 218/1/3 214/1/3 217/1/3
f 219/1/3 216/1/3 215/1/3
f 219/2/3 215/2/3 218/2/3
f 220/1/3 216/1/3 219/1/3
f 223/2/3 222/2/3 221/2/3
f 224/2/3 222/2/3 223/2/3
f 227/2/3 226/2/3 225/2/3
f 228/2/3 226/2/3 227/2/3
f 229/2/4 230/2/4 231/2/4
f 231/2/4 230/2/4 232/2/4
f 233/2/4 234/2/4 235/2/4
f 235/2/4 234/2/4 236/2/4
f 237/1/4 238/1/4 241/1/4
f 238/2/4 239/2/4 242/2/4
f 241/1/4 238/1/4 242/1/4
f 239/1/4 240/1/4 243/1/4
f 242/2/4 239/2/4 243/2/4
f 243/1/4 240/1/4 244/1/4
f 245/2/4 246/2/4 247/2/4
f 247/2/4 246/2/4 248/2/4
f 249/2/4 250/2/4 251/2/4
f 251/2/4 250/2/4 252/2/4
f 253/1/4 254/1/4 257/1/4
f 254/2/4 255/2/4 258/2/4
f 257/1/4 254/1/4 258/1/4
f 255/1/4 256/1/4 259/1/4
f 258/2/4 255/2/4 259/2/4
f 259/1/4 256/1/4 260/1/4
f 261/2/4 262/2/4 265/2/4
f 263/2/4 264/2/4 265/2/4
f 262/2/4 263/2/4 265/2/4
f 265/2/4 264/2/4 266/2/4
f 266/2/4 264/2/4 267/2/4
f 267/2/4 264/2/4 268/2/4
f 265/1/4 266/1/4 269/1/4
f 266/2/4 267/2/4 270/2/4
f 269/1/4 266/1/4 270/1/4
f 267/1/4 268/1/4 271/1/4
f 270/2/4 267/2/4 271/2/4
f 271/1/4 268/1/4 272/1/4
f 273/1/4 274/1/4 277/1/4
f 274/2/4 275/2/4 278/2/4
f 277/1/4 274/1/4 278/1/4
f 275/1/4 276/1/4 279/1/4
f 278/2/4 275/2/4 279/2/4
f 279/1/4 276/1/4 280/1/4
f 281/2/4 282/2/4 284/2/4
f 282/1/4 283/1/4 285/1/4
f 284/2/4 282/2/4 285/2/4
f 285/1/4 283/1/4 286/1/4
f 286/1/4 287/1/4 290/1/4
f 290/1/4 287/1/4 291/1/4
f 288/2/4 289/2/4 292/2/4
f 289/1/4 290/1/4 293/1/4
f 292/2/4 289/2/4 293/2/4
f 293/1/4 290/1/4 294/1/4
f 295/1/4 296/1/4 299/1/4
f 296/2/4 297/2/4 300/2/4
f 299/1/4 296/1/4 300/1/4
f 297/1/4 298/1/4 301/1/4
f 300/2/4 297/2/4 301/2/4
f 301/1/4 298/1/4 302/1/4
f 303/2/4 304/2/4 306/2/4
f 304/1/4 305/1/4 307/1/4
f 306/2/4 304/2/4 307/2/4
f 307/1/4 305/1/4 308/1/4
f 312/2/5 310/2/5 309/2/5
f 313/2/5 310/2/5 312/2/5
f 314/2/5 310/2/5 313/2/5
f 315/2/5 310/2/5 314/2/5
f 317/2/5 312/2/5 311/2/5
f 318/2/5 314/2/5 313/2/5
f 319/2/5 314/2/5 318/2/5
f 320/2/5 316/2/5 315/2/5
f 321/2/5 319/2/5 318/2/5
f 321/2/5 320/2/5 319/2/5
f 321/2/5 317/2/5 311/2/5
f 321/2/5 318/2/5 317/2/5
f 322/2/5 320/2/5 321/2/5
f 323/2/5 320/2/5 322/2/5
f 324/2/5 316/2/5 320/2/5
f 324/2/5 320/2/5 323/2/5
f 325/2/5 321/2/5 311/2/5
f 326/2/5 321/2/5 325/2/5
f 327/2/5 323/2/5 322/2/5
f 328/2/5 323/2/5 327/2/5
f 329/2/5 316/2/5 324/2/5
f 330/2/5 316/2/5 329/2/5
f 331/2/5 328/2/5 327/2/5
f 331/2/5 329/2/5 328/2/5
f 331/2/5 327/2/5 326/2/5
f 332/2/5 329/2/5 331/2/5
f 337/2/5 334/2/5 333/2/5
f 338/2/5 334/2/5 337/2/5
f 339/2/5 336/2/5 335/2/5
f 340/2/5 336/2/5 339/2/5
f 345/2/5 342/2/5 341/2/5
f 346/2/5 342/2/5 345/2/5
f 347/2/5 344/2/5 343/2/5
f 348/2/5 344/2/5 347/2/5
f 355/1/5 350/1/5 349/1/5
f 356/1/5 350/1/5 355/1/5
f 358/1/5 352/1/5 351/1/5
f 359/1/5 352/1/5 358/1/5
f 360/2/5 354/2/5 353/2/5
f 361/1/5 355/1/5 354/1/5
f 361/2/5 354/2/5 360/2/5
f 362/1/5 355/1/5 361/1/5
f 363/1/5 357/1/5 356/1/5
f 364/1/5 357/1/5 363/1/5
f 365/1/5 360/1/5 359/1/5
f 366/1/5 360/1/5 365/1/5
f 367/1/6 368/1/6 373/1/6
f 373/1/6 368/1/6 374/1/6
f 369/1/6 370/1/6 376/1/6
f 376/1/6 370/1/6 377/1/6
f 371/2/6 372/2/6 378/2/6
f 372/1/6 373/1/6 379/1/6
f 378/2/6 372/2/6 379/2/6
f 379/1/6 373/1/6 380/1/6
f 374/1/6 375/1/6 381/1/6
f 381/1/6 375/1/6 382/1/6
f 377/1/6 378/1/6 383/1/6
f 383/1/6 378/1/6 384/1/6
f 385/1/6 386/1/6 388/1/6
f 388/1/6 386/1/6 389/1/6
f 387/1/6 388/1/6 391/1/6
f 391/1/6 388/1/6 392/1/6
f 389/1/6 390/1/6 393/1/6
f 393/1/6 390/1/6 394/1/6
f 392/1/6 393/1/6 395/1/6
f 395/1/6 393/1/6 396/1/6
f 397/1/6 398/1/6 399/1/6
f 399/1/6 398/1/6 400/1/6
