# MagicaVoxel @ Ephtracy

# material
mtllib stop.mtl
usemtl palette

# normals
vn -1 0 0
vn 1 0 0
vn 0 0 1
vn 0 0 -1
vn 0 -1 0
vn 0 1 0

# texcoords
vt 0.845703 0.5
vt 0.962891 0.5
vt 0.974609 0.5

# verts
v -5.5 26 3
v -5.5 26 2
v -5.5 29 3
v -5.5 29 2
v -4.5 24 3
v -4.5 24 2
v -4.5 26 3
v -4.5 26 2
v -4.5 29 3
v -4.5 29 2
v -4.5 31 3
v -4.5 31 2
v -3.5 23 3
v -3.5 23 2
v -3.5 24 3
v -3.5 24 2
v -3.5 31 3
v -3.5 31 2
v -3.5 32 3
v -3.5 32 2
v -2.5 0 1
v -2.5 0 -2
v -2.5 24 -1
v -2.5 24 -2
v -2.5 28 -0
v -2.5 28 -1
v -2.5 29 1
v -2.5 29 -0
v -1.5 0 2
v -1.5 0 1
v -1.5 22 3
v -1.5 22 2
v -1.5 23 3
v -1.5 23 2
v -1.5 24 2
v -1.5 24 -1
v -1.5 24 -2
v -1.5 27 -1
v -1.5 27 -2
v -1.5 29 1
v -1.5 30 2
v -1.5 30 1
v -1.5 32 3
v -1.5 32 2
v -1.5 33 3
v -1.5 33 2
v -0.5 0 -2
v -0.5 0 -3
v -0.5 24 -2
v -0.5 24 -3
v -0.5 27 -1
v -0.5 27 -2
v -0.5 28 -0
v -0.5 28 -1
v -0.5 28 -2
v -0.5 29 1
v -0.5 29 -0
v -0.5 29 -1
v -0.5 30 1
v -0.5 30 -0
v 0.5 0 -2
v 0.5 0 -3
v 0.5 24 -2
v 0.5 24 -3
v 0.5 27 -1
v 0.5 27 -2
v 0.5 28 -0
v 0.5 28 -1
v 0.5 28 -2
v 0.5 29 1
v 0.5 29 -0
v 0.5 29 -1
v 0.5 30 1
v 0.5 30 -0
v 1.5 0 2
v 1.5 0 1
v 1.5 22 3
v 1.5 22 2
v 1.5 23 3
v 1.5 23 2
v 1.5 24 2
v 1.5 24 -1
v 1.5 24 -2
v 1.5 27 -1
v 1.5 27 -2
v 1.5 29 1
v 1.5 30 2
v 1.5 30 1
v 1.5 32 3
v 1.5 32 2
v 1.5 33 3
v 1.5 33 2
v 2.5 0 1
v 2.5 0 -2
v 2.5 24 -1
v 2.5 24 -2
v 2.5 28 -0
v 2.5 28 -1
v 2.5 29 1
v 2.5 29 -0
v 3.5 23 3
v 3.5 23 2
v 3.5 24 3
v 3.5 24 2
v 3.5 31 3
v 3.5 31 2
v 3.5 32 3
v 3.5 32 2
v 4.5 24 3
v 4.5 24 2
v 4.5 26 3
v 4.5 26 2
v 4.5 29 3
v 4.5 29 2
v 4.5 31 3
v 4.5 31 2
v 5.5 26 3
v 5.5 26 2
v 5.5 29 3
v 5.5 29 2
v -5.5 26 3
v -5.5 29 3
v -4.5 24 3
v -4.5 26 3
v -4.5 27 3
v -4.5 28 3
v -4.5 29 3
v -4.5 31 3
v -3.5 23 3
v -3.5 24 3
v -3.5 25 3
v -3.5 27 3
v -3.5 28 3
v -3.5 30 3
v -3.5 31 3
v -3.5 32 3
v -2.5 24 3
v -2.5 25 3
v -2.5 30 3
v -2.5 31 3
v -1.5 22 3
v -1.5 23 3
v -1.5 25 3
v -1.5 26 3
v -1.5 27 3
v -1.5 30 3
v -1.5 32 3
v -1.5 33 3
v -0.5 23 3
v -0.5 24 3
v -0.5 28 3
v -0.5 29 3
v -0.5 31 3
v -0.5 32 3
v 0.5 23 3
v 0.5 24 3
v 0.5 26 3
v 0.5 27 3
v 0.5 31 3
v 0.5 32 3
v 1.5 22 3
v 1.5 23 3
v 1.5 25 3
v 1.5 28 3
v 1.5 29 3
v 1.5 30 3
v 1.5 32 3
v 1.5 33 3
v 2.5 24 3
v 2.5 25 3
v 2.5 30 3
v 2.5 31 3
v 3.5 23 3
v 3.5 24 3
v 3.5 25 3
v 3.5 27 3
v 3.5 28 3
v 3.5 30 3
v 3.5 31 3
v 3.5 32 3
v 4.5 24 3
v 4.5 26 3
v 4.5 27 3
v 4.5 28 3
v 4.5 29 3
v 4.5 31 3
v 5.5 26 3
v 5.5 29 3
v -1.5 0 2
v -1.5 22 2
v 1.5 0 2
v 1.5 22 2
v -2.5 0 1
v -2.5 29 1
v -1.5 0 1
v -1.5 29 1
v 1.5 0 1
v 1.5 29 1
v 2.5 0 1
v 2.5 29 1
v -5.5 26 2
v -5.5 29 2
v -4.5 24 2
v -4.5 26 2
v -4.5 27 2
v -4.5 28 2
v -4.5 29 2
v -4.5 31 2
v -3.5 23 2
v -3.5 24 2
v -3.5 25 2
v -3.5 27 2
v -3.5 28 2
v -3.5 30 2
v -3.5 31 2
v -3.5 32 2
v -2.5 24 2
v -2.5 25 2
v -2.5 30 2
v -2.5 31 2
v -1.5 23 2
v -1.5 24 2
v -1.5 30 2
v -1.5 32 2
v -1.5 33 2
v -0.5 31 2
v -0.5 32 2
v 0.5 31 2
v 0.5 32 2
v 1.5 23 2
v 1.5 24 2
v 1.5 30 2
v 1.5 32 2
v 1.5 33 2
v 2.5 24 2
v 2.5 25 2
v 2.5 30 2
v 2.5 31 2
v 3.5 23 2
v 3.5 24 2
v 3.5 25 2
v 3.5 27 2
v 3.5 28 2
v 3.5 30 2
v 3.5 31 2
v 3.5 32 2
v 4.5 24 2
v 4.5 26 2
v 4.5 27 2
v 4.5 28 2
v 4.5 29 2
v 4.5 31 2
v 5.5 26 2
v 5.5 29 2
v -1.5 29 1
v -1.5 30 1
v -0.5 29 1
v -0.5 30 1
v 0.5 29 1
v 0.5 30 1
v 1.5 29 1
v 1.5 30 1
v -2.5 28 -0
v -2.5 29 -0
v -0.5 28 -0
v -0.5 29 -0
v -0.5 30 -0
v 0.5 28 -0
v 0.5 29 -0
v 0.5 30 -0
v 2.5 28 -0
v 2.5 29 -0
v -2.5 24 -1
v -2.5 28 -1
v -1.5 24 -1
v -1.5 27 -1
v -0.5 27 -1
v -0.5 28 -1
v -0.5 29 -1
v 0.5 27 -1
v 0.5 28 -1
v 0.5 29 -1
v 1.5 24 -1
v 1.5 27 -1
v 2.5 24 -1
v 2.5 28 -1
v -2.5 0 -2
v -2.5 24 -2
v -1.5 24 -2
v -1.5 27 -2
v -0.5 0 -2
v -0.5 24 -2
v -0.5 27 -2
v -0.5 28 -2
v 0.5 0 -2
v 0.5 24 -2
v 0.5 27 -2
v 0.5 28 -2
v 1.5 24 -2
v 1.5 27 -2
v 2.5 0 -2
v 2.5 24 -2
v -0.5 0 -3
v -0.5 24 -3
v 0.5 0 -3
v 0.5 24 -3
v -1.5 0 2
v 1.5 0 2
v -2.5 0 1
v -1.5 0 1
v 1.5 0 1
v 2.5 0 1
v -2.5 0 -2
v -0.5 0 -2
v 0.5 0 -2
v 2.5 0 -2
v -0.5 0 -3
v 0.5 0 -3
v -1.5 22 3
v 1.5 22 3
v -1.5 22 2
v 1.5 22 2
v -3.5 23 3
v -1.5 23 3
v 1.5 23 3
v 3.5 23 3
v -3.5 23 2
v -1.5 23 2
v 1.5 23 2
v 3.5 23 2
v -4.5 24 3
v -3.5 24 3
v 3.5 24 3
v 4.5 24 3
v -4.5 24 2
v -3.5 24 2
v 3.5 24 2
v 4.5 24 2
v -5.5 26 3
v -4.5 26 3
v 4.5 26 3
v 5.5 26 3
v -5.5 26 2
v -4.5 26 2
v 4.5 26 2
v 5.5 26 2
v -2.5 24 -1
v -1.5 24 -1
v 1.5 24 -1
v 2.5 24 -1
v -2.5 24 -2
v -1.5 24 -2
v -0.5 24 -2
v 0.5 24 -2
v 1.5 24 -2
v 2.5 24 -2
v -0.5 24 -3
v 0.5 24 -3
v -1.5 27 -1
v -0.5 27 -1
v 0.5 27 -1
v 1.5 27 -1
v -1.5 27 -2
v -0.5 27 -2
v 0.5 27 -2
v 1.5 27 -2
v -2.5 28 -0
v -0.5 28 -0
v 0.5 28 -0
v 2.5 28 -0
v -2.5 28 -1
v -0.5 28 -1
v 0.5 28 -1
v 2.5 28 -1
v -0.5 28 -2
v 0.5 28 -2
v -5.5 29 3
v -4.5 29 3
v 4.5 29 3
v 5.5 29 3
v -5.5 29 2
v -4.5 29 2
v 4.5 29 2
v 5.5 29 2
v -2.5 29 1
v -1.5 29 1
v -0.5 29 1
v 0.5 29 1
v 1.5 29 1
v 2.5 29 1
v -2.5 29 -0
v -0.5 29 -0
v 0.5 29 -0
v 2.5 29 -0
v -0.5 29 -1
v 0.5 29 -1
v -1.5 30 2
v 1.5 30 2
v -1.5 30 1
v -0.5 30 1
v 0.5 30 1
v 1.5 30 1
v -0.5 30 -0
v 0.5 30 -0
v -4.5 31 3
v -3.5 31 3
v 3.5 31 3
v 4.5 31 3
v -4.5 31 2
v -3.5 31 2
v 3.5 31 2
v 4.5 31 2
v -3.5 32 3
v -1.5 32 3
v 1.5 32 3
v 3.5 32 3
v -3.5 32 2
v -1.5 32 2
v 1.5 32 2
v 3.5 32 2
v -1.5 33 3
v 1.5 33 3
v -1.5 33 2
v 1.5 33 2

# faces
f 3/2/1 2/2/1 1/2/1
f 4/2/1 2/2/1 3/2/1
f 7/2/1 6/2/1 5/2/1
f 8/2/1 6/2/1 7/2/1
f 11/2/1 10/2/1 9/2/1
f 12/2/1 10/2/1 11/2/1
f 15/2/1 14/2/1 13/2/1
f 16/2/1 14/2/1 15/2/1
f 19/2/1 18/2/1 17/2/1
f 20/2/1 18/2/1 19/2/1
f 23/3/1 22/3/1 21/3/1
f 24/3/1 22/3/1 23/3/1
f 25/3/1 23/3/1 21/3/1
f 26/3/1 23/3/1 25/3/1
f 27/3/1 25/3/1 21/3/1
f 28/3/1 25/3/1 27/3/1
f 32/3/1 30/3/1 29/3/1
f 33/2/1 32/2/1 31/2/1
f 34/3/1 30/3/1 32/3/1
f 34/2/1 32/2/1 33/2/1
f 35/3/1 30/3/1 34/3/1
f 38/3/1 37/3/1 36/3/1
f 39/3/1 37/3/1 38/3/1
f 40/3/1 30/3/1 35/3/1
f 41/3/1 40/3/1 35/3/1
f 42/3/1 40/3/1 41/3/1
f 45/2/1 44/2/1 43/2/1
f 46/2/1 44/2/1 45/2/1
f 49/3/1 48/3/1 47/3/1
f 50/3/1 48/3/1 49/3/1
f 54/3/1 52/3/1 51/3/1
f 55/3/1 52/3/1 54/3/1
f 57/3/1 54/3/1 53/3/1
f 58/3/1 54/3/1 57/3/1
f 59/3/1 57/3/1 56/3/1
f 60/3/1 57/3/1 59/3/1
f 61/3/2 62/3/2 63/3/2
f 63/3/2 62/3/2 64/3/2
f 65/3/2 66/3/2 68/3/2
f 68/3/2 66/3/2 69/3/2
f 67/3/2 68/3/2 71/3/2
f 71/3/2 68/3/2 72/3/2
f 70/3/2 71/3/2 73/3/2
f 73/3/2 71/3/2 74/3/2
f 75/3/2 76/3/2 78/3/2
f 77/2/2 78/2/2 79/2/2
f 78/3/2 76/3/2 80/3/2
f 79/2/2 78/2/2 80/2/2
f 80/3/2 76/3/2 81/3/2
f 82/3/2 83/3/2 84/3/2
f 84/3/2 83/3/2 85/3/2
f 81/3/2 76/3/2 86/3/2
f 81/3/2 86/3/2 87/3/2
f 87/3/2 86/3/2 88/3/2
f 89/2/2 90/2/2 91/2/2
f 91/2/2 90/2/2 92/2/2
f 93/3/2 94/3/2 95/3/2
f 95/3/2 94/3/2 96/3/2
f 93/3/2 95/3/2 97/3/2
f 97/3/2 95/3/2 98/3/2
f 93/3/2 97/3/2 99/3/2
f 99/3/2 97/3/2 100/3/2
f 101/2/2 102/2/2 103/2/2
f 103/2/2 102/2/2 104/2/2
f 105/2/2 106/2/2 107/2/2
f 107/2/2 106/2/2 108/2/2
f 109/2/2 110/2/2 111/2/2
f 111/2/2 110/2/2 112/2/2
f 113/2/2 114/2/2 115/2/2
f 115/2/2 114/2/2 116/2/2
f 117/2/2 118/2/2 119/2/2
f 119/2/2 118/2/2 120/2/2
f 124/2/3 122/2/3 121/2/3
f 125/2/3 122/2/3 124/2/3
f 126/2/3 122/2/3 125/2/3
f 127/2/3 122/2/3 126/2/3
f 130/2/3 124/2/3 123/2/3
f 130/2/3 125/2/3 124/2/3
f 131/2/3 125/2/3 130/2/3
f 132/1/3 126/1/3 125/1/3
f 132/2/3 125/2/3 131/2/3
f 133/2/3 128/2/3 127/2/3
f 133/1/3 126/1/3 132/1/3
f 133/2/3 127/2/3 126/2/3
f 134/2/3 128/2/3 133/2/3
f 135/2/3 128/2/3 134/2/3
f 137/2/3 130/2/3 129/2/3
f 137/2/3 131/2/3 130/2/3
f 138/1/3 132/1/3 131/1/3
f 138/2/3 131/2/3 137/2/3
f 138/1/3 133/1/3 132/1/3
f 138/1/3 134/1/3 133/1/3
f 139/2/3 136/2/3 135/2/3
f 139/1/3 134/1/3 138/1/3
f 139/2/3 135/2/3 134/2/3
f 140/2/3 136/2/3 139/2/3
f 142/2/3 137/2/3 129/2/3
f 143/1/3 138/1/3 137/1/3
f 143/1/3 139/1/3 138/1/3
f 143/1/3 140/1/3 139/1/3
f 144/1/3 140/1/3 143/1/3
f 145/1/3 140/1/3 144/1/3
f 146/1/3 140/1/3 145/1/3
f 147/2/3 136/2/3 140/2/3
f 149/2/3 142/2/3 141/2/3
f 149/2/3 137/2/3 142/2/3
f 150/1/3 143/1/3 137/1/3
f 150/2/3 137/2/3 149/2/3
f 151/2/3 146/2/3 145/2/3
f 152/2/3 146/2/3 151/2/3
f 153/1/3 140/1/3 146/1/3
f 153/2/3 148/2/3 147/2/3
f 153/2/3 147/2/3 140/2/3
f 154/2/3 148/2/3 153/2/3
f 155/2/3 149/2/3 141/2/3
f 155/1/3 150/1/3 149/1/3
f 156/1/3 143/1/3 150/1/3
f 156/1/3 150/1/3 155/1/3
f 157/2/3 144/2/3 143/2/3
f 157/1/3 145/1/3 144/1/3
f 158/2/3 151/2/3 145/2/3
f 158/1/3 145/1/3 157/1/3
f 159/1/3 154/1/3 153/1/3
f 159/1/3 153/1/3 146/1/3
f 160/2/3 148/2/3 154/2/3
f 160/1/3 154/1/3 159/1/3
f 161/2/3 156/2/3 155/2/3
f 161/2/3 155/2/3 141/2/3
f 162/2/3 156/2/3 161/2/3
f 163/2/3 157/2/3 143/2/3
f 163/1/3 143/1/3 156/1/3
f 163/2/3 158/2/3 157/2/3
f 164/1/3 152/1/3 151/1/3
f 164/2/3 158/2/3 163/2/3
f 164/2/3 151/2/3 158/2/3
f 165/2/3 146/2/3 152/2/3
f 165/1/3 152/1/3 164/1/3
f 166/1/3 159/1/3 146/1/3
f 166/2/3 146/2/3 165/2/3
f 167/2/3 148/2/3 160/2/3
f 167/2/3 160/2/3 159/2/3
f 168/2/3 148/2/3 167/2/3
f 169/1/3 164/1/3 163/1/3
f 169/1/3 163/1/3 156/1/3
f 169/2/3 156/2/3 162/2/3
f 169/1/3 165/1/3 164/1/3
f 169/1/3 166/1/3 165/1/3
f 170/1/3 166/1/3 169/1/3
f 171/1/3 159/1/3 166/1/3
f 171/1/3 166/1/3 170/1/3
f 172/2/3 167/2/3 159/2/3
f 172/1/3 159/1/3 171/1/3
f 173/2/3 170/2/3 169/2/3
f 173/2/3 169/2/3 162/2/3
f 174/2/3 170/2/3 173/2/3
f 175/1/3 171/1/3 170/1/3
f 175/2/3 170/2/3 174/2/3
f 176/1/3 171/1/3 175/1/3
f 177/1/3 171/1/3 176/1/3
f 178/2/3 172/2/3 171/2/3
f 178/1/3 171/1/3 177/1/3
f 179/2/3 167/2/3 172/2/3
f 179/2/3 172/2/3 178/2/3
f 180/2/3 167/2/3 179/2/3
f 181/2/3 175/2/3 174/2/3
f 181/2/3 176/2/3 175/2/3
f 182/2/3 176/2/3 181/2/3
f 183/1/3 177/1/3 176/1/3
f 183/2/3 176/2/3 182/2/3
f 184/2/3 178/2/3 177/2/3
f 184/1/3 177/1/3 183/1/3
f 184/2/3 179/2/3 178/2/3
f 185/2/3 179/2/3 184/2/3
f 186/2/3 179/2/3 185/2/3
f 187/2/3 183/2/3 182/2/3
f 187/2/3 185/2/3 184/2/3
f 187/2/3 184/2/3 183/2/3
f 188/2/3 185/2/3 187/2/3
f 191/3/3 190/3/3 189/3/3
f 192/3/3 190/3/3 191/3/3
f 195/3/3 194/3/3 193/3/3
f 196/3/3 194/3/3 195/3/3
f 199/3/3 198/3/3 197/3/3
f 200/3/3 198/3/3 199/3/3
f 201/2/4 202/2/4 204/2/4
f 204/2/4 202/2/4 205/2/4
f 205/2/4 202/2/4 206/2/4
f 206/2/4 202/2/4 207/2/4
f 203/2/4 204/2/4 210/2/4
f 204/2/4 205/2/4 210/2/4
f 210/2/4 205/2/4 211/2/4
f 205/1/4 206/1/4 212/1/4
f 211/2/4 205/2/4 212/2/4
f 207/2/4 208/2/4 213/2/4
f 212/1/4 206/1/4 213/1/4
f 206/2/4 207/2/4 213/2/4
f 213/2/4 208/2/4 214/2/4
f 214/2/4 208/2/4 215/2/4
f 209/2/4 210/2/4 217/2/4
f 210/2/4 211/2/4 217/2/4
f 211/1/4 212/1/4 218/1/4
f 217/2/4 211/2/4 218/2/4
f 212/1/4 213/1/4 218/1/4
f 213/1/4 214/1/4 218/1/4
f 215/2/4 216/2/4 219/2/4
f 218/1/4 214/1/4 219/1/4
f 214/2/4 215/2/4 219/2/4
f 219/2/4 216/2/4 220/2/4
f 209/2/4 217/2/4 221/2/4
f 217/1/4 218/1/4 222/1/4
f 221/2/4 217/2/4 222/2/4
f 218/1/4 219/1/4 222/1/4
f 219/1/4 220/1/4 222/1/4
f 222/1/4 220/1/4 223/1/4
f 220/2/4 216/2/4 224/2/4
f 223/1/4 220/1/4 226/1/4
f 224/2/4 225/2/4 226/2/4
f 220/2/4 224/2/4 226/2/4
f 226/2/4 225/2/4 227/2/4
f 223/1/4 226/1/4 228/1/4
f 226/1/4 227/1/4 228/1/4
f 227/2/4 225/2/4 229/2/4
f 228/1/4 227/1/4 229/1/4
f 223/1/4 228/1/4 232/1/4
f 228/2/4 229/2/4 233/2/4
f 229/2/4 225/2/4 233/2/4
f 233/2/4 225/2/4 234/2/4
f 230/2/4 231/2/4 235/2/4
f 231/1/4 232/1/4 235/1/4
f 235/1/4 232/1/4 236/1/4
f 232/1/4 228/1/4 237/1/4
f 236/1/4 232/1/4 237/1/4
f 228/2/4 233/2/4 238/2/4
f 237/1/4 228/1/4 238/1/4
f 235/2/4 236/2/4 239/2/4
f 230/2/4 235/2/4 239/2/4
f 239/2/4 236/2/4 240/2/4
f 236/1/4 237/1/4 241/1/4
f 240/2/4 236/2/4 241/2/4
f 241/1/4 237/1/4 242/1/4
f 242/1/4 237/1/4 243/1/4
f 237/2/4 238/2/4 244/2/4
f 243/1/4 237/1/4 244/1/4
f 238/2/4 233/2/4 245/2/4
f 244/2/4 238/2/4 245/2/4
f 245/2/4 233/2/4 246/2/4
f 240/2/4 241/2/4 247/2/4
f 241/2/4 242/2/4 247/2/4
f 247/2/4 242/2/4 248/2/4
f 242/1/4 243/1/4 249/1/4
f 248/2/4 242/2/4 249/2/4
f 243/2/4 244/2/4 250/2/4
f 249/1/4 243/1/4 250/1/4
f 244/2/4 245/2/4 250/2/4
f 250/2/4 245/2/4 251/2/4
f 251/2/4 245/2/4 252/2/4
f 248/2/4 249/2/4 253/2/4
f 250/2/4 251/2/4 253/2/4
f 249/2/4 250/2/4 253/2/4
f 253/2/4 251/2/4 254/2/4
f 255/3/4 256/3/4 257/3/4
f 257/3/4 256/3/4 258/3/4
f 259/3/4 260/3/4 261/3/4
f 261/3/4 260/3/4 262/3/4
f 263/3/4 264/3/4 265/3/4
f 265/3/4 264/3/4 266/3/4
f 266/3/4 267/3/4 269/3/4
f 269/3/4 267/3/4 270/3/4
f 268/3/4 269/3/4 271/3/4
f 271/3/4 269/3/4 272/3/4
f 273/3/4 274/3/4 275/3/4
f 275/3/4 274/3/4 276/3/4
f 276/3/4 274/3/4 277/3/4
f 277/3/4 274/3/4 278/3/4
f 278/3/4 279/3/4 281/3/4
f 281/3/4 279/3/4 282/3/4
f 280/3/4 281/3/4 284/3/4
f 283/3/4 284/3/4 285/3/4
f 284/3/4 281/3/4 286/3/4
f 285/3/4 284/3/4 286/3/4
f 287/3/4 288/3/4 289/3/4
f 287/3/4 289/3/4 291/3/4
f 289/3/4 290/3/4 291/3/4
f 291/3/4 290/3/4 292/3/4
f 292/3/4 290/3/4 293/3/4
f 293/3/4 294/3/4 296/3/4
f 292/3/4 293/3/4 296/3/4
f 296/3/4 294/3/4 297/3/4
f 297/3/4 294/3/4 298/3/4
f 295/3/4 296/3/4 299/3/4
f 296/3/4 297/3/4 299/3/4
f 299/3/4 297/3/4 300/3/4
f 295/3/4 299/3/4 301/3/4
f 301/3/4 299/3/4 302/3/4
f 303/3/4 304/3/4 305/3/4
f 305/3/4 304/3/4 306/3/4
f 310/3/5 308/3/5 307/3/5
f 311/3/5 308/3/5 310/3/5
f 313/3/5 310/3/5 309/3/5
f 313/3/5 312/3/5 311/3/5
f 313/3/5 311/3/5 310/3/5
f 314/3/5 312/3/5 313/3/5
f 315/3/5 312/3/5 314/3/5
f 316/3/5 312/3/5 315/3/5
f 317/3/5 315/3/5 314/3/5
f 318/3/5 315/3/5 317/3/5
f 321/2/5 320/2/5 319/2/5
f 322/2/5 320/2/5 321/2/5
f 327/2/5 324/2/5 323/2/5
f 328/2/5 324/2/5 327/2/5
f 329/2/5 326/2/5 325/2/5
f 330/2/5 326/2/5 329/2/5
f 335/2/5 332/2/5 331/2/5
f 336/2/5 332/2/5 335/2/5
f 337/2/5 334/2/5 333/2/5
f 338/2/5 334/2/5 337/2/5
f 343/2/5 340/2/5 339/2/5
f 344/2/5 340/2/5 343/2/5
f 345/2/5 342/2/5 341/2/5
f 346/2/5 342/2/5 345/2/5
f 347/3/6 348/3/6 351/3/6
f 351/3/6 348/3/6 352/3/6
f 349/3/6 350/3/6 355/3/6
f 355/3/6 350/3/6 356/3/6
f 353/3/6 354/3/6 357/3/6
f 357/3/6 354/3/6 358/3/6
f 359/3/6 360/3/6 363/3/6
f 363/3/6 360/3/6 364/3/6
f 361/3/6 362/3/6 365/3/6
f 365/3/6 362/3/6 366/3/6
f 367/3/6 368/3/6 371/3/6
f 371/3/6 368/3/6 372/3/6
f 369/3/6 370/3/6 373/3/6
f 373/3/6 370/3/6 374/3/6
f 372/3/6 373/3/6 375/3/6
f 375/3/6 373/3/6 376/3/6
f 377/2/6 378/2/6 381/2/6
f 381/2/6 378/2/6 382/2/6
f 379/2/6 380/2/6 383/2/6
f 383/2/6 380/2/6 384/2/6
f 385/3/6 386/3/6 391/3/6
f 386/3/6 387/3/6 391/3/6
f 391/3/6 387/3/6 392/3/6
f 389/3/6 390/3/6 393/3/6
f 388/3/6 389/3/6 393/3/6
f 393/3/6 390/3/6 394/3/6
f 392/3/6 393/3/6 395/3/6
f 395/3/6 393/3/6 396/3/6
f 397/3/6 398/3/6 399/3/6
f 399/3/6 398/3/6 400/3/6
f 400/3/6 398/3/6 401/3/6
f 401/3/6 398/3/6 402/3/6
f 400/3/6 401/3/6 403/3/6
f 403/3/6 401/3/6 404/3/6
f 405/2/6 406/2/6 409/2/6
f 409/2/6 406/2/6 410/2/6
f 407/2/6 408/2/6 411/2/6
f 411/2/6 408/2/6 412/2/6
f 413/2/6 414/2/6 417/2/6
f 417/2/6 414/2/6 418/2/6
f 415/2/6 416/2/6 419/2/6
f 419/2/6 416/2/6 420/2/6
f 421/2/6 422/2/6 423/2/6
f 423/2/6 422/2/6 424/2/6
