# MagicaVoxel @ Ephtracy

# material
mtllib Toxstop.mtl
usemtl palette

# normals
vn -1 0 0
vn 1 0 0
vn 0 0 1
vn 0 0 -1
vn 0 -1 0
vn 0 1 0

# texcoords
vt 0.845703 0.5
vt 0.962891 0.5
vt 0.974609 0.5

# verts
v -5.5 24 3
v -5.5 24 2
v -5.5 25 3
v -5.5 25 2
v -5.5 26 3
v -5.5 26 2
v -5.5 31 3
v -5.5 31 2
v -5.5 32 3
v -5.5 32 2
v -5.5 33 3
v -5.5 33 2
v -4.5 26 3
v -4.5 26 2
v -4.5 27 3
v -4.5 27 2
v -4.5 30 3
v -4.5 30 2
v -4.5 31 3
v -4.5 31 2
v -3.5 27 3
v -3.5 27 2
v -3.5 28 3
v -3.5 28 2
v -3.5 29 3
v -3.5 29 2
v -3.5 30 3
v -3.5 30 2
v -2.5 0 1
v -2.5 0 -2
v -2.5 24 -1
v -2.5 24 -2
v -2.5 28 3
v -2.5 28 2
v -2.5 28 -0
v -2.5 28 -1
v -2.5 29 3
v -2.5 29 2
v -2.5 29 1
v -2.5 29 -0
v -1.5 0 2
v -1.5 0 1
v -1.5 24 -1
v -1.5 24 -2
v -1.5 26 2
v -1.5 27 2
v -1.5 27 -1
v -1.5 27 -2
v -1.5 29 1
v -1.5 30 2
v -1.5 30 1
v -0.5 0 -2
v -0.5 0 -3
v -0.5 24 -2
v -0.5 24 -3
v -0.5 27 -1
v -0.5 27 -2
v -0.5 28 -0
v -0.5 28 -1
v -0.5 28 -2
v -0.5 29 1
v -0.5 29 -0
v -0.5 29 -1
v -0.5 30 1
v -0.5 30 -0
v 0.5 27 3
v 0.5 27 2
v 0.5 28 3
v 0.5 28 2
v 0.5 29 3
v 0.5 29 2
v 0.5 30 3
v 0.5 30 2
v 1.5 26 3
v 1.5 26 2
v 1.5 27 3
v 1.5 27 2
v 1.5 30 3
v 1.5 30 2
v 1.5 31 3
v 1.5 31 2
v 2.5 25 3
v 2.5 25 2
v 2.5 26 3
v 2.5 26 2
v 2.5 31 3
v 2.5 31 2
v 2.5 32 3
v 2.5 32 2
v 3.5 24 3
v 3.5 24 2
v 3.5 25 3
v 3.5 25 2
v 3.5 32 3
v 3.5 32 2
v 3.5 33 3
v 3.5 33 2
v -3.5 24 3
v -3.5 24 2
v -3.5 25 3
v -3.5 25 2
v -3.5 32 3
v -3.5 32 2
v -3.5 33 3
v -3.5 33 2
v -2.5 25 3
v -2.5 25 2
v -2.5 26 3
v -2.5 26 2
v -2.5 31 3
v -2.5 31 2
v -2.5 32 3
v -2.5 32 2
v -1.5 26 3
v -1.5 26 2
v -1.5 27 3
v -1.5 27 2
v -1.5 30 3
v -1.5 30 2
v -1.5 31 3
v -1.5 31 2
v -0.5 27 3
v -0.5 27 2
v -0.5 28 3
v -0.5 28 2
v -0.5 29 3
v -0.5 29 2
v -0.5 30 3
v -0.5 30 2
v 0.5 0 -2
v 0.5 0 -3
v 0.5 24 -2
v 0.5 24 -3
v 0.5 27 -1
v 0.5 27 -2
v 0.5 28 -0
v 0.5 28 -1
v 0.5 28 -2
v 0.5 29 1
v 0.5 29 -0
v 0.5 29 -1
v 0.5 30 1
v 0.5 30 -0
v 1.5 0 2
v 1.5 0 1
v 1.5 24 -1
v 1.5 24 -2
v 1.5 26 2
v 1.5 27 2
v 1.5 27 -1
v 1.5 27 -2
v 1.5 29 1
v 1.5 30 2
v 1.5 30 1
v 2.5 0 1
v 2.5 0 -2
v 2.5 24 -1
v 2.5 24 -2
v 2.5 28 3
v 2.5 28 2
v 2.5 28 -0
v 2.5 28 -1
v 2.5 29 3
v 2.5 29 2
v 2.5 29 1
v 2.5 29 -0
v 3.5 27 3
v 3.5 27 2
v 3.5 28 3
v 3.5 28 2
v 3.5 29 3
v 3.5 29 2
v 3.5 30 3
v 3.5 30 2
v 4.5 26 3
v 4.5 26 2
v 4.5 27 3
v 4.5 27 2
v 4.5 30 3
v 4.5 30 2
v 4.5 31 3
v 4.5 31 2
v 5.5 24 3
v 5.5 24 2
v 5.5 25 3
v 5.5 25 2
v 5.5 26 3
v 5.5 26 2
v 5.5 31 3
v 5.5 31 2
v 5.5 32 3
v 5.5 32 2
v 5.5 33 3
v 5.5 33 2
v -5.5 24 3
v -5.5 25 3
v -5.5 26 3
v -5.5 31 3
v -5.5 32 3
v -5.5 33 3
v -4.5 26 3
v -4.5 27 3
v -4.5 30 3
v -4.5 31 3
v -3.5 24 3
v -3.5 25 3
v -3.5 26 3
v -3.5 27 3
v -3.5 28 3
v -3.5 29 3
v -3.5 30 3
v -3.5 31 3
v -3.5 32 3
v -3.5 33 3
v -2.5 25 3
v -2.5 26 3
v -2.5 27 3
v -2.5 28 3
v -2.5 29 3
v -2.5 30 3
v -2.5 31 3
v -2.5 32 3
v -1.5 26 3
v -1.5 27 3
v -1.5 28 3
v -1.5 29 3
v -1.5 30 3
v -1.5 31 3
v -0.5 27 3
v -0.5 28 3
v -0.5 29 3
v -0.5 30 3
v 0.5 27 3
v 0.5 28 3
v 0.5 29 3
v 0.5 30 3
v 1.5 26 3
v 1.5 27 3
v 1.5 28 3
v 1.5 29 3
v 1.5 30 3
v 1.5 31 3
v 2.5 25 3
v 2.5 26 3
v 2.5 27 3
v 2.5 28 3
v 2.5 29 3
v 2.5 30 3
v 2.5 31 3
v 2.5 32 3
v 3.5 24 3
v 3.5 25 3
v 3.5 26 3
v 3.5 27 3
v 3.5 28 3
v 3.5 29 3
v 3.5 30 3
v 3.5 31 3
v 3.5 32 3
v 3.5 33 3
v 4.5 26 3
v 4.5 27 3
v 4.5 30 3
v 4.5 31 3
v 5.5 24 3
v 5.5 25 3
v 5.5 26 3
v 5.5 31 3
v 5.5 32 3
v 5.5 33 3
v -1.5 0 2
v -1.5 26 2
v -1.5 27 2
v -0.5 27 2
v -0.5 28 2
v -0.5 29 2
v -0.5 30 2
v 0.5 27 2
v 0.5 28 2
v 0.5 29 2
v 0.5 30 2
v 1.5 0 2
v 1.5 26 2
v 1.5 27 2
v -2.5 0 1
v -2.5 29 1
v -1.5 0 1
v -1.5 29 1
v 1.5 0 1
v 1.5 29 1
v 2.5 0 1
v 2.5 29 1
v -5.5 24 2
v -5.5 25 2
v -5.5 26 2
v -5.5 31 2
v -5.5 32 2
v -5.5 33 2
v -4.5 26 2
v -4.5 27 2
v -4.5 30 2
v -4.5 31 2
v -3.5 24 2
v -3.5 25 2
v -3.5 26 2
v -3.5 27 2
v -3.5 28 2
v -3.5 29 2
v -3.5 30 2
v -3.5 31 2
v -3.5 32 2
v -3.5 33 2
v -2.5 25 2
v -2.5 26 2
v -2.5 27 2
v -2.5 28 2
v -2.5 29 2
v -2.5 30 2
v -2.5 31 2
v -2.5 32 2
v -1.5 26 2
v -1.5 27 2
v -1.5 30 2
v -1.5 31 2
v 1.5 26 2
v 1.5 27 2
v 1.5 30 2
v 1.5 31 2
v 2.5 25 2
v 2.5 26 2
v 2.5 27 2
v 2.5 28 2
v 2.5 29 2
v 2.5 30 2
v 2.5 31 2
v 2.5 32 2
v 3.5 24 2
v 3.5 25 2
v 3.5 26 2
v 3.5 27 2
v 3.5 28 2
v 3.5 29 2
v 3.5 30 2
v 3.5 31 2
v 3.5 32 2
v 3.5 33 2
v 4.5 26 2
v 4.5 27 2
v 4.5 30 2
v 4.5 31 2
v 5.5 24 2
v 5.5 25 2
v 5.5 26 2
v 5.5 31 2
v 5.5 32 2
v 5.5 33 2
v -1.5 29 1
v -1.5 30 1
v -0.5 29 1
v -0.5 30 1
v 0.5 29 1
v 0.5 30 1
v 1.5 29 1
v 1.5 30 1
v -2.5 28 -0
v -2.5 29 -0
v -0.5 28 -0
v -0.5 29 -0
v -0.5 30 -0
v 0.5 28 -0
v 0.5 29 -0
v 0.5 30 -0
v 2.5 28 -0
v 2.5 29 -0
v -2.5 24 -1
v -2.5 28 -1
v -1.5 24 -1
v -1.5 27 -1
v -0.5 27 -1
v -0.5 28 -1
v -0.5 29 -1
v 0.5 27 -1
v 0.5 28 -1
v 0.5 29 -1
v 1.5 24 -1
v 1.5 27 -1
v 2.5 24 -1
v 2.5 28 -1
v -2.5 0 -2
v -2.5 24 -2
v -1.5 24 -2
v -1.5 27 -2
v -0.5 0 -2
v -0.5 24 -2
v -0.5 27 -2
v -0.5 28 -2
v 0.5 0 -2
v 0.5 24 -2
v 0.5 27 -2
v 0.5 28 -2
v 1.5 24 -2
v 1.5 27 -2
v 2.5 0 -2
v 2.5 24 -2
v -0.5 0 -3
v -0.5 24 -3
v 0.5 0 -3
v 0.5 24 -3
v -1.5 0 2
v 1.5 0 2
v -2.5 0 1
v -1.5 0 1
v 1.5 0 1
v 2.5 0 1
v -2.5 0 -2
v -0.5 0 -2
v 0.5 0 -2
v 2.5 0 -2
v -0.5 0 -3
v 0.5 0 -3
v -5.5 24 3
v -3.5 24 3
v 3.5 24 3
v 5.5 24 3
v -5.5 24 2
v -3.5 24 2
v 3.5 24 2
v 5.5 24 2
v -3.5 25 3
v -2.5 25 3
v 2.5 25 3
v 3.5 25 3
v -3.5 25 2
v -2.5 25 2
v 2.5 25 2
v 3.5 25 2
v -2.5 26 3
v -1.5 26 3
v 1.5 26 3
v 2.5 26 3
v -2.5 26 2
v -1.5 26 2
v 1.5 26 2
v 2.5 26 2
v -1.5 27 3
v -0.5 27 3
v 0.5 27 3
v 1.5 27 3
v -1.5 27 2
v -0.5 27 2
v 0.5 27 2
v 1.5 27 2
v -0.5 28 3
v 0.5 28 3
v -0.5 28 2
v 0.5 28 2
v -3.5 29 3
v -2.5 29 3
v 2.5 29 3
v 3.5 29 3
v -3.5 29 2
v -2.5 29 2
v 2.5 29 2
v 3.5 29 2
v -4.5 30 3
v -3.5 30 3
v 3.5 30 3
v 4.5 30 3
v -4.5 30 2
v -3.5 30 2
v 3.5 30 2
v 4.5 30 2
v -5.5 31 3
v -4.5 31 3
v 4.5 31 3
v 5.5 31 3
v -5.5 31 2
v -4.5 31 2
v 4.5 31 2
v 5.5 31 2
v -2.5 24 -1
v -1.5 24 -1
v 1.5 24 -1
v 2.5 24 -1
v -2.5 24 -2
v -1.5 24 -2
v -0.5 24 -2
v 0.5 24 -2
v 1.5 24 -2
v 2.5 24 -2
v -0.5 24 -3
v 0.5 24 -3
v -5.5 26 3
v -4.5 26 3
v 4.5 26 3
v 5.5 26 3
v -5.5 26 2
v -4.5 26 2
v 4.5 26 2
v 5.5 26 2
v -4.5 27 3
v -3.5 27 3
v 3.5 27 3
v 4.5 27 3
v -4.5 27 2
v -3.5 27 2
v 3.5 27 2
v 4.5 27 2
v -1.5 27 -1
v -0.5 27 -1
v 0.5 27 -1
v 1.5 27 -1
v -1.5 27 -2
v -0.5 27 -2
v 0.5 27 -2
v 1.5 27 -2
v -3.5 28 3
v -2.5 28 3
v 2.5 28 3
v 3.5 28 3
v -3.5 28 2
v -2.5 28 2
v 2.5 28 2
v 3.5 28 2
v -2.5 28 -0
v -0.5 28 -0
v 0.5 28 -0
v 2.5 28 -0
v -2.5 28 -1
v -0.5 28 -1
v 0.5 28 -1
v 2.5 28 -1
v -0.5 28 -2
v 0.5 28 -2
v -0.5 29 3
v 0.5 29 3
v -0.5 29 2
v 0.5 29 2
v -2.5 29 1
v -1.5 29 1
v -0.5 29 1
v 0.5 29 1
v 1.5 29 1
v 2.5 29 1
v -2.5 29 -0
v -0.5 29 -0
v 0.5 29 -0
v 2.5 29 -0
v -0.5 29 -1
v 0.5 29 -1
v -1.5 30 3
v -0.5 30 3
v 0.5 30 3
v 1.5 30 3
v -1.5 30 2
v -0.5 30 2
v 0.5 30 2
v 1.5 30 2
v -1.5 30 1
v -0.5 30 1
v 0.5 30 1
v 1.5 30 1
v -0.5 30 -0
v 0.5 30 -0
v -2.5 31 3
v -1.5 31 3
v 1.5 31 3
v 2.5 31 3
v -2.5 31 2
v -1.5 31 2
v 1.5 31 2
v 2.5 31 2
v -3.5 32 3
v -2.5 32 3
v 2.5 32 3
v 3.5 32 3
v -3.5 32 2
v -2.5 32 2
v 2.5 32 2
v 3.5 32 2
v -5.5 33 3
v -3.5 33 3
v 3.5 33 3
v 5.5 33 3
v -5.5 33 2
v -3.5 33 2
v 3.5 33 2
v 5.5 33 2

# faces
f 3/2/1 2/2/1 1/2/1
f 4/2/1 2/2/1 3/2/1
f 5/1/1 4/1/1 3/1/1
f 6/1/1 4/1/1 5/1/1
f 9/1/1 8/1/1 7/1/1
f 10/1/1 8/1/1 9/1/1
f 11/2/1 10/2/1 9/2/1
f 12/2/1 10/2/1 11/2/1
f 15/1/1 14/1/1 13/1/1
f 16/1/1 14/1/1 15/1/1
f 19/1/1 18/1/1 17/1/1
f 20/1/1 18/1/1 19/1/1
f 23/1/1 22/1/1 21/1/1
f 24/1/1 22/1/1 23/1/1
f 27/1/1 26/1/1 25/1/1
f 28/1/1 26/1/1 27/1/1
f 31/3/1 30/3/1 29/3/1
f 32/3/1 30/3/1 31/3/1
f 35/3/1 31/3/1 29/3/1
f 36/3/1 31/3/1 35/3/1
f 37/1/1 34/1/1 33/1/1
f 38/1/1 34/1/1 37/1/1
f 39/3/1 35/3/1 29/3/1
f 40/3/1 35/3/1 39/3/1
f 45/3/1 42/3/1 41/3/1
f 46/3/1 42/3/1 45/3/1
f 47/3/1 44/3/1 43/3/1
f 48/3/1 44/3/1 47/3/1
f 49/3/1 42/3/1 46/3/1
f 50/3/1 49/3/1 46/3/1
f 51/3/1 49/3/1 50/3/1
f 54/3/1 53/3/1 52/3/1
f 55/3/1 53/3/1 54/3/1
f 59/3/1 57/3/1 56/3/1
f 60/3/1 57/3/1 59/3/1
f 62/3/1 59/3/1 58/3/1
f 63/3/1 59/3/1 62/3/1
f 64/3/1 62/3/1 61/3/1
f 65/3/1 62/3/1 64/3/1
f 68/2/1 67/2/1 66/2/1
f 69/2/1 67/2/1 68/2/1
f 72/2/1 71/2/1 70/2/1
f 73/2/1 71/2/1 72/2/1
f 76/2/1 75/2/1 74/2/1
f 77/2/1 75/2/1 76/2/1
f 80/2/1 79/2/1 78/2/1
f 81/2/1 79/2/1 80/2/1
f 84/2/1 83/2/1 82/2/1
f 85/2/1 83/2/1 84/2/1
f 88/2/1 87/2/1 86/2/1
f 89/2/1 87/2/1 88/2/1
f 92/2/1 91/2/1 90/2/1
f 93/2/1 91/2/1 92/2/1
f 96/2/1 95/2/1 94/2/1
f 97/2/1 95/2/1 96/2/1
f 98/2/2 99/2/2 100/2/2
f 100/2/2 99/2/2 101/2/2
f 102/2/2 103/2/2 104/2/2
f 104/2/2 103/2/2 105/2/2
f 106/2/2 107/2/2 108/2/2
f 108/2/2 107/2/2 109/2/2
f 110/2/2 111/2/2 112/2/2
f 112/2/2 111/2/2 113/2/2
f 114/2/2 115/2/2 116/2/2
f 116/2/2 115/2/2 117/2/2
f 118/2/2 119/2/2 120/2/2
f 120/2/2 119/2/2 121/2/2
f 122/2/2 123/2/2 124/2/2
f 124/2/2 123/2/2 125/2/2
f 126/2/2 127/2/2 128/2/2
f 128/2/2 127/2/2 129/2/2
f 130/3/2 131/3/2 132/3/2
f 132/3/2 131/3/2 133/3/2
f 134/3/2 135/3/2 137/3/2
f 137/3/2 135/3/2 138/3/2
f 136/3/2 137/3/2 140/3/2
f 140/3/2 137/3/2 141/3/2
f 139/3/2 140/3/2 142/3/2
f 142/3/2 140/3/2 143/3/2
f 144/3/2 145/3/2 148/3/2
f 148/3/2 145/3/2 149/3/2
f 146/3/2 147/3/2 150/3/2
f 150/3/2 147/3/2 151/3/2
f 149/3/2 145/3/2 152/3/2
f 149/3/2 152/3/2 153/3/2
f 153/3/2 152/3/2 154/3/2
f 155/3/2 156/3/2 157/3/2
f 157/3/2 156/3/2 158/3/2
f 155/3/2 157/3/2 161/3/2
f 161/3/2 157/3/2 162/3/2
f 159/1/2 160/1/2 163/1/2
f 163/1/2 160/1/2 164/1/2
f 155/3/2 161/3/2 165/3/2
f 165/3/2 161/3/2 166/3/2
f 167/1/2 168/1/2 169/1/2
f 169/1/2 168/1/2 170/1/2
f 171/1/2 172/1/2 173/1/2
f 173/1/2 172/1/2 174/1/2
f 175/1/2 176/1/2 177/1/2
f 177/1/2 176/1/2 178/1/2
f 179/1/2 180/1/2 181/1/2
f 181/1/2 180/1/2 182/1/2
f 183/2/2 184/2/2 185/2/2
f 185/2/2 184/2/2 186/2/2
f 185/1/2 186/1/2 187/1/2
f 187/1/2 186/1/2 188/1/2
f 189/1/2 190/1/2 191/1/2
f 191/1/2 190/1/2 192/1/2
f 191/2/2 192/2/2 193/2/2
f 193/2/2 192/2/2 194/2/2
f 201/1/3 197/1/3 196/1/3
f 204/1/3 199/1/3 198/1/3
f 205/2/3 196/2/3 195/2/3
f 206/1/3 202/1/3 201/1/3
f 206/2/3 196/2/3 205/2/3
f 206/1/3 201/1/3 196/1/3
f 207/1/3 202/1/3 206/1/3
f 208/1/3 202/1/3 207/1/3
f 211/1/3 204/1/3 203/1/3
f 212/1/3 199/1/3 204/1/3
f 212/1/3 204/1/3 211/1/3
f 213/2/3 200/2/3 199/2/3
f 213/1/3 199/1/3 212/1/3
f 214/2/3 200/2/3 213/2/3
f 215/2/3 207/2/3 206/2/3
f 216/1/3 209/1/3 208/1/3
f 216/2/3 207/2/3 215/2/3
f 216/1/3 208/1/3 207/1/3
f 217/1/3 209/1/3 216/1/3
f 218/1/3 209/1/3 217/1/3
f 219/1/3 212/1/3 211/1/3
f 219/1/3 211/1/3 210/1/3
f 220/1/3 212/1/3 219/1/3
f 221/2/3 213/2/3 212/2/3
f 221/1/3 212/1/3 220/1/3
f 222/2/3 213/2/3 221/2/3
f 223/2/3 217/2/3 216/2/3
f 224/1/3 218/1/3 217/1/3
f 224/2/3 217/2/3 223/2/3
f 224/1/3 220/1/3 219/1/3
f 224/1/3 219/1/3 218/1/3
f 225/1/3 220/1/3 224/1/3
f 226/1/3 220/1/3 225/1/3
f 227/2/3 221/2/3 220/2/3
f 227/1/3 220/1/3 226/1/3
f 228/2/3 221/2/3 227/2/3
f 229/2/3 225/2/3 224/2/3
f 230/1/3 226/1/3 225/1/3
f 230/2/3 225/2/3 229/2/3
f 231/2/3 227/2/3 226/2/3
f 231/1/3 226/1/3 230/1/3
f 232/2/3 227/2/3 231/2/3
f 234/2/3 231/2/3 230/2/3
f 235/2/3 231/2/3 234/2/3
f 238/2/3 234/2/3 233/2/3
f 239/1/3 235/1/3 234/1/3
f 239/2/3 234/2/3 238/2/3
f 240/2/3 236/2/3 235/2/3
f 240/1/3 235/1/3 239/1/3
f 241/2/3 236/2/3 240/2/3
f 244/2/3 238/2/3 237/2/3
f 245/1/3 241/1/3 240/1/3
f 245/1/3 239/1/3 238/1/3
f 245/2/3 238/2/3 244/2/3
f 245/1/3 240/1/3 239/1/3
f 246/1/3 241/1/3 245/1/3
f 247/1/3 241/1/3 246/1/3
f 248/2/3 242/2/3 241/2/3
f 248/1/3 241/1/3 247/1/3
f 249/2/3 242/2/3 248/2/3
f 252/2/3 244/2/3 243/2/3
f 253/1/3 245/1/3 244/1/3
f 253/1/3 246/1/3 245/1/3
f 253/2/3 244/2/3 252/2/3
f 254/1/3 246/1/3 253/1/3
f 255/1/3 246/1/3 254/1/3
f 256/1/3 249/1/3 248/1/3
f 256/1/3 248/1/3 247/1/3
f 257/1/3 249/1/3 256/1/3
f 258/2/3 250/2/3 249/2/3
f 258/1/3 249/1/3 257/1/3
f 259/2/3 250/2/3 258/2/3
f 261/1/3 254/1/3 253/1/3
f 261/1/3 253/1/3 252/1/3
f 262/1/3 254/1/3 261/1/3
f 263/1/3 259/1/3 258/1/3
f 263/1/3 258/1/3 257/1/3
f 264/1/3 259/1/3 263/1/3
f 265/2/3 252/2/3 251/2/3
f 266/1/3 261/1/3 252/1/3
f 266/2/3 252/2/3 265/2/3
f 267/1/3 261/1/3 266/1/3
f 268/1/3 259/1/3 264/1/3
f 269/2/3 260/2/3 259/2/3
f 269/1/3 259/1/3 268/1/3
f 270/2/3 260/2/3 269/2/3
f 274/3/3 272/3/3 271/3/3
f 274/3/3 273/3/3 272/3/3
f 278/3/3 274/3/3 271/3/3
f 278/3/3 275/3/3 274/3/3
f 279/3/3 275/3/3 278/3/3
f 280/3/3 277/3/3 276/3/3
f 281/3/3 277/3/3 280/3/3
f 282/3/3 278/3/3 271/3/3
f 283/3/3 278/3/3 282/3/3
f 284/3/3 278/3/3 283/3/3
f 287/3/3 286/3/3 285/3/3
f 288/3/3 286/3/3 287/3/3
f 291/3/3 290/3/3 289/3/3
f 292/3/3 290/3/3 291/3/3
f 294/1/4 295/1/4 299/1/4
f 296/1/4 297/1/4 302/1/4
f 293/2/4 294/2/4 303/2/4
f 299/1/4 300/1/4 304/1/4
f 303/2/4 294/2/4 304/2/4
f 294/1/4 299/1/4 304/1/4
f 304/1/4 300/1/4 305/1/4
f 305/1/4 300/1/4 306/1/4
f 301/1/4 302/1/4 309/1/4
f 302/1/4 297/1/4 310/1/4
f 309/1/4 302/1/4 310/1/4
f 297/2/4 298/2/4 311/2/4
f 310/1/4 297/1/4 311/1/4
f 311/2/4 298/2/4 312/2/4
f 304/2/4 305/2/4 313/2/4
f 306/1/4 307/1/4 314/1/4
f 313/2/4 305/2/4 314/2/4
f 305/1/4 306/1/4 314/1/4
f 314/1/4 307/1/4 315/1/4
f 315/1/4 307/1/4 316/1/4
f 309/1/4 310/1/4 317/1/4
f 308/1/4 309/1/4 317/1/4
f 317/1/4 310/1/4 318/1/4
f 310/2/4 311/2/4 319/2/4
f 318/1/4 310/1/4 319/1/4
f 319/2/4 311/2/4 320/2/4
f 314/2/4 315/2/4 321/2/4
f 315/1/4 316/1/4 322/1/4
f 321/2/4 315/2/4 322/2/4
f 317/1/4 318/1/4 322/1/4
f 316/1/4 317/1/4 322/1/4
f 318/2/4 319/2/4 323/2/4
f 322/1/4 318/1/4 323/1/4
f 323/2/4 319/2/4 324/2/4
f 325/2/4 326/2/4 330/2/4
f 326/1/4 327/1/4 331/1/4
f 330/2/4 326/2/4 331/2/4
f 331/1/4 327/1/4 332/1/4
f 332/1/4 327/1/4 333/1/4
f 327/2/4 328/2/4 334/2/4
f 333/1/4 327/1/4 334/1/4
f 334/2/4 328/2/4 335/2/4
f 329/2/4 330/2/4 338/2/4
f 330/1/4 331/1/4 339/1/4
f 331/1/4 332/1/4 339/1/4
f 338/2/4 330/2/4 339/2/4
f 339/1/4 332/1/4 340/1/4
f 340/1/4 332/1/4 341/1/4
f 334/1/4 335/1/4 342/1/4
f 333/1/4 334/1/4 342/1/4
f 342/1/4 335/1/4 343/1/4
f 335/2/4 336/2/4 344/2/4
f 343/1/4 335/1/4 344/1/4
f 344/2/4 336/2/4 345/2/4
f 339/1/4 340/1/4 347/1/4
f 338/1/4 339/1/4 347/1/4
f 347/1/4 340/1/4 348/1/4
f 344/1/4 345/1/4 349/1/4
f 343/1/4 344/1/4 349/1/4
f 349/1/4 345/1/4 350/1/4
f 337/2/4 338/2/4 351/2/4
f 338/1/4 347/1/4 352/1/4
f 351/2/4 338/2/4 352/2/4
f 352/1/4 347/1/4 353/1/4
f 350/1/4 345/1/4 354/1/4
f 345/2/4 346/2/4 355/2/4
f 354/1/4 345/1/4 355/1/4
f 355/2/4 346/2/4 356/2/4
f 357/3/4 358/3/4 359/3/4
f 359/3/4 358/3/4 360/3/4
f 361/3/4 362/3/4 363/3/4
f 363/3/4 362/3/4 364/3/4
f 365/3/4 366/3/4 367/3/4
f 367/3/4 366/3/4 368/3/4
f 368/3/4 369/3/4 371/3/4
f 371/3/4 369/3/4 372/3/4
f 370/3/4 371/3/4 373/3/4
f 373/3/4 371/3/4 374/3/4
f 375/3/4 376/3/4 377/3/4
f 377/3/4 376/3/4 378/3/4
f 378/3/4 376/3/4 379/3/4
f 379/3/4 376/3/4 380/3/4
f 380/3/4 381/3/4 383/3/4
f 383/3/4 381/3/4 384/3/4
f 382/3/4 383/3/4 386/3/4
f 385/3/4 386/3/4 387/3/4
f 386/3/4 383/3/4 388/3/4
f 387/3/4 386/3/4 388/3/4
f 389/3/4 390/3/4 391/3/4
f 389/3/4 391/3/4 393/3/4
f 391/3/4 392/3/4 393/3/4
f 393/3/4 392/3/4 394/3/4
f 394/3/4 392/3/4 395/3/4
f 395/3/4 396/3/4 398/3/4
f 394/3/4 395/3/4 398/3/4
f 398/3/4 396/3/4 399/3/4
f 399/3/4 396/3/4 400/3/4
f 397/3/4 398/3/4 401/3/4
f 398/3/4 399/3/4 401/3/4
f 401/3/4 399/3/4 402/3/4
f 397/3/4 401/3/4 403/3/4
f 403/3/4 401/3/4 404/3/4
f 405/3/4 406/3/4 407/3/4
f 407/3/4 406/3/4 408/3/4
f 412/3/5 410/3/5 409/3/5
f 413/3/5 410/3/5 412/3/5
f 415/3/5 412/3/5 411/3/5
f 415/3/5 414/3/5 413/3/5
f 415/3/5 413/3/5 412/3/5
f 416/3/5 414/3/5 415/3/5
f 417/3/5 414/3/5 416/3/5
f 418/3/5 414/3/5 417/3/5
f 419/3/5 417/3/5 416/3/5
f 420/3/5 417/3/5 419/3/5
f 425/2/5 422/2/5 421/2/5
f 426/2/5 422/2/5 425/2/5
f 427/2/5 424/2/5 423/2/5
f 428/2/5 424/2/5 427/2/5
f 433/2/5 430/2/5 429/2/5
f 434/2/5 430/2/5 433/2/5
f 435/2/5 432/2/5 431/2/5
f 436/2/5 432/2/5 435/2/5
f 441/2/5 438/2/5 437/2/5
f 442/2/5 438/2/5 441/2/5
f 443/2/5 440/2/5 439/2/5
f 444/2/5 440/2/5 443/2/5
f 449/2/5 446/2/5 445/2/5
f 450/2/5 446/2/5 449/2/5
f 451/2/5 448/2/5 447/2/5
f 452/2/5 448/2/5 451/2/5
f 455/2/5 454/2/5 453/2/5
f 456/2/5 454/2/5 455/2/5
f 461/1/5 458/1/5 457/1/5
f 462/1/5 458/1/5 461/1/5
f 463/1/5 460/1/5 459/1/5
f 464/1/5 460/1/5 463/1/5
f 469/1/5 466/1/5 465/1/5
f 470/1/5 466/1/5 469/1/5
f 471/1/5 468/1/5 467/1/5
f 472/1/5 468/1/5 471/1/5
f 477/1/5 474/1/5 473/1/5
f 478/1/5 474/1/5 477/1/5
f 479/1/5 476/1/5 475/1/5
f 480/1/5 476/1/5 479/1/5
f 481/3/6 482/3/6 485/3/6
f 485/3/6 482/3/6 486/3/6
f 483/3/6 484/3/6 489/3/6
f 489/3/6 484/3/6 490/3/6
f 487/3/6 488/3/6 491/3/6
f 491/3/6 488/3/6 492/3/6
f 493/1/6 494/1/6 497/1/6
f 497/1/6 494/1/6 498/1/6
f 495/1/6 496/1/6 499/1/6
f 499/1/6 496/1/6 500/1/6
f 501/1/6 502/1/6 505/1/6
f 505/1/6 502/1/6 506/1/6
f 503/1/6 504/1/6 507/1/6
f 507/1/6 504/1/6 508/1/6
f 509/3/6 510/3/6 513/3/6
f 513/3/6 510/3/6 514/3/6
f 511/3/6 512/3/6 515/3/6
f 515/3/6 512/3/6 516/3/6
f 517/1/6 518/1/6 521/1/6
f 521/1/6 518/1/6 522/1/6
f 519/1/6 520/1/6 523/1/6
f 523/1/6 520/1/6 524/1/6
f 525/3/6 526/3/6 529/3/6
f 529/3/6 526/3/6 530/3/6
f 527/3/6 528/3/6 531/3/6
f 531/3/6 528/3/6 532/3/6
f 530/3/6 531/3/6 533/3/6
f 533/3/6 531/3/6 534/3/6
f 535/2/6 536/2/6 537/2/6
f 537/2/6 536/2/6 538/2/6
f 540/3/6 541/3/6 545/3/6
f 539/3/6 540/3/6 545/3/6
f 545/3/6 541/3/6 546/3/6
f 543/3/6 544/3/6 547/3/6
f 542/3/6 543/3/6 547/3/6
f 547/3/6 544/3/6 548/3/6
f 546/3/6 547/3/6 549/3/6
f 549/3/6 547/3/6 550/3/6
f 551/2/6 552/2/6 555/2/6
f 555/2/6 552/2/6 556/2/6
f 553/2/6 554/2/6 557/2/6
f 557/2/6 554/2/6 558/2/6
f 555/3/6 556/3/6 559/3/6
f 556/3/6 557/3/6 559/3/6
f 557/3/6 558/3/6 559/3/6
f 559/3/6 558/3/6 560/3/6
f 560/3/6 558/3/6 561/3/6
f 561/3/6 558/3/6 562/3/6
f 560/3/6 561/3/6 563/3/6
f 563/3/6 561/3/6 564/3/6
f 565/2/6 566/2/6 569/2/6
f 569/2/6 566/2/6 570/2/6
f 567/2/6 568/2/6 571/2/6
f 571/2/6 568/2/6 572/2/6
f 573/2/6 574/2/6 577/2/6
f 577/2/6 574/2/6 578/2/6
f 575/2/6 576/2/6 579/2/6
f 579/2/6 576/2/6 580/2/6
f 581/2/6 582/2/6 585/2/6
f 585/2/6 582/2/6 586/2/6
f 583/2/6 584/2/6 587/2/6
f 587/2/6 584/2/6 588/2/6
