# MagicaVoxel @ Ephtracy

# material
mtllib Board.mtl
usemtl palette

# normals
vn -1 0 0
vn 1 0 0
vn 0 0 1
vn 0 0 -1
vn 0 -1 0
vn 0 1 0

# texcoords
vt 0.306641 0.5
vt 0.310547 0.5

# verts
v -5 3 -4
v -5 3 -5
v -5 7 -4
v -5 7 -5
v 5 3 -4
v 5 3 -5
v 5 7 -4
v 5 7 -5
v -5 3 -4
v -5 7 -4
v -4 3 -4
v -4 4 -4
v -3 3 -4
v -3 4 -4
v -3 5 -4
v -2 4 -4
v -2 5 -4
v -2 7 -4
v -1 5 -4
v -1 7 -4
v 1 5 -4
v 1 6 -4
v 4 5 -4
v 4 6 -4
v 5 3 -4
v 5 7 -4
v -5 3 -5
v -5 7 -5
v -4 3 -5
v -4 4 -5
v -3 3 -5
v -3 4 -5
v -3 5 -5
v -2 4 -5
v -2 5 -5
v -2 7 -5
v -1 5 -5
v -1 7 -5
v 1 5 -5
v 1 6 -5
v 4 5 -5
v 4 6 -5
v 5 3 -5
v 5 7 -5
v -5 3 -4
v -4 3 -4
v -3 3 -4
v 5 3 -4
v -5 3 -5
v -4 3 -5
v -3 3 -5
v 5 3 -5
v -5 7 -4
v -2 7 -4
v -1 7 -4
v 5 7 -4
v -5 7 -5
v -2 7 -5
v -1 7 -5
v 5 7 -5

# faces
f 3/1/1 2/1/1 1/1/1
f 4/1/1 2/1/1 3/1/1
f 5/1/2 6/1/2 7/1/2
f 7/1/2 6/1/2 8/1/2
f 11/1/3 10/1/3 9/1/3
f 12/1/3 10/1/3 11/1/3
f 13/2/3 12/2/3 11/2/3
f 14/1/3 10/1/3 12/1/3
f 14/2/3 12/2/3 13/2/3
f 15/1/3 10/1/3 14/1/3
f 16/1/3 14/1/3 13/1/3
f 16/2/3 15/2/3 14/2/3
f 17/1/3 10/1/3 15/1/3
f 17/2/3 15/2/3 16/2/3
f 18/1/3 10/1/3 17/1/3
f 19/1/3 17/1/3 16/1/3
f 19/2/3 18/2/3 17/2/3
f 20/2/3 18/2/3 19/2/3
f 21/1/3 19/1/3 16/1/3
f 21/1/3 20/1/3 19/1/3
f 22/1/3 20/1/3 21/1/3
f 23/1/3 21/1/3 16/1/3
f 23/2/3 22/2/3 21/2/3
f 24/1/3 20/1/3 22/1/3
f 24/2/3 22/2/3 23/2/3
f 25/1/3 16/1/3 13/1/3
f 25/1/3 23/1/3 16/1/3
f 25/1/3 24/1/3 23/1/3
f 26/1/3 20/1/3 24/1/3
f 26/1/3 24/1/3 25/1/3
f 27/1/4 28/1/4 29/1/4
f 29/1/4 28/1/4 30/1/4
f 29/2/4 30/2/4 31/2/4
f 30/1/4 28/1/4 32/1/4
f 31/2/4 30/2/4 32/2/4
f 32/1/4 28/1/4 33/1/4
f 31/1/4 32/1/4 34/1/4
f 32/2/4 33/2/4 34/2/4
f 33/1/4 28/1/4 35/1/4
f 34/2/4 33/2/4 35/2/4
f 35/1/4 28/1/4 36/1/4
f 34/1/4 35/1/4 37/1/4
f 35/2/4 36/2/4 37/2/4
f 37/2/4 36/2/4 38/2/4
f 34/1/4 37/1/4 39/1/4
f 37/1/4 38/1/4 39/1/4
f 39/1/4 38/1/4 40/1/4
f 34/1/4 39/1/4 41/1/4
f 39/2/4 40/2/4 41/2/4
f 40/1/4 38/1/4 42/1/4
f 41/2/4 40/2/4 42/2/4
f 31/1/4 34/1/4 43/1/4
f 34/1/4 41/1/4 43/1/4
f 41/1/4 42/1/4 43/1/4
f 42/1/4 38/1/4 44/1/4
f 43/1/4 42/1/4 44/1/4
f 49/1/5 46/1/5 45/1/5
f 50/2/5 47/2/5 46/2/5
f 50/1/5 46/1/5 49/1/5
f 51/1/5 48/1/5 47/1/5
f 51/2/5 47/2/5 50/2/5
f 52/1/5 48/1/5 51/1/5
f 53/1/6 54/1/6 57/1/6
f 54/2/6 55/2/6 58/2/6
f 57/1/6 54/1/6 58/1/6
f 55/1/6 56/1/6 59/1/6
f 58/2/6 55/2/6 59/2/6
f 59/1/6 56/1/6 60/1/6
