# MagicaVoxel @ Ephtracy

# material
mtllib CasinoSkilt.mtl
usemtl palette

# normals
vn -1 0 0
vn 1 0 0
vn 0 0 1
vn 0 0 -1
vn 0 -1 0
vn 0 1 0

# texcoords
vt 0.0605469 0.5
vt 0.130859 0.5

# verts
v -21 1 -4
v -21 1 -5
v -21 10 -4
v -21 10 -5
v -20 2 -3
v -20 2 -4
v -20 9 -3
v -20 9 -4
v -13 2 -3
v -13 2 -4
v -13 9 -3
v -13 9 -4
v -9 2 -3
v -9 2 -4
v -9 5 -3
v -9 5 -4
v -9 6 -3
v -9 6 -4
v -9 8 -3
v -9 8 -4
v -6 2 -3
v -6 2 -4
v -6 3 -3
v -6 3 -4
v -6 5 -3
v -6 5 -4
v -6 9 -3
v -6 9 -4
v -2 3 -3
v -2 3 -4
v -2 5 -3
v -2 5 -4
v 1 2 -3
v 1 2 -4
v 1 3 -3
v 1 3 -4
v 1 8 -3
v 1 8 -4
v 1 9 -3
v 1 9 -4
v 3 3 -3
v 3 3 -4
v 3 8 -3
v 3 8 -4
v 8 2 -3
v 8 2 -4
v 8 9 -3
v 8 9 -4
v 10 3 -3
v 10 3 -4
v 10 7 -3
v 10 7 -4
v 11 2 -3
v 11 2 -4
v 11 3 -3
v 11 3 -4
v 12 4 -3
v 12 4 -4
v 12 9 -3
v 12 9 -4
v 15 2 -3
v 15 2 -4
v 15 9 -3
v 15 9 -4
v 19 3 -3
v 19 3 -4
v 19 8 -3
v 19 8 -4
v -19 3 -3
v -19 3 -4
v -19 8 -3
v -19 8 -4
v -15 2 -3
v -15 2 -4
v -15 3 -3
v -15 3 -4
v -15 8 -3
v -15 8 -4
v -15 9 -3
v -15 9 -4
v -12 2 -3
v -12 2 -4
v -12 5 -3
v -12 5 -4
v -12 6 -3
v -12 6 -4
v -12 8 -3
v -12 8 -4
v -8 2 -3
v -8 2 -4
v -8 9 -3
v -8 9 -4
v -5 6 -3
v -5 6 -4
v -5 8 -3
v -5 8 -4
v -1 2 -3
v -1 2 -4
v -1 6 -3
v -1 6 -4
v -1 8 -3
v -1 8 -4
v -1 9 -3
v -1 9 -4
v 4 3 -3
v 4 3 -4
v 4 8 -3
v 4 8 -4
v 6 2 -3
v 6 2 -4
v 6 3 -3
v 6 3 -4
v 6 8 -3
v 6 8 -4
v 6 9 -3
v 6 9 -4
v 9 2 -3
v 9 2 -4
v 9 7 -3
v 9 7 -4
v 10 8 -3
v 10 8 -4
v 10 9 -3
v 10 9 -4
v 11 4 -3
v 11 4 -4
v 11 8 -3
v 11 8 -4
v 13 2 -3
v 13 2 -4
v 13 9 -3
v 13 9 -4
v 16 3 -3
v 16 3 -4
v 16 8 -3
v 16 8 -4
v 20 2 -3
v 20 2 -4
v 20 9 -3
v 20 9 -4
v 21 1 -4
v 21 1 -5
v 21 10 -4
v 21 10 -5
v -20 2 -3
v -20 9 -3
v -19 3 -3
v -19 8 -3
v -15 2 -3
v -15 3 -3
v -15 8 -3
v -15 9 -3
v -13 2 -3
v -13 9 -3
v -12 2 -3
v -12 5 -3
v -12 6 -3
v -12 8 -3
v -9 2 -3
v -9 5 -3
v -9 6 -3
v -9 8 -3
v -8 2 -3
v -8 9 -3
v -6 2 -3
v -6 3 -3
v -6 5 -3
v -6 9 -3
v -5 6 -3
v -5 8 -3
v -2 3 -3
v -2 5 -3
v -1 2 -3
v -1 6 -3
v -1 8 -3
v -1 9 -3
v 1 2 -3
v 1 3 -3
v 1 8 -3
v 1 9 -3
v 3 3 -3
v 3 8 -3
v 4 3 -3
v 4 8 -3
v 6 2 -3
v 6 3 -3
v 6 8 -3
v 6 9 -3
v 8 2 -3
v 8 9 -3
v 9 2 -3
v 9 7 -3
v 10 3 -3
v 10 7 -3
v 10 8 -3
v 10 9 -3
v 11 2 -3
v 11 3 -3
v 11 4 -3
v 11 8 -3
v 12 4 -3
v 12 9 -3
v 13 2 -3
v 13 9 -3
v 15 2 -3
v 15 9 -3
v 16 3 -3
v 16 8 -3
v 19 3 -3
v 19 8 -3
v 20 2 -3
v 20 9 -3
v -21 1 -4
v -21 10 -4
v -20 2 -4
v -20 9 -4
v -19 3 -4
v -19 8 -4
v -15 2 -4
v -15 3 -4
v -15 8 -4
v -15 9 -4
v -13 2 -4
v -13 9 -4
v -12 2 -4
v -12 5 -4
v -12 6 -4
v -12 8 -4
v -9 2 -4
v -9 5 -4
v -9 6 -4
v -9 8 -4
v -8 2 -4
v -8 9 -4
v -6 2 -4
v -6 3 -4
v -6 5 -4
v -6 9 -4
v -5 6 -4
v -5 8 -4
v -2 3 -4
v -2 5 -4
v -1 2 -4
v -1 6 -4
v -1 8 -4
v -1 9 -4
v 1 2 -4
v 1 3 -4
v 1 8 -4
v 1 9 -4
v 3 3 -4
v 3 8 -4
v 4 3 -4
v 4 8 -4
v 6 2 -4
v 6 3 -4
v 6 8 -4
v 6 9 -4
v 8 2 -4
v 8 9 -4
v 9 2 -4
v 9 7 -4
v 10 3 -4
v 10 7 -4
v 10 8 -4
v 10 9 -4
v 11 2 -4
v 11 3 -4
v 11 4 -4
v 11 8 -4
v 12 4 -4
v 12 9 -4
v 13 2 -4
v 13 9 -4
v 15 2 -4
v 15 9 -4
v 16 3 -4
v 16 8 -4
v 19 3 -4
v 19 8 -4
v 20 2 -4
v 20 9 -4
v 21 1 -4
v 21 10 -4
v -21 1 -5
v -21 10 -5
v 21 1 -5
v 21 10 -5
v -21 1 -4
v 21 1 -4
v -21 1 -5
v 21 1 -5
v -20 2 -3
v -15 2 -3
v -13 2 -3
v -12 2 -3
v -9 2 -3
v -8 2 -3
v -6 2 -3
v -1 2 -3
v 1 2 -3
v 6 2 -3
v 8 2 -3
v 9 2 -3
v 11 2 -3
v 13 2 -3
v 15 2 -3
v 20 2 -3
v -20 2 -4
v -15 2 -4
v -13 2 -4
v -12 2 -4
v -9 2 -4
v -8 2 -4
v -6 2 -4
v -1 2 -4
v 1 2 -4
v 6 2 -4
v 8 2 -4
v 9 2 -4
v 11 2 -4
v 13 2 -4
v 15 2 -4
v 20 2 -4
v 10 3 -3
v 11 3 -3
v 10 3 -4
v 11 3 -4
v -12 5 -3
v -9 5 -3
v -6 5 -3
v -2 5 -3
v -12 5 -4
v -9 5 -4
v -6 5 -4
v -2 5 -4
v 9 7 -3
v 10 7 -3
v 9 7 -4
v 10 7 -4
v -19 8 -3
v -15 8 -3
v -12 8 -3
v -9 8 -3
v -5 8 -3
v -1 8 -3
v 1 8 -3
v 3 8 -3
v 4 8 -3
v 6 8 -3
v 16 8 -3
v 19 8 -3
v -19 8 -4
v -15 8 -4
v -12 8 -4
v -9 8 -4
v -5 8 -4
v -1 8 -4
v 1 8 -4
v 3 8 -4
v 4 8 -4
v 6 8 -4
v 16 8 -4
v 19 8 -4
v -19 3 -3
v -15 3 -3
v -6 3 -3
v -2 3 -3
v 1 3 -3
v 3 3 -3
v 4 3 -3
v 6 3 -3
v 16 3 -3
v 19 3 -3
v -19 3 -4
v -15 3 -4
v -6 3 -4
v -2 3 -4
v 1 3 -4
v 3 3 -4
v 4 3 -4
v 6 3 -4
v 16 3 -4
v 19 3 -4
v 11 4 -3
v 12 4 -3
v 11 4 -4
v 12 4 -4
v -12 6 -3
v -9 6 -3
v -5 6 -3
v -1 6 -3
v -12 6 -4
v -9 6 -4
v -5 6 -4
v -1 6 -4
v 10 8 -3
v 11 8 -3
v 10 8 -4
v 11 8 -4
v -20 9 -3
v -15 9 -3
v -13 9 -3
v -8 9 -3
v -6 9 -3
v -1 9 -3
v 1 9 -3
v 6 9 -3
v 8 9 -3
v 10 9 -3
v 12 9 -3
v 13 9 -3
v 15 9 -3
v 20 9 -3
v -20 9 -4
v -15 9 -4
v -13 9 -4
v -8 9 -4
v -6 9 -4
v -1 9 -4
v 1 9 -4
v 6 9 -4
v 8 9 -4
v 10 9 -4
v 12 9 -4
v 13 9 -4
v 15 9 -4
v 20 9 -4
v -21 10 -4
v 21 10 -4
v -21 10 -5
v 21 10 -5

# faces
f 3/2/1 2/2/1 1/2/1
f 4/2/1 2/2/1 3/2/1
f 7/1/1 6/1/1 5/1/1
f 8/1/1 6/1/1 7/1/1
f 11/1/1 10/1/1 9/1/1
f 12/1/1 10/1/1 11/1/1
f 15/1/1 14/1/1 13/1/1
f 16/1/1 14/1/1 15/1/1
f 19/1/1 18/1/1 17/1/1
f 20/1/1 18/1/1 19/1/1
f 23/1/1 22/1/1 21/1/1
f 24/1/1 22/1/1 23/1/1
f 27/1/1 26/1/1 25/1/1
f 28/1/1 26/1/1 27/1/1
f 31/1/1 30/1/1 29/1/1
f 32/1/1 30/1/1 31/1/1
f 35/1/1 34/1/1 33/1/1
f 36/1/1 34/1/1 35/1/1
f 39/1/1 38/1/1 37/1/1
f 40/1/1 38/1/1 39/1/1
f 43/1/1 42/1/1 41/1/1
f 44/1/1 42/1/1 43/1/1
f 47/1/1 46/1/1 45/1/1
f 48/1/1 46/1/1 47/1/1
f 51/1/1 50/1/1 49/1/1
f 52/1/1 50/1/1 51/1/1
f 55/1/1 54/1/1 53/1/1
f 56/1/1 54/1/1 55/1/1
f 59/1/1 58/1/1 57/1/1
f 60/1/1 58/1/1 59/1/1
f 63/1/1 62/1/1 61/1/1
f 64/1/1 62/1/1 63/1/1
f 67/1/1 66/1/1 65/1/1
f 68/1/1 66/1/1 67/1/1
f 69/1/2 70/1/2 71/1/2
f 71/1/2 70/1/2 72/1/2
f 73/1/2 74/1/2 75/1/2
f 75/1/2 74/1/2 76/1/2
f 77/1/2 78/1/2 79/1/2
f 79/1/2 78/1/2 80/1/2
f 81/1/2 82/1/2 83/1/2
f 83/1/2 82/1/2 84/1/2
f 85/1/2 86/1/2 87/1/2
f 87/1/2 86/1/2 88/1/2
f 89/1/2 90/1/2 91/1/2
f 91/1/2 90/1/2 92/1/2
f 93/1/2 94/1/2 95/1/2
f 95/1/2 94/1/2 96/1/2
f 97/1/2 98/1/2 99/1/2
f 99/1/2 98/1/2 100/1/2
f 101/1/2 102/1/2 103/1/2
f 103/1/2 102/1/2 104/1/2
f 105/1/2 106/1/2 107/1/2
f 107/1/2 106/1/2 108/1/2
f 109/1/2 110/1/2 111/1/2
f 111/1/2 110/1/2 112/1/2
f 113/1/2 114/1/2 115/1/2
f 115/1/2 114/1/2 116/1/2
f 117/1/2 118/1/2 119/1/2
f 119/1/2 118/1/2 120/1/2
f 121/1/2 122/1/2 123/1/2
f 123/1/2 122/1/2 124/1/2
f 125/1/2 126/1/2 127/1/2
f 127/1/2 126/1/2 128/1/2
f 129/1/2 130/1/2 131/1/2
f 131/1/2 130/1/2 132/1/2
f 133/1/2 134/1/2 135/1/2
f 135/1/2 134/1/2 136/1/2
f 137/1/2 138/1/2 139/1/2
f 139/1/2 138/1/2 140/1/2
f 141/2/2 142/2/2 143/2/2
f 143/2/2 142/2/2 144/2/2
f 147/1/3 146/1/3 145/1/3
f 148/1/3 146/1/3 147/1/3
f 149/1/3 147/1/3 145/1/3
f 150/1/3 147/1/3 149/1/3
f 151/1/3 146/1/3 148/1/3
f 152/1/3 146/1/3 151/1/3
f 155/1/3 154/1/3 153/1/3
f 156/1/3 154/1/3 155/1/3
f 157/1/3 154/1/3 156/1/3
f 158/1/3 154/1/3 157/1/3
f 160/1/3 157/1/3 156/1/3
f 161/1/3 157/1/3 160/1/3
f 162/1/3 154/1/3 158/1/3
f 163/1/3 161/1/3 160/1/3
f 163/1/3 162/1/3 161/1/3
f 163/1/3 160/1/3 159/1/3
f 164/1/3 154/1/3 162/1/3
f 164/1/3 162/1/3 163/1/3
f 169/1/3 168/1/3 167/1/3
f 170/1/3 168/1/3 169/1/3
f 171/1/3 166/1/3 165/1/3
f 172/1/3 169/1/3 167/1/3
f 173/1/3 171/1/3 165/1/3
f 173/1/3 172/1/3 171/1/3
f 174/1/3 169/1/3 172/1/3
f 174/1/3 172/1/3 173/1/3
f 175/1/3 168/1/3 170/1/3
f 176/1/3 168/1/3 175/1/3
f 181/1/3 178/1/3 177/1/3
f 182/1/3 180/1/3 179/1/3
f 183/1/3 181/1/3 177/1/3
f 183/1/3 182/1/3 181/1/3
f 184/1/3 180/1/3 182/1/3
f 184/1/3 182/1/3 183/1/3
f 185/1/3 183/1/3 177/1/3
f 186/1/3 183/1/3 185/1/3
f 187/1/3 180/1/3 184/1/3
f 188/1/3 180/1/3 187/1/3
f 191/1/3 190/1/3 189/1/3
f 192/1/3 190/1/3 191/1/3
f 194/1/3 190/1/3 192/1/3
f 195/1/3 190/1/3 194/1/3
f 196/1/3 190/1/3 195/1/3
f 198/1/3 194/1/3 193/1/3
f 198/1/3 195/1/3 194/1/3
f 199/1/3 195/1/3 198/1/3
f 200/1/3 195/1/3 199/1/3
f 201/1/3 198/1/3 197/1/3
f 201/1/3 199/1/3 198/1/3
f 203/1/3 201/1/3 197/1/3
f 203/1/3 202/1/3 201/1/3
f 204/1/3 202/1/3 203/1/3
f 207/1/3 206/1/3 205/1/3
f 208/1/3 206/1/3 207/1/3
f 209/1/3 207/1/3 205/1/3
f 210/1/3 206/1/3 208/1/3
f 211/1/3 209/1/3 205/1/3
f 211/1/3 210/1/3 209/1/3
f 212/1/3 206/1/3 210/1/3
f 212/1/3 210/1/3 211/1/3
f 215/2/3 214/2/3 213/2/3
f 216/2/3 214/2/3 215/2/3
f 219/2/3 215/2/3 213/2/3
f 220/2/3 218/2/3 217/2/3
f 221/2/3 218/2/3 220/2/3
f 222/2/3 214/2/3 216/2/3
f 223/2/3 219/2/3 213/2/3
f 223/2/3 222/2/3 221/2/3
f 223/2/3 221/2/3 220/2/3
f 223/2/3 220/2/3 219/2/3
f 224/2/3 214/2/3 222/2/3
f 224/2/3 222/2/3 223/2/3
f 225/2/3 223/2/3 213/2/3
f 229/2/3 225/2/3 213/2/3
f 229/2/3 226/2/3 225/2/3
f 230/2/3 226/2/3 229/2/3
f 231/2/3 228/2/3 227/2/3
f 232/2/3 228/2/3 231/2/3
f 233/2/3 229/2/3 213/2/3
f 234/2/3 214/2/3 224/2/3
f 235/2/3 233/2/3 213/2/3
f 235/2/3 234/2/3 233/2/3
f 236/2/3 234/2/3 235/2/3
f 237/2/3 234/2/3 236/2/3
f 238/2/3 214/2/3 234/2/3
f 238/2/3 234/2/3 237/2/3
f 241/2/3 237/2/3 236/2/3
f 242/2/3 237/2/3 241/2/3
f 243/2/3 235/2/3 213/2/3
f 244/2/3 240/2/3 239/2/3
f 245/2/3 240/2/3 244/2/3
f 246/2/3 214/2/3 238/2/3
f 247/2/3 243/2/3 213/2/3
f 247/2/3 246/2/3 245/2/3
f 247/2/3 245/2/3 244/2/3
f 247/2/3 244/2/3 243/2/3
f 248/2/3 246/2/3 247/2/3
f 249/2/3 246/2/3 248/2/3
f 250/2/3 214/2/3 246/2/3
f 250/2/3 246/2/3 249/2/3
f 251/2/3 249/2/3 248/2/3
f 252/2/3 249/2/3 251/2/3
f 255/2/3 247/2/3 213/2/3
f 256/2/3 254/2/3 253/2/3
f 257/2/3 254/2/3 256/2/3
f 258/2/3 214/2/3 250/2/3
f 259/2/3 257/2/3 256/2/3
f 259/2/3 258/2/3 257/2/3
f 259/2/3 255/2/3 213/2/3
f 259/2/3 256/2/3 255/2/3
f 260/2/3 214/2/3 258/2/3
f 260/2/3 258/2/3 259/2/3
f 261/2/3 259/2/3 213/2/3
f 263/2/3 262/2/3 261/2/3
f 264/2/3 262/2/3 263/2/3
f 266/2/3 214/2/3 260/2/3
f 267/2/3 261/2/3 213/2/3
f 267/2/3 263/2/3 261/2/3
f 268/2/3 263/2/3 267/2/3
f 270/2/3 266/2/3 265/2/3
f 271/2/3 270/2/3 269/2/3
f 272/2/3 266/2/3 270/2/3
f 272/2/3 270/2/3 271/2/3
f 272/2/3 214/2/3 266/2/3
f 273/2/3 267/2/3 213/2/3
f 274/2/3 214/2/3 272/2/3
f 275/2/3 273/2/3 213/2/3
f 275/2/3 274/2/3 273/2/3
f 276/2/3 214/2/3 274/2/3
f 276/2/3 274/2/3 275/2/3
f 279/2/3 278/2/3 277/2/3
f 280/2/3 278/2/3 279/2/3
f 281/2/3 275/2/3 213/2/3
f 282/2/3 214/2/3 276/2/3
f 283/2/3 281/2/3 213/2/3
f 283/2/3 282/2/3 281/2/3
f 284/2/3 214/2/3 282/2/3
f 284/2/3 282/2/3 283/2/3
f 285/2/4 286/2/4 287/2/4
f 287/2/4 286/2/4 288/2/4
f 291/2/5 290/2/5 289/2/5
f 292/2/5 290/2/5 291/2/5
f 309/1/5 294/1/5 293/1/5
f 310/1/5 294/1/5 309/1/5
f 311/1/5 296/1/5 295/1/5
f 312/1/5 296/1/5 311/1/5
f 313/1/5 298/1/5 297/1/5
f 314/1/5 298/1/5 313/1/5
f 315/1/5 300/1/5 299/1/5
f 316/1/5 300/1/5 315/1/5
f 317/1/5 302/1/5 301/1/5
f 318/1/5 302/1/5 317/1/5
f 319/1/5 304/1/5 303/1/5
f 320/1/5 304/1/5 319/1/5
f 321/1/5 306/1/5 305/1/5
f 322/1/5 306/1/5 321/1/5
f 323/1/5 308/1/5 307/1/5
f 324/1/5 308/1/5 323/1/5
f 327/1/5 326/1/5 325/1/5
f 328/1/5 326/1/5 327/1/5
f 333/1/5 330/1/5 329/1/5
f 334/1/5 330/1/5 333/1/5
f 335/1/5 332/1/5 331/1/5
f 336/1/5 332/1/5 335/1/5
f 339/1/5 338/1/5 337/1/5
f 340/1/5 338/1/5 339/1/5
f 353/1/5 342/1/5 341/1/5
f 354/1/5 342/1/5 353/1/5
f 355/1/5 344/1/5 343/1/5
f 356/1/5 344/1/5 355/1/5
f 357/1/5 346/1/5 345/1/5
f 358/1/5 346/1/5 357/1/5
f 359/1/5 348/1/5 347/1/5
f 360/1/5 348/1/5 359/1/5
f 361/1/5 350/1/5 349/1/5
f 362/1/5 350/1/5 361/1/5
f 363/1/5 352/1/5 351/1/5
f 364/1/5 352/1/5 363/1/5
f 365/1/6 366/1/6 375/1/6
f 375/1/6 366/1/6 376/1/6
f 367/1/6 368/1/6 377/1/6
f 377/1/6 368/1/6 378/1/6
f 369/1/6 370/1/6 379/1/6
f 379/1/6 370/1/6 380/1/6
f 371/1/6 372/1/6 381/1/6
f 381/1/6 372/1/6 382/1/6
f 373/1/6 374/1/6 383/1/6
f 383/1/6 374/1/6 384/1/6
f 385/1/6 386/1/6 387/1/6
f 387/1/6 386/1/6 388/1/6
f 389/1/6 390/1/6 393/1/6
f 393/1/6 390/1/6 394/1/6
f 391/1/6 392/1/6 395/1/6
f 395/1/6 392/1/6 396/1/6
f 397/1/6 398/1/6 399/1/6
f 399/1/6 398/1/6 400/1/6
f 401/1/6 402/1/6 415/1/6
f 415/1/6 402/1/6 416/1/6
f 403/1/6 404/1/6 417/1/6
f 417/1/6 404/1/6 418/1/6
f 405/1/6 406/1/6 419/1/6
f 419/1/6 406/1/6 420/1/6
f 407/1/6 408/1/6 421/1/6
f 421/1/6 408/1/6 422/1/6
f 409/1/6 410/1/6 423/1/6
f 423/1/6 410/1/6 424/1/6
f 411/1/6 412/1/6 425/1/6
f 425/1/6 412/1/6 426/1/6
f 413/1/6 414/1/6 427/1/6
f 427/1/6 414/1/6 428/1/6
f 429/2/6 430/2/6 431/2/6
f 431/2/6 430/2/6 432/2/6
