# MagicaVoxel @ Ephtracy

# material
mtllib Apartment2.mtl
usemtl palette

# normals
vn -1 0 0
vn 1 0 0
vn 0 0 1
vn 0 0 -1
vn 0 -1 0
vn 0 1 0

# texcoords
vt 0.451172 0.5
vt 0.537109 0.5
vt 0.966797 0.5
vt 0.978516 0.5
vt 0.982422 0.5

# verts
v -10 0 10
v -10 0 -10
v -10 1 8
v -10 1 6
v -10 1 2
v -10 1 -2
v -10 1 -6
v -10 1 -8
v -10 3 10
v -10 3 8
v -10 3 6
v -10 3 2
v -10 3 -2
v -10 3 -6
v -10 3 -8
v -10 3 -10
v -10 7 8
v -10 7 6
v -10 7 2
v -10 7 -2
v -10 7 -6
v -10 7 -8
v -10 8 10
v -10 8 -10
v -10 9 10
v -10 9 -10
v -10 10 8
v -10 10 6
v -10 10 2
v -10 10 -2
v -10 10 -6
v -10 10 -8
v -10 12 10
v -10 12 8
v -10 12 6
v -10 12 2
v -10 12 -2
v -10 12 -6
v -10 12 -8
v -10 12 -10
v -10 16 8
v -10 16 6
v -10 16 2
v -10 16 -2
v -10 16 -6
v -10 16 -8
v -10 17 10
v -10 17 -10
v -10 18 10
v -10 18 -10
v -10 19 8
v -10 19 6
v -10 19 2
v -10 19 -2
v -10 19 -6
v -10 19 -8
v -10 21 10
v -10 21 8
v -10 21 6
v -10 21 2
v -10 21 -2
v -10 21 -6
v -10 21 -8
v -10 21 -10
v -10 25 8
v -10 25 6
v -10 25 2
v -10 25 -2
v -10 25 -6
v -10 25 -8
v -10 26 10
v -10 26 -10
v -10 27 10
v -10 27 -10
v 4 1 9
v 4 1 7
v 4 3 10
v 4 3 9
v 4 7 10
v 4 7 7
v 4 10 9
v 4 10 7
v 4 12 10
v 4 12 9
v 4 16 10
v 4 16 7
v 4 19 9
v 4 19 6
v 4 21 10
v 4 21 9
v 4 25 10
v 4 25 6
v 0 1 9
v 0 1 7
v 0 3 10
v 0 3 9
v 0 7 10
v 0 7 7
v 0 10 9
v 0 10 7
v 0 12 10
v 0 12 9
v 0 16 10
v 0 16 7
v 0 19 9
v 0 19 6
v 0 21 10
v 0 21 9
v 0 25 10
v 0 25 6
v 10 0 10
v 10 0 -10
v 10 1 8
v 10 1 6
v 10 1 2
v 10 1 -2
v 10 1 -6
v 10 1 -8
v 10 3 10
v 10 3 8
v 10 3 6
v 10 3 2
v 10 3 -2
v 10 3 -6
v 10 3 -8
v 10 3 -10
v 10 7 8
v 10 7 6
v 10 7 2
v 10 7 -2
v 10 7 -6
v 10 7 -8
v 10 8 10
v 10 8 -10
v 10 9 10
v 10 9 -10
v 10 10 8
v 10 10 6
v 10 10 2
v 10 10 -2
v 10 10 -6
v 10 10 -8
v 10 12 10
v 10 12 8
v 10 12 6
v 10 12 2
v 10 12 -2
v 10 12 -6
v 10 12 -8
v 10 12 -10
v 10 16 8
v 10 16 6
v 10 16 2
v 10 16 -2
v 10 16 -6
v 10 16 -8
v 10 17 10
v 10 17 -10
v 10 18 10
v 10 18 -10
v 10 19 8
v 10 19 6
v 10 19 2
v 10 19 -2
v 10 19 -6
v 10 19 -8
v 10 21 10
v 10 21 8
v 10 21 6
v 10 21 2
v 10 21 -2
v 10 21 -6
v 10 21 -8
v 10 21 -10
v 10 25 8
v 10 25 6
v 10 25 2
v 10 25 -2
v 10 25 -6
v 10 25 -8
v 10 26 10
v 10 26 -10
v 10 27 10
v 10 27 -10
v -10 0 10
v -10 3 10
v -10 8 10
v -10 9 10
v -10 12 10
v -10 17 10
v -10 18 10
v -10 21 10
v -10 26 10
v -10 27 10
v -8 0 10
v -8 2 10
v -8 3 10
v -8 5 10
v -8 10 10
v -8 12 10
v -8 16 10
v -8 19 10
v -8 21 10
v -8 25 10
v -7 2 10
v -7 3 10
v -5 0 10
v -5 3 10
v -5 5 10
v -5 10 10
v -5 12 10
v -5 16 10
v -5 19 10
v -5 21 10
v -5 25 10
v 0 3 10
v 0 7 10
v 0 12 10
v 0 16 10
v 0 21 10
v 0 25 10
v 4 3 10
v 4 7 10
v 4 12 10
v 4 16 10
v 4 21 10
v 4 25 10
v 10 0 10
v 10 3 10
v 10 8 10
v 10 9 10
v 10 12 10
v 10 17 10
v 10 18 10
v 10 21 10
v 10 26 10
v 10 27 10
v 0 1 7
v 0 7 7
v 0 10 7
v 0 16 7
v 1 1 7
v 1 5 7
v 1 10 7
v 1 14 7
v 3 1 7
v 3 5 7
v 3 10 7
v 3 14 7
v 4 1 7
v 4 7 7
v 4 10 7
v 4 16 7
v 0 19 6
v 0 25 6
v 1 19 6
v 1 23 6
v 3 19 6
v 3 23 6
v 4 19 6
v 4 25 6
v 0 1 9
v 0 3 9
v 0 10 9
v 0 12 9
v 0 19 9
v 0 21 9
v 4 1 9
v 4 3 9
v 4 10 9
v 4 12 9
v 4 19 9
v 4 21 9
v -10 0 -10
v -10 3 -10
v -10 8 -10
v -10 9 -10
v -10 12 -10
v -10 17 -10
v -10 18 -10
v -10 21 -10
v -10 26 -10
v -10 27 -10
v 10 0 -10
v 10 3 -10
v 10 8 -10
v 10 9 -10
v 10 12 -10
v 10 17 -10
v 10 18 -10
v 10 21 -10
v 10 26 -10
v 10 27 -10
v -10 0 10
v -8 0 10
v -5 0 10
v 10 0 10
v -9 0 9
v -8 0 9
v -5 0 9
v 9 0 9
v -9 0 -9
v 9 0 -9
v -10 0 -10
v 10 0 -10
v 0 7 10
v 4 7 10
v 0 7 7
v 4 7 7
v 0 16 10
v 4 16 10
v 0 16 7
v 4 16 7
v 0 25 10
v 4 25 10
v 0 25 6
v 4 25 6
v 0 1 9
v 4 1 9
v 0 1 7
v 1 1 7
v 3 1 7
v 4 1 7
v 0 3 10
v 4 3 10
v 0 3 9
v 4 3 9
v 0 10 9
v 4 10 9
v 0 10 7
v 1 10 7
v 3 10 7
v 4 10 7
v 0 12 10
v 4 12 10
v 0 12 9
v 4 12 9
v 0 19 9
v 4 19 9
v 0 19 6
v 1 19 6
v 3 19 6
v 4 19 6
v 0 21 10
v 4 21 10
v 0 21 9
v 4 21 9
v -10 27 10
v 10 27 10
v -10 27 -10
v 10 27 -10

# faces
f 3/3/1 2/3/1 1/3/1
f 4/3/1 2/3/1 3/3/1
f 5/3/1 2/3/1 4/3/1
f 6/3/1 2/3/1 5/3/1
f 7/3/1 2/3/1 6/3/1
f 8/3/1 2/3/1 7/3/1
f 9/3/1 3/3/1 1/3/1
f 10/1/1 4/1/1 3/1/1
f 10/3/1 3/3/1 9/3/1
f 11/3/1 5/3/1 4/3/1
f 11/1/1 4/1/1 10/1/1
f 12/1/1 6/1/1 5/1/1
f 12/3/1 5/3/1 11/3/1
f 13/3/1 7/3/1 6/3/1
f 13/1/1 6/1/1 12/1/1
f 14/1/1 8/1/1 7/1/1
f 14/3/1 7/3/1 13/3/1
f 15/3/1 2/3/1 8/3/1
f 15/1/1 8/1/1 14/1/1
f 16/3/1 2/3/1 15/3/1
f 17/5/1 10/5/1 9/5/1
f 17/1/1 11/1/1 10/1/1
f 18/5/1 12/5/1 11/5/1
f 18/1/1 11/1/1 17/1/1
f 19/1/1 13/1/1 12/1/1
f 19/5/1 12/5/1 18/5/1
f 20/5/1 14/5/1 13/5/1
f 20/1/1 13/1/1 19/1/1
f 21/1/1 15/1/1 14/1/1
f 21/5/1 14/5/1 20/5/1
f 22/5/1 16/5/1 15/5/1
f 22/1/1 15/1/1 21/1/1
f 23/5/1 19/5/1 18/5/1
f 23/5/1 21/5/1 20/5/1
f 23/5/1 22/5/1 21/5/1
f 23/5/1 20/5/1 19/5/1
f 23/5/1 18/5/1 17/5/1
f 23/5/1 17/5/1 9/5/1
f 24/5/1 16/5/1 22/5/1
f 24/5/1 22/5/1 23/5/1
f 25/4/1 24/4/1 23/4/1
f 26/4/1 24/4/1 25/4/1
f 27/3/1 26/3/1 25/3/1
f 28/3/1 26/3/1 27/3/1
f 29/3/1 26/3/1 28/3/1
f 30/3/1 26/3/1 29/3/1
f 31/3/1 26/3/1 30/3/1
f 32/3/1 26/3/1 31/3/1
f 33/3/1 27/3/1 25/3/1
f 34/1/1 28/1/1 27/1/1
f 34/3/1 27/3/1 33/3/1
f 35/3/1 29/3/1 28/3/1
f 35/1/1 28/1/1 34/1/1
f 36/1/1 30/1/1 29/1/1
f 36/3/1 29/3/1 35/3/1
f 37/3/1 31/3/1 30/3/1
f 37/1/1 30/1/1 36/1/1
f 38/1/1 32/1/1 31/1/1
f 38/3/1 31/3/1 37/3/1
f 39/3/1 26/3/1 32/3/1
f 39/1/1 32/1/1 38/1/1
f 40/3/1 26/3/1 39/3/1
f 41/5/1 34/5/1 33/5/1
f 41/1/1 35/1/1 34/1/1
f 42/5/1 36/5/1 35/5/1
f 42/1/1 35/1/1 41/1/1
f 43/1/1 37/1/1 36/1/1
f 43/5/1 36/5/1 42/5/1
f 44/5/1 38/5/1 37/5/1
f 44/1/1 37/1/1 43/1/1
f 45/1/1 39/1/1 38/1/1
f 45/5/1 38/5/1 44/5/1
f 46/5/1 40/5/1 39/5/1
f 46/1/1 39/1/1 45/1/1
f 47/5/1 43/5/1 42/5/1
f 47/5/1 45/5/1 44/5/1
f 47/5/1 46/5/1 45/5/1
f 47/5/1 44/5/1 43/5/1
f 47/5/1 42/5/1 41/5/1
f 47/5/1 41/5/1 33/5/1
f 48/5/1 40/5/1 46/5/1
f 48/5/1 46/5/1 47/5/1
f 49/4/1 48/4/1 47/4/1
f 50/4/1 48/4/1 49/4/1
f 51/3/1 50/3/1 49/3/1
f 52/3/1 50/3/1 51/3/1
f 53/3/1 50/3/1 52/3/1
f 54/3/1 50/3/1 53/3/1
f 55/3/1 50/3/1 54/3/1
f 56/3/1 50/3/1 55/3/1
f 57/3/1 51/3/1 49/3/1
f 58/1/1 52/1/1 51/1/1
f 58/3/1 51/3/1 57/3/1
f 59/3/1 53/3/1 52/3/1
f 59/1/1 52/1/1 58/1/1
f 60/1/1 54/1/1 53/1/1
f 60/3/1 53/3/1 59/3/1
f 61/3/1 55/3/1 54/3/1
f 61/1/1 54/1/1 60/1/1
f 62/1/1 56/1/1 55/1/1
f 62/3/1 55/3/1 61/3/1
f 63/3/1 50/3/1 56/3/1
f 63/1/1 56/1/1 62/1/1
f 64/3/1 50/3/1 63/3/1
f 65/5/1 58/5/1 57/5/1
f 65/1/1 59/1/1 58/1/1
f 66/5/1 60/5/1 59/5/1
f 66/1/1 59/1/1 65/1/1
f 67/1/1 61/1/1 60/1/1
f 67/5/1 60/5/1 66/5/1
f 68/5/1 62/5/1 61/5/1
f 68/1/1 61/1/1 67/1/1
f 69/1/1 63/1/1 62/1/1
f 69/5/1 62/5/1 68/5/1
f 70/5/1 64/5/1 63/5/1
f 70/1/1 63/1/1 69/1/1
f 71/5/1 67/5/1 66/5/1
f 71/5/1 69/5/1 68/5/1
f 71/5/1 70/5/1 69/5/1
f 71/5/1 68/5/1 67/5/1
f 71/5/1 66/5/1 65/5/1
f 71/5/1 65/5/1 57/5/1
f 72/5/1 64/5/1 70/5/1
f 72/5/1 70/5/1 71/5/1
f 73/4/1 72/4/1 71/4/1
f 74/4/1 72/4/1 73/4/1
f 78/5/1 76/5/1 75/5/1
f 79/5/1 78/5/1 77/5/1
f 80/5/1 76/5/1 78/5/1
f 80/5/1 78/5/1 79/5/1
f 84/5/1 82/5/1 81/5/1
f 85/5/1 84/5/1 83/5/1
f 86/5/1 82/5/1 84/5/1
f 86/5/1 84/5/1 85/5/1
f 90/5/1 88/5/1 87/5/1
f 91/5/1 90/5/1 89/5/1
f 92/5/1 88/5/1 90/5/1
f 92/5/1 90/5/1 91/5/1
f 93/5/2 94/5/2 96/5/2
f 95/5/2 96/5/2 97/5/2
f 96/5/2 94/5/2 98/5/2
f 97/5/2 96/5/2 98/5/2
f 99/5/2 100/5/2 102/5/2
f 101/5/2 102/5/2 103/5/2
f 102/5/2 100/5/2 104/5/2
f 103/5/2 102/5/2 104/5/2
f 105/5/2 106/5/2 108/5/2
f 107/5/2 108/5/2 109/5/2
f 108/5/2 106/5/2 110/5/2
f 109/5/2 108/5/2 110/5/2
f 111/3/2 112/3/2 113/3/2
f 113/3/2 112/3/2 114/3/2
f 114/3/2 112/3/2 115/3/2
f 115/3/2 112/3/2 116/3/2
f 116/3/2 112/3/2 117/3/2
f 117/3/2 112/3/2 118/3/2
f 111/3/2 113/3/2 119/3/2
f 113/1/2 114/1/2 120/1/2
f 119/3/2 113/3/2 120/3/2
f 114/3/2 115/3/2 121/3/2
f 120/1/2 114/1/2 121/1/2
f 115/1/2 116/1/2 122/1/2
f 121/3/2 115/3/2 122/3/2
f 116/3/2 117/3/2 123/3/2
f 122/1/2 116/1/2 123/1/2
f 117/1/2 118/1/2 124/1/2
f 123/3/2 117/3/2 124/3/2
f 118/3/2 112/3/2 125/3/2
f 124/1/2 118/1/2 125/1/2
f 125/3/2 112/3/2 126/3/2
f 119/5/2 120/5/2 127/5/2
f 120/1/2 121/1/2 127/1/2
f 121/5/2 122/5/2 128/5/2
f 127/1/2 121/1/2 128/1/2
f 122/1/2 123/1/2 129/1/2
f 128/5/2 122/5/2 129/5/2
f 123/5/2 124/5/2 130/5/2
f 129/1/2 123/1/2 130/1/2
f 124/1/2 125/1/2 131/1/2
f 130/5/2 124/5/2 131/5/2
f 125/5/2 126/5/2 132/5/2
f 131/1/2 125/1/2 132/1/2
f 128/5/2 129/5/2 133/5/2
f 130/5/2 131/5/2 133/5/2
f 131/5/2 132/5/2 133/5/2
f 129/5/2 130/5/2 133/5/2
f 127/5/2 128/5/2 133/5/2
f 119/5/2 127/5/2 133/5/2
f 132/5/2 126/5/2 134/5/2
f 133/5/2 132/5/2 134/5/2
f 133/4/2 134/4/2 135/4/2
f 135/4/2 134/4/2 136/4/2
f 135/3/2 136/3/2 137/3/2
f 137/3/2 136/3/2 138/3/2
f 138/3/2 136/3/2 139/3/2
f 139/3/2 136/3/2 140/3/2
f 140/3/2 136/3/2 141/3/2
f 141/3/2 136/3/2 142/3/2
f 135/3/2 137/3/2 143/3/2
f 137/1/2 138/1/2 144/1/2
f 143/3/2 137/3/2 144/3/2
f 138/3/2 139/3/2 145/3/2
f 144/1/2 138/1/2 145/1/2
f 139/1/2 140/1/2 146/1/2
f 145/3/2 139/3/2 146/3/2
f 140/3/2 141/3/2 147/3/2
f 146/1/2 140/1/2 147/1/2
f 141/1/2 142/1/2 148/1/2
f 147/3/2 141/3/2 148/3/2
f 142/3/2 136/3/2 149/3/2
f 148/1/2 142/1/2 149/1/2
f 149/3/2 136/3/2 150/3/2
f 143/5/2 144/5/2 151/5/2
f 144/1/2 145/1/2 151/1/2
f 145/5/2 146/5/2 152/5/2
f 151/1/2 145/1/2 152/1/2
f 146/1/2 147/1/2 153/1/2
f 152/5/2 146/5/2 153/5/2
f 147/5/2 148/5/2 154/5/2
f 153/1/2 147/1/2 154/1/2
f 148/1/2 149/1/2 155/1/2
f 154/5/2 148/5/2 155/5/2
f 149/5/2 150/5/2 156/5/2
f 155/1/2 149/1/2 156/1/2
f 152/5/2 153/5/2 157/5/2
f 154/5/2 155/5/2 157/5/2
f 155/5/2 156/5/2 157/5/2
f 153/5/2 154/5/2 157/5/2
f 151/5/2 152/5/2 157/5/2
f 143/5/2 151/5/2 157/5/2
f 156/5/2 150/5/2 158/5/2
f 157/5/2 156/5/2 158/5/2
f 157/4/2 158/4/2 159/4/2
f 159/4/2 158/4/2 160/4/2
f 159/3/2 160/3/2 161/3/2
f 161/3/2 160/3/2 162/3/2
f 162/3/2 160/3/2 163/3/2
f 163/3/2 160/3/2 164/3/2
f 164/3/2 160/3/2 165/3/2
f 165/3/2 160/3/2 166/3/2
f 159/3/2 161/3/2 167/3/2
f 161/1/2 162/1/2 168/1/2
f 167/3/2 161/3/2 168/3/2
f 162/3/2 163/3/2 169/3/2
f 168/1/2 162/1/2 169/1/2
f 163/1/2 164/1/2 170/1/2
f 169/3/2 163/3/2 170/3/2
f 164/3/2 165/3/2 171/3/2
f 170/1/2 164/1/2 171/1/2
f 165/1/2 166/1/2 172/1/2
f 171/3/2 165/3/2 172/3/2
f 166/3/2 160/3/2 173/3/2
f 172/1/2 166/1/2 173/1/2
f 173/3/2 160/3/2 174/3/2
f 167/5/2 168/5/2 175/5/2
f 168/1/2 169/1/2 175/1/2
f 169/5/2 170/5/2 176/5/2
f 175/1/2 169/1/2 176/1/2
f 170/1/2 171/1/2 177/1/2
f 176/5/2 170/5/2 177/5/2
f 171/5/2 172/5/2 178/5/2
f 177/1/2 171/1/2 178/1/2
f 172/1/2 173/1/2 179/1/2
f 178/5/2 172/5/2 179/5/2
f 173/5/2 174/5/2 180/5/2
f 179/1/2 173/1/2 180/1/2
f 176/5/2 177/5/2 181/5/2
f 178/5/2 179/5/2 181/5/2
f 179/5/2 180/5/2 181/5/2
f 177/5/2 178/5/2 181/5/2
f 175/5/2 176/5/2 181/5/2
f 167/5/2 175/5/2 181/5/2
f 180/5/2 174/5/2 182/5/2
f 181/5/2 180/5/2 182/5/2
f 181/4/2 182/4/2 183/4/2
f 183/4/2 182/4/2 184/4/2
f 195/3/3 186/3/3 185/3/3
f 196/3/3 186/3/3 195/3/3
f 197/5/3 187/5/3 186/5/3
f 197/3/3 186/3/3 196/3/3
f 198/5/3 187/5/3 197/5/3
f 199/3/3 189/3/3 188/3/3
f 200/5/3 190/5/3 189/5/3
f 200/3/3 189/3/3 199/3/3
f 201/5/3 190/5/3 200/5/3
f 202/3/3 192/3/3 191/3/3
f 203/5/3 193/5/3 192/5/3
f 203/3/3 192/3/3 202/3/3
f 204/5/3 193/5/3 203/5/3
f 205/1/3 196/1/3 195/1/3
f 205/2/3 197/2/3 196/2/3
f 206/1/3 198/1/3 197/1/3
f 206/2/3 197/2/3 205/2/3
f 207/1/3 205/1/3 195/1/3
f 207/1/3 206/1/3 205/1/3
f 208/1/3 198/1/3 206/1/3
f 208/1/3 206/1/3 207/1/3
f 209/5/3 187/5/3 198/5/3
f 209/1/3 198/1/3 208/1/3
f 210/3/3 199/3/3 188/3/3
f 210/1/3 200/1/3 199/1/3
f 210/1/3 201/1/3 200/1/3
f 211/1/3 201/1/3 210/1/3
f 212/5/3 190/5/3 201/5/3
f 212/1/3 201/1/3 211/1/3
f 213/3/3 202/3/3 191/3/3
f 213/1/3 204/1/3 203/1/3
f 213/1/3 203/1/3 202/1/3
f 214/1/3 204/1/3 213/1/3
f 215/5/3 193/5/3 204/5/3
f 215/1/3 204/1/3 214/1/3
f 216/3/3 208/3/3 207/3/3
f 216/5/3 209/5/3 208/5/3
f 217/5/3 187/5/3 209/5/3
f 217/5/3 209/5/3 216/5/3
f 218/3/3 211/3/3 210/3/3
f 218/5/3 212/5/3 211/5/3
f 219/5/3 190/5/3 212/5/3
f 219/5/3 212/5/3 218/5/3
f 220/3/3 214/3/3 213/3/3
f 220/5/3 215/5/3 214/5/3
f 221/5/3 193/5/3 215/5/3
f 221/5/3 215/5/3 220/5/3
f 222/3/3 216/3/3 207/3/3
f 223/5/3 187/5/3 217/5/3
f 224/3/3 218/3/3 210/3/3
f 225/5/3 190/5/3 219/5/3
f 226/3/3 220/3/3 213/3/3
f 227/5/3 193/5/3 221/5/3
f 228/3/3 222/3/3 207/3/3
f 229/5/3 223/5/3 222/5/3
f 229/3/3 222/3/3 228/3/3
f 230/4/3 188/4/3 187/4/3
f 230/5/3 223/5/3 229/5/3
f 230/5/3 187/5/3 223/5/3
f 231/3/3 224/3/3 210/3/3
f 231/4/3 188/4/3 230/4/3
f 231/3/3 210/3/3 188/3/3
f 232/5/3 225/5/3 224/5/3
f 232/3/3 224/3/3 231/3/3
f 233/4/3 191/4/3 190/4/3
f 233/5/3 225/5/3 232/5/3
f 233/5/3 190/5/3 225/5/3
f 234/3/3 226/3/3 213/3/3
f 234/4/3 191/4/3 233/4/3
f 234/3/3 213/3/3 191/3/3
f 235/5/3 227/5/3 226/5/3
f 235/3/3 226/3/3 234/3/3
f 236/4/3 194/4/3 193/4/3
f 236/5/3 227/5/3 235/5/3
f 236/5/3 193/5/3 227/5/3
f 237/4/3 194/4/3 236/4/3
f 242/5/3 239/5/3 238/5/3
f 243/5/3 239/5/3 242/5/3
f 244/5/3 241/5/3 240/5/3
f 245/5/3 241/5/3 244/5/3
f 246/1/3 243/1/3 242/1/3
f 247/5/3 239/5/3 243/5/3
f 247/1/3 243/1/3 246/1/3
f 248/1/3 245/1/3 244/1/3
f 249/5/3 241/5/3 245/5/3
f 249/1/3 245/1/3 248/1/3
f 250/5/3 247/5/3 246/5/3
f 251/5/3 239/5/3 247/5/3
f 251/5/3 247/5/3 250/5/3
f 252/5/3 249/5/3 248/5/3
f 253/5/3 241/5/3 249/5/3
f 253/5/3 249/5/3 252/5/3
f 256/5/3 255/5/3 254/5/3
f 257/5/3 255/5/3 256/5/3
f 258/1/3 257/1/3 256/1/3
f 259/5/3 255/5/3 257/5/3
f 259/1/3 257/1/3 258/1/3
f 260/5/3 259/5/3 258/5/3
f 261/5/3 255/5/3 259/5/3
f 261/5/3 259/5/3 260/5/3
f 262/3/4 263/3/4 268/3/4
f 268/3/4 263/3/4 269/3/4
f 264/3/4 265/3/4 270/3/4
f 270/3/4 265/3/4 271/3/4
f 266/3/4 267/3/4 272/3/4
f 272/3/4 267/3/4 273/3/4
f 274/3/4 275/3/4 284/3/4
f 275/5/4 276/5/4 285/5/4
f 284/3/4 275/3/4 285/3/4
f 276/4/4 277/4/4 286/4/4
f 285/5/4 276/5/4 286/5/4
f 277/3/4 278/3/4 287/3/4
f 286/4/4 277/4/4 287/4/4
f 278/5/4 279/5/4 288/5/4
f 287/3/4 278/3/4 288/3/4
f 279/4/4 280/4/4 289/4/4
f 288/5/4 279/5/4 289/5/4
f 280/3/4 281/3/4 290/3/4
f 289/4/4 280/4/4 290/4/4
f 281/5/4 282/5/4 291/5/4
f 290/3/4 281/3/4 291/3/4
f 282/4/4 283/4/4 292/4/4
f 291/5/4 282/5/4 292/5/4
f 292/4/4 283/4/4 293/4/4
f 298/3/5 295/3/5 294/3/5
f 299/1/5 296/1/5 295/1/5
f 299/3/5 295/3/5 298/3/5
f 300/3/5 297/3/5 296/3/5
f 300/1/5 296/1/5 299/1/5
f 301/3/5 297/3/5 300/3/5
f 302/5/5 299/5/5 298/5/5
f 302/3/5 298/3/5 294/3/5
f 302/5/5 301/5/5 300/5/5
f 302/5/5 300/5/5 299/5/5
f 303/3/5 297/3/5 301/3/5
f 303/5/5 301/5/5 302/5/5
f 304/3/5 302/3/5 294/3/5
f 304/3/5 303/3/5 302/3/5
f 305/3/5 297/3/5 303/3/5
f 305/3/5 303/3/5 304/3/5
f 308/5/5 307/5/5 306/5/5
f 309/5/5 307/5/5 308/5/5
f 312/5/5 311/5/5 310/5/5
f 313/5/5 311/5/5 312/5/5
f 316/5/5 315/5/5 314/5/5
f 317/5/5 315/5/5 316/5/5
f 318/5/6 319/5/6 320/5/6
f 320/5/6 319/5/6 321/5/6
f 321/5/6 319/5/6 322/5/6
f 322/5/6 319/5/6 323/5/6
f 324/3/6 325/3/6 326/3/6
f 326/3/6 325/3/6 327/3/6
f 328/5/6 329/5/6 330/5/6
f 330/5/6 329/5/6 331/5/6
f 331/5/6 329/5/6 332/5/6
f 332/5/6 329/5/6 333/5/6
f 334/3/6 335/3/6 336/3/6
f 336/3/6 335/3/6 337/3/6
f 338/5/6 339/5/6 340/5/6
f 340/5/6 339/5/6 341/5/6
f 341/5/6 339/5/6 342/5/6
f 342/5/6 339/5/6 343/5/6
f 344/3/6 345/3/6 346/3/6
f 346/3/6 345/3/6 347/3/6
f 348/4/6 349/4/6 350/4/6
f 350/4/6 349/4/6 351/4/6
