# MagicaVoxel @ Ephtracy

# material
mtllib Bowling.mtl
usemtl palette

# normals
vn -1 0 0
vn 1 0 0
vn 0 0 1
vn 0 0 -1
vn 0 -1 0
vn 0 1 0

# texcoords
vt 0.451172 0.5
vt 0.533203 0.5
vt 0.802734 0.5
vt 0.849609 0.5
vt 0.962891 0.5
vt 0.974609 0.5
vt 0.982422 0.5

# verts
v -10 0 9
v -10 0 -10
v -10 2 7
v -10 2 3
v -10 2 1
v -10 2 -3
v -10 2 -5
v -10 2 -9
v -10 4 7
v -10 4 3
v -10 4 1
v -10 4 -3
v -10 4 -5
v -10 4 -9
v -10 5 7
v -10 5 3
v -10 5 1
v -10 5 -3
v -10 5 -5
v -10 5 -9
v -10 13 7
v -10 13 3
v -10 13 1
v -10 13 -3
v -10 13 -5
v -10 13 -9
v -10 16 9
v -10 16 5
v -10 16 -10
v -10 17 5
v -10 17 -10
v -8 0 10
v -8 0 9
v -8 1 10
v -8 1 9
v -8 16 6
v -8 16 5
v -8 17 6
v -8 17 5
v -7 7 10
v -7 7 9
v -7 13 10
v -7 13 9
v -7 16 10
v -7 16 9
v -7 16 7
v -7 16 6
v -7 17 10
v -7 17 9
v -7 17 7
v -7 17 6
v -7 18 10
v -7 18 9
v -6 1 10
v -6 1 9
v -6 5 10
v -6 5 9
v -6 16 10
v -6 16 9
v -6 16 7
v -6 17 10
v -6 17 9
v -6 17 7
v -6 18 10
v -6 18 9
v -6 19 10
v -6 19 9
v -5 5 10
v -5 5 9
v -5 7 10
v -5 7 9
v -5 8 10
v -5 8 9
v -5 13 10
v -5 13 9
v -2 12 10
v -2 12 9
v -2 13 10
v -2 13 9
v -2 16 10
v -2 16 9
v -2 17 10
v -2 17 9
v -2 18 10
v -2 18 9
v -1 0 10
v -1 0 9
v -1 7 10
v -1 7 9
v -1 16 10
v -1 16 9
v -1 16 -0
v -1 17 10
v -1 17 9
v -1 17 -0
v -1 18 10
v -1 18 9
v -1 19 10
v -1 19 9
v 2 16 1
v 2 16 -0
v 2 17 1
v 2 17 -0
v 3 16 3
v 3 16 1
v 3 17 3
v 3 17 1
v 4 0 10
v 4 0 9
v 4 7 10
v 4 7 9
v 4 12 10
v 4 12 9
v 4 13 10
v 4 13 9
v 4 16 10
v 4 16 9
v 4 16 4
v 4 16 3
v 4 17 10
v 4 17 9
v 4 17 4
v 4 17 3
v 4 18 10
v 4 18 9
v 5 16 10
v 5 16 9
v 5 16 4
v 5 17 10
v 5 17 9
v 5 17 4
v 5 18 10
v 5 18 9
v 5 19 10
v 5 19 9
v 6 8 10
v 6 8 9
v 6 13 10
v 6 13 9
v -6 8 10
v -6 8 9
v -6 13 10
v -6 13 9
v -5 16 10
v -5 16 9
v -5 16 4
v -5 17 10
v -5 17 9
v -5 17 4
v -5 18 10
v -5 18 9
v -5 19 10
v -5 19 9
v -4 0 10
v -4 0 9
v -4 3 9
v -4 4 9
v -4 7 10
v -4 7 9
v -4 12 10
v -4 12 9
v -4 13 10
v -4 13 9
v -4 16 10
v -4 16 9
v -4 16 4
v -4 16 3
v -4 17 10
v -4 17 9
v -4 17 4
v -4 17 3
v -4 18 10
v -4 18 9
v -3 16 3
v -3 16 1
v -3 17 3
v -3 17 1
v -2 16 1
v -2 16 -0
v -2 17 1
v -2 17 -0
v 1 0 10
v 1 0 9
v 1 3 9
v 1 4 9
v 1 7 10
v 1 7 9
v 1 16 10
v 1 16 9
v 1 16 -0
v 1 17 10
v 1 17 9
v 1 17 -0
v 1 18 10
v 1 18 9
v 1 19 10
v 1 19 9
v 2 12 10
v 2 12 9
v 2 13 10
v 2 13 9
v 2 16 10
v 2 16 9
v 2 17 10
v 2 17 9
v 2 18 10
v 2 18 9
v 5 5 10
v 5 5 9
v 5 7 10
v 5 7 9
v 5 8 10
v 5 8 9
v 5 13 10
v 5 13 9
v 6 1 10
v 6 1 9
v 6 5 10
v 6 5 9
v 6 16 10
v 6 16 9
v 6 16 7
v 6 17 10
v 6 17 9
v 6 17 7
v 6 18 10
v 6 18 9
v 6 19 10
v 6 19 9
v 7 7 10
v 7 7 9
v 7 13 10
v 7 13 9
v 7 16 10
v 7 16 9
v 7 16 7
v 7 16 6
v 7 17 10
v 7 17 9
v 7 17 7
v 7 17 6
v 7 18 10
v 7 18 9
v 8 0 10
v 8 0 9
v 8 1 10
v 8 1 9
v 8 16 6
v 8 16 5
v 8 17 6
v 8 17 5
v 10 0 9
v 10 0 -10
v 10 2 7
v 10 2 3
v 10 2 1
v 10 2 -3
v 10 2 -5
v 10 2 -9
v 10 4 7
v 10 4 3
v 10 4 1
v 10 4 -3
v 10 4 -5
v 10 4 -9
v 10 5 7
v 10 5 3
v 10 5 1
v 10 5 -3
v 10 5 -5
v 10 5 -9
v 10 13 7
v 10 13 3
v 10 13 1
v 10 13 -3
v 10 13 -5
v 10 13 -9
v 10 16 9
v 10 16 5
v 10 16 -10
v 10 17 5
v 10 17 -10
v -8 0 10
v -8 1 10
v -7 7 10
v -7 13 10
v -7 16 10
v -7 17 10
v -7 18 10
v -6 1 10
v -6 5 10
v -6 8 10
v -6 13 10
v -6 16 10
v -6 17 10
v -6 18 10
v -6 19 10
v -5 5 10
v -5 7 10
v -5 8 10
v -5 13 10
v -5 16 10
v -5 17 10
v -5 18 10
v -5 19 10
v -4 0 10
v -4 7 10
v -4 8 10
v -4 11 10
v -4 12 10
v -4 13 10
v -4 16 10
v -4 17 10
v -4 18 10
v -3 9 10
v -3 10 10
v -2 12 10
v -2 13 10
v -2 16 10
v -2 17 10
v -2 18 10
v -1 0 10
v -1 7 10
v -1 9 10
v -1 10 10
v -1 16 10
v -1 17 10
v -1 18 10
v -1 19 10
v 1 0 10
v 1 7 10
v 1 9 10
v 1 10 10
v 1 16 10
v 1 17 10
v 1 18 10
v 1 19 10
v 2 12 10
v 2 13 10
v 2 16 10
v 2 17 10
v 2 18 10
v 3 9 10
v 3 10 10
v 4 0 10
v 4 7 10
v 4 8 10
v 4 11 10
v 4 12 10
v 4 13 10
v 4 16 10
v 4 17 10
v 4 18 10
v 5 5 10
v 5 7 10
v 5 8 10
v 5 13 10
v 5 16 10
v 5 17 10
v 5 18 10
v 5 19 10
v 6 1 10
v 6 5 10
v 6 8 10
v 6 13 10
v 6 16 10
v 6 17 10
v 6 18 10
v 6 19 10
v 7 7 10
v 7 13 10
v 7 16 10
v 7 17 10
v 7 18 10
v 8 0 10
v 8 1 10
v -10 0 9
v -10 16 9
v -9 10 9
v -9 13 9
v -8 0 9
v -8 1 9
v -8 10 9
v -7 7 9
v -7 13 9
v -7 16 9
v -6 1 9
v -6 5 9
v -6 8 9
v -6 13 9
v -5 5 9
v -5 7 9
v -5 8 9
v -5 13 9
v -4 0 9
v -4 3 9
v -4 4 9
v -4 7 9
v -4 12 9
v -4 13 9
v -4 16 9
v -3 3 9
v -3 4 9
v -2 12 9
v -2 13 9
v -2 16 9
v -1 0 9
v -1 7 9
v 1 0 9
v 1 3 9
v 1 4 9
v 1 7 9
v 2 3 9
v 2 4 9
v 2 12 9
v 2 13 9
v 2 16 9
v 4 0 9
v 4 7 9
v 4 12 9
v 4 13 9
v 4 16 9
v 5 5 9
v 5 7 9
v 5 8 9
v 5 13 9
v 6 1 9
v 6 5 9
v 6 8 9
v 6 13 9
v 7 7 9
v 7 13 9
v 7 16 9
v 8 0 9
v 8 1 9
v 8 10 9
v 9 10 9
v 9 13 9
v 10 0 9
v 10 16 9
v -7 16 7
v -7 17 7
v -6 16 7
v -6 17 7
v 6 16 7
v 6 17 7
v 7 16 7
v 7 17 7
v -8 16 6
v -8 17 6
v -7 16 6
v -7 17 6
v 7 16 6
v 7 17 6
v 8 16 6
v 8 17 6
v -10 16 5
v -10 17 5
v -8 16 5
v -8 17 5
v 8 16 5
v 8 17 5
v 10 16 5
v 10 17 5
v -5 16 4
v -5 17 4
v -4 16 4
v -4 17 4
v 4 16 4
v 4 17 4
v 5 16 4
v 5 17 4
v -4 16 3
v -4 17 3
v -3 16 3
v -3 17 3
v 3 16 3
v 3 17 3
v 4 16 3
v 4 17 3
v -3 16 1
v -3 17 1
v -2 16 1
v -2 17 1
v 2 16 1
v 2 17 1
v 3 16 1
v 3 17 1
v -2 16 -0
v -2 17 -0
v -1 16 -0
v -1 17 -0
v 1 16 -0
v 1 17 -0
v 2 16 -0
v 2 17 -0
v -7 17 9
v -7 18 9
v -6 17 9
v -6 18 9
v -6 19 9
v -5 17 9
v -5 18 9
v -5 19 9
v -4 17 9
v -4 18 9
v -2 17 9
v -2 18 9
v -1 17 9
v -1 18 9
v -1 19 9
v 1 17 9
v 1 18 9
v 1 19 9
v 2 17 9
v 2 18 9
v 4 17 9
v 4 18 9
v 5 17 9
v 5 18 9
v 5 19 9
v 6 17 9
v 6 18 9
v 6 19 9
v 7 17 9
v 7 18 9
v -10 0 -10
v -10 16 -10
v -10 17 -10
v 10 0 -10
v 10 16 -10
v 10 17 -10
v -8 0 10
v -4 0 10
v -1 0 10
v 1 0 10
v 4 0 10
v 8 0 10
v -10 0 9
v -8 0 9
v -4 0 9
v -1 0 9
v 1 0 9
v 4 0 9
v 8 0 9
v 10 0 9
v -4 0 8
v -1 0 8
v 1 0 8
v 4 0 8
v -10 0 -10
v 10 0 -10
v -7 7 10
v -5 7 10
v -4 7 10
v -1 7 10
v 1 7 10
v 4 7 10
v 5 7 10
v 7 7 10
v -7 7 9
v -5 7 9
v -4 7 9
v -1 7 9
v 1 7 9
v 4 7 9
v 5 7 9
v 7 7 9
v -6 13 10
v -5 13 10
v 5 13 10
v 6 13 10
v -6 13 9
v -5 13 9
v 5 13 9
v 6 13 9
v -7 17 10
v -6 17 10
v -5 17 10
v -4 17 10
v -2 17 10
v -1 17 10
v 1 17 10
v 2 17 10
v 4 17 10
v 5 17 10
v 6 17 10
v 7 17 10
v -7 17 9
v -6 17 9
v -5 17 9
v -4 17 9
v -2 17 9
v -1 17 9
v 1 17 9
v 2 17 9
v 4 17 9
v 5 17 9
v 6 17 9
v 7 17 9
v -8 1 10
v -6 1 10
v 6 1 10
v 8 1 10
v -8 1 9
v -6 1 9
v 6 1 9
v 8 1 9
v -6 5 10
v -5 5 10
v 5 5 10
v 6 5 10
v -6 5 9
v -5 5 9
v 5 5 9
v 6 5 9
v -6 8 10
v -5 8 10
v 5 8 10
v 6 8 10
v -6 8 9
v -5 8 9
v 5 8 9
v 6 8 9
v -4 12 10
v -2 12 10
v 2 12 10
v 4 12 10
v -4 12 9
v -2 12 9
v 2 12 9
v 4 12 9
v -7 16 10
v -6 16 10
v -5 16 10
v -4 16 10
v -2 16 10
v -1 16 10
v 1 16 10
v 2 16 10
v 4 16 10
v 5 16 10
v 6 16 10
v 7 16 10
v -10 16 9
v -7 16 9
v -6 16 9
v -5 16 9
v -4 16 9
v -2 16 9
v -1 16 9
v 1 16 9
v 2 16 9
v 4 16 9
v 5 16 9
v 6 16 9
v 7 16 9
v 10 16 9
v -7 16 7
v -6 16 7
v 6 16 7
v 7 16 7
v -8 16 6
v -7 16 6
v 7 16 6
v 8 16 6
v -10 16 5
v -8 16 5
v 8 16 5
v 10 16 5
v -5 16 4
v -4 16 4
v 4 16 4
v 5 16 4
v -4 16 3
v -3 16 3
v 3 16 3
v 4 16 3
v -3 16 1
v -2 16 1
v 2 16 1
v 3 16 1
v -2 16 -0
v -1 16 -0
v 1 16 -0
v 2 16 -0
v -6 17 9
v -5 17 9
v -1 17 9
v 1 17 9
v 5 17 9
v 6 17 9
v -7 17 7
v -6 17 7
v 6 17 7
v 7 17 7
v -8 17 6
v -7 17 6
v 7 17 6
v 8 17 6
v -10 17 5
v -8 17 5
v 8 17 5
v 10 17 5
v -5 17 4
v -4 17 4
v 4 17 4
v 5 17 4
v -4 17 3
v -3 17 3
v 3 17 3
v 4 17 3
v -3 17 1
v -2 17 1
v 2 17 1
v 3 17 1
v -2 17 -0
v -1 17 -0
v 1 17 -0
v 2 17 -0
v -10 17 -10
v 10 17 -10
v -7 18 10
v -6 18 10
v -5 18 10
v -4 18 10
v -2 18 10
v -1 18 10
v 1 18 10
v 2 18 10
v 4 18 10
v 5 18 10
v 6 18 10
v 7 18 10
v -7 18 9
v -6 18 9
v -5 18 9
v -4 18 9
v -2 18 9
v -1 18 9
v 1 18 9
v 2 18 9
v 4 18 9
v 5 18 9
v 6 18 9
v 7 18 9
v -6 19 10
v -5 19 10
v -1 19 10
v 1 19 10
v 5 19 10
v 6 19 10
v -6 19 9
v -5 19 9
v -1 19 9
v 1 19 9
v 5 19 9
v 6 19 9

# faces
f 3/7/1 2/7/1 1/7/1
f 4/7/1 2/7/1 3/7/1
f 5/7/1 2/7/1 4/7/1
f 6/7/1 2/7/1 5/7/1
f 7/7/1 2/7/1 6/7/1
f 8/7/1 2/7/1 7/7/1
f 9/7/1 3/7/1 1/7/1
f 9/1/1 4/1/1 3/1/1
f 10/7/1 5/7/1 4/7/1
f 10/1/1 4/1/1 9/1/1
f 11/1/1 6/1/1 5/1/1
f 11/7/1 5/7/1 10/7/1
f 12/7/1 7/7/1 6/7/1
f 12/1/1 6/1/1 11/1/1
f 13/1/1 8/1/1 7/1/1
f 13/7/1 7/7/1 12/7/1
f 14/7/1 2/7/1 8/7/1
f 14/1/1 8/1/1 13/1/1
f 15/7/1 13/7/1 12/7/1
f 15/7/1 12/7/1 11/7/1
f 15/7/1 14/7/1 13/7/1
f 15/7/1 11/7/1 10/7/1
f 15/7/1 10/7/1 9/7/1
f 15/7/1 9/7/1 1/7/1
f 16/7/1 14/7/1 15/7/1
f 17/7/1 14/7/1 16/7/1
f 18/7/1 14/7/1 17/7/1
f 19/7/1 14/7/1 18/7/1
f 20/7/1 2/7/1 14/7/1
f 20/7/1 14/7/1 19/7/1
f 21/7/1 15/7/1 1/7/1
f 21/1/1 16/1/1 15/1/1
f 22/7/1 17/7/1 16/7/1
f 22/1/1 16/1/1 21/1/1
f 23/1/1 18/1/1 17/1/1
f 23/7/1 17/7/1 22/7/1
f 24/7/1 19/7/1 18/7/1
f 24/1/1 18/1/1 23/1/1
f 25/1/1 20/1/1 19/1/1
f 25/7/1 19/7/1 24/7/1
f 26/7/1 2/7/1 20/7/1
f 26/1/1 20/1/1 25/1/1
f 27/7/1 23/7/1 22/7/1
f 27/7/1 25/7/1 24/7/1
f 27/7/1 26/7/1 25/7/1
f 27/7/1 22/7/1 21/7/1
f 27/7/1 21/7/1 1/7/1
f 27/7/1 24/7/1 23/7/1
f 28/7/1 26/7/1 27/7/1
f 29/7/1 2/7/1 26/7/1
f 29/7/1 26/7/1 28/7/1
f 30/6/1 29/6/1 28/6/1
f 31/6/1 29/6/1 30/6/1
f 34/6/1 33/6/1 32/6/1
f 35/6/1 33/6/1 34/6/1
f 38/6/1 37/6/1 36/6/1
f 39/6/1 37/6/1 38/6/1
f 42/6/1 41/6/1 40/6/1
f 43/6/1 41/6/1 42/6/1
f 44/5/1 43/5/1 42/5/1
f 45/5/1 43/5/1 44/5/1
f 50/6/1 47/6/1 46/6/1
f 51/6/1 47/6/1 50/6/1
f 52/5/1 49/5/1 48/5/1
f 53/5/1 49/5/1 52/5/1
f 56/6/1 55/6/1 54/6/1
f 57/6/1 55/6/1 56/6/1
f 61/4/1 59/4/1 58/4/1
f 62/6/1 60/6/1 59/6/1
f 62/4/1 59/4/1 61/4/1
f 63/6/1 60/6/1 62/6/1
f 66/5/1 65/5/1 64/5/1
f 67/5/1 65/5/1 66/5/1
f 70/6/1 69/6/1 68/6/1
f 71/6/1 69/6/1 70/6/1
f 74/6/1 73/6/1 72/6/1
f 75/6/1 73/6/1 74/6/1
f 78/6/1 77/6/1 76/6/1
f 79/6/1 77/6/1 78/6/1
f 80/5/1 79/5/1 78/5/1
f 81/5/1 79/5/1 80/5/1
f 84/5/1 83/5/1 82/5/1
f 85/5/1 83/5/1 84/5/1
f 88/6/1 87/6/1 86/6/1
f 89/6/1 87/6/1 88/6/1
f 93/4/1 91/4/1 90/4/1
f 94/6/1 92/6/1 91/6/1
f 94/4/1 91/4/1 93/4/1
f 95/6/1 92/6/1 94/6/1
f 98/5/1 97/5/1 96/5/1
f 99/5/1 97/5/1 98/5/1
f 102/6/1 101/6/1 100/6/1
f 103/6/1 101/6/1 102/6/1
f 106/6/1 105/6/1 104/6/1
f 107/6/1 105/6/1 106/6/1
f 110/6/1 109/6/1 108/6/1
f 111/6/1 109/6/1 110/6/1
f 114/6/1 113/6/1 112/6/1
f 115/6/1 113/6/1 114/6/1
f 116/5/1 115/5/1 114/5/1
f 117/5/1 115/5/1 116/5/1
f 122/6/1 119/6/1 118/6/1
f 123/6/1 119/6/1 122/6/1
f 124/5/1 121/5/1 120/5/1
f 125/5/1 121/5/1 124/5/1
f 129/4/1 127/4/1 126/4/1
f 130/6/1 128/6/1 127/6/1
f 130/4/1 127/4/1 129/4/1
f 131/6/1 128/6/1 130/6/1
f 134/5/1 133/5/1 132/5/1
f 135/5/1 133/5/1 134/5/1
f 138/6/1 137/6/1 136/6/1
f 139/6/1 137/6/1 138/6/1
f 140/6/2 141/6/2 142/6/2
f 142/6/2 141/6/2 143/6/2
f 144/4/2 145/4/2 147/4/2
f 145/6/2 146/6/2 148/6/2
f 147/4/2 145/4/2 148/4/2
f 148/6/2 146/6/2 149/6/2
f 150/5/2 151/5/2 152/5/2
f 152/5/2 151/5/2 153/5/2
f 154/6/2 155/6/2 156/6/2
f 154/6/2 156/6/2 157/6/2
f 154/6/2 157/6/2 158/6/2
f 158/6/2 157/6/2 159/6/2
f 160/6/2 161/6/2 162/6/2
f 162/6/2 161/6/2 163/6/2
f 162/5/2 163/5/2 164/5/2
f 164/5/2 163/5/2 165/5/2
f 166/6/2 167/6/2 170/6/2
f 170/6/2 167/6/2 171/6/2
f 168/5/2 169/5/2 172/5/2
f 172/5/2 169/5/2 173/5/2
f 174/6/2 175/6/2 176/6/2
f 176/6/2 175/6/2 177/6/2
f 178/6/2 179/6/2 180/6/2
f 180/6/2 179/6/2 181/6/2
f 182/6/2 183/6/2 184/6/2
f 182/6/2 184/6/2 185/6/2
f 182/6/2 185/6/2 186/6/2
f 186/6/2 185/6/2 187/6/2
f 188/4/2 189/4/2 191/4/2
f 189/6/2 190/6/2 192/6/2
f 191/4/2 189/4/2 192/4/2
f 192/6/2 190/6/2 193/6/2
f 194/5/2 195/5/2 196/5/2
f 196/5/2 195/5/2 197/5/2
f 198/6/2 199/6/2 200/6/2
f 200/6/2 199/6/2 201/6/2
f 200/5/2 201/5/2 202/5/2
f 202/5/2 201/5/2 203/5/2
f 204/5/2 205/5/2 206/5/2
f 206/5/2 205/5/2 207/5/2
f 208/6/2 209/6/2 210/6/2
f 210/6/2 209/6/2 211/6/2
f 212/6/2 213/6/2 214/6/2
f 214/6/2 213/6/2 215/6/2
f 216/6/2 217/6/2 218/6/2
f 218/6/2 217/6/2 219/6/2
f 220/4/2 221/4/2 223/4/2
f 221/6/2 222/6/2 224/6/2
f 223/4/2 221/4/2 224/4/2
f 224/6/2 222/6/2 225/6/2
f 226/5/2 227/5/2 228/5/2
f 228/5/2 227/5/2 229/5/2
f 230/6/2 231/6/2 232/6/2
f 232/6/2 231/6/2 233/6/2
f 232/5/2 233/5/2 234/5/2
f 234/5/2 233/5/2 235/5/2
f 236/6/2 237/6/2 240/6/2
f 240/6/2 237/6/2 241/6/2
f 238/5/2 239/5/2 242/5/2
f 242/5/2 239/5/2 243/5/2
f 244/6/2 245/6/2 246/6/2
f 246/6/2 245/6/2 247/6/2
f 248/6/2 249/6/2 250/6/2
f 250/6/2 249/6/2 251/6/2
f 252/7/2 253/7/2 254/7/2
f 254/7/2 253/7/2 255/7/2
f 255/7/2 253/7/2 256/7/2
f 256/7/2 253/7/2 257/7/2
f 257/7/2 253/7/2 258/7/2
f 258/7/2 253/7/2 259/7/2
f 252/7/2 254/7/2 260/7/2
f 254/1/2 255/1/2 260/1/2
f 255/7/2 256/7/2 261/7/2
f 260/1/2 255/1/2 261/1/2
f 256/1/2 257/1/2 262/1/2
f 261/7/2 256/7/2 262/7/2
f 257/7/2 258/7/2 263/7/2
f 262/1/2 257/1/2 263/1/2
f 258/1/2 259/1/2 264/1/2
f 263/7/2 258/7/2 264/7/2
f 259/7/2 253/7/2 265/7/2
f 264/1/2 259/1/2 265/1/2
f 263/7/2 264/7/2 266/7/2
f 262/7/2 263/7/2 266/7/2
f 264/7/2 265/7/2 266/7/2
f 261/7/2 262/7/2 266/7/2
f 260/7/2 261/7/2 266/7/2
f 252/7/2 260/7/2 266/7/2
f 266/7/2 265/7/2 267/7/2
f 267/7/2 265/7/2 268/7/2
f 268/7/2 265/7/2 269/7/2
f 269/7/2 265/7/2 270/7/2
f 265/7/2 253/7/2 271/7/2
f 270/7/2 265/7/2 271/7/2
f 252/7/2 266/7/2 272/7/2
f 266/1/2 267/1/2 272/1/2
f 267/7/2 268/7/2 273/7/2
f 272/1/2 267/1/2 273/1/2
f 268/1/2 269/1/2 274/1/2
f 273/7/2 268/7/2 274/7/2
f 269/7/2 270/7/2 275/7/2
f 274/1/2 269/1/2 275/1/2
f 270/1/2 271/1/2 276/1/2
f 275/7/2 270/7/2 276/7/2
f 271/7/2 253/7/2 277/7/2
f 276/1/2 271/1/2 277/1/2
f 273/7/2 274/7/2 278/7/2
f 275/7/2 276/7/2 278/7/2
f 276/7/2 277/7/2 278/7/2
f 272/7/2 273/7/2 278/7/2
f 252/7/2 272/7/2 278/7/2
f 274/7/2 275/7/2 278/7/2
f 278/7/2 277/7/2 279/7/2
f 277/7/2 253/7/2 280/7/2
f 279/7/2 277/7/2 280/7/2
f 279/6/2 280/6/2 281/6/2
f 281/6/2 280/6/2 282/6/2
f 290/6/3 284/6/3 283/6/3
f 292/6/3 286/6/3 285/6/3
f 293/5/3 287/5/3 286/5/3
f 293/6/3 286/6/3 292/6/3
f 294/5/3 287/5/3 293/5/3
f 295/5/3 289/5/3 288/5/3
f 296/5/3 289/5/3 295/5/3
f 298/6/3 291/6/3 290/6/3
f 299/6/3 292/6/3 285/6/3
f 300/6/3 292/6/3 299/6/3
f 301/5/3 294/5/3 293/5/3
f 302/4/3 295/4/3 294/4/3
f 302/5/3 294/5/3 301/5/3
f 303/5/3 297/5/3 296/5/3
f 303/4/3 295/4/3 302/4/3
f 303/5/3 296/5/3 295/5/3
f 304/5/3 297/5/3 303/5/3
f 305/5/3 297/5/3 304/5/3
f 306/6/3 300/6/3 299/6/3
f 306/6/3 298/6/3 290/6/3
f 306/6/3 290/6/3 283/6/3
f 306/6/3 299/6/3 298/6/3
f 306/6/3 301/6/3 300/6/3
f 307/6/3 301/6/3 306/6/3
f 308/6/3 301/6/3 307/6/3
f 309/6/3 301/6/3 308/6/3
f 310/6/3 301/6/3 309/6/3
f 311/5/3 302/5/3 301/5/3
f 311/6/3 301/6/3 310/6/3
f 312/5/3 302/5/3 311/5/3
f 313/5/3 304/5/3 303/5/3
f 314/5/3 304/5/3 313/5/3
f 315/3/3 309/3/3 308/3/3
f 316/3/3 309/3/3 315/3/3
f 317/6/3 310/6/3 309/6/3
f 323/6/3 308/6/3 307/6/3
f 324/3/3 315/3/3 308/3/3
f 324/5/3 316/5/3 315/5/3
f 325/3/3 309/3/3 316/3/3
f 325/5/3 316/5/3 324/5/3
f 326/5/3 319/5/3 318/5/3
f 327/5/3 321/5/3 320/5/3
f 328/5/3 321/5/3 327/5/3
f 330/6/3 323/6/3 322/6/3
f 331/6/3 308/6/3 323/6/3
f 331/6/3 323/6/3 330/6/3
f 332/3/3 324/3/3 308/3/3
f 332/3/3 325/3/3 324/3/3
f 333/3/3 309/3/3 325/3/3
f 333/3/3 325/3/3 332/3/3
f 334/5/3 326/5/3 318/5/3
f 334/4/3 327/4/3 326/4/3
f 335/5/3 328/5/3 327/5/3
f 335/4/3 327/4/3 334/4/3
f 335/5/3 329/5/3 328/5/3
f 336/5/3 329/5/3 335/5/3
f 337/5/3 329/5/3 336/5/3
f 338/6/3 317/6/3 309/6/3
f 338/6/3 318/6/3 317/6/3
f 339/5/3 334/5/3 318/5/3
f 339/6/3 318/6/3 338/6/3
f 340/5/3 334/5/3 339/5/3
f 341/5/3 336/5/3 335/5/3
f 342/5/3 336/5/3 341/5/3
f 343/5/3 333/5/3 332/5/3
f 343/3/3 332/3/3 308/3/3
f 344/3/3 309/3/3 333/3/3
f 344/5/3 333/5/3 343/5/3
f 346/6/3 308/6/3 331/6/3
f 347/3/3 343/3/3 308/3/3
f 347/3/3 344/3/3 343/3/3
f 347/6/3 308/6/3 346/6/3
f 348/3/3 309/3/3 344/3/3
f 348/3/3 344/3/3 347/3/3
f 348/6/3 338/6/3 309/6/3
f 349/6/3 338/6/3 348/6/3
f 354/6/3 347/6/3 346/6/3
f 354/6/3 346/6/3 345/6/3
f 354/6/3 348/6/3 347/6/3
f 354/6/3 350/6/3 349/6/3
f 354/6/3 349/6/3 348/6/3
f 355/6/3 350/6/3 354/6/3
f 356/6/3 350/6/3 355/6/3
f 357/5/3 351/5/3 350/5/3
f 357/6/3 350/6/3 356/6/3
f 358/5/3 351/5/3 357/5/3
f 359/5/3 353/5/3 352/5/3
f 360/5/3 353/5/3 359/5/3
f 362/6/3 354/6/3 345/6/3
f 363/6/3 354/6/3 362/6/3
f 364/6/3 356/6/3 355/6/3
f 365/5/3 358/5/3 357/5/3
f 366/4/3 359/4/3 358/4/3
f 366/5/3 358/5/3 365/5/3
f 367/5/3 360/5/3 359/5/3
f 367/4/3 359/4/3 366/4/3
f 367/5/3 361/5/3 360/5/3
f 368/5/3 361/5/3 367/5/3
f 369/5/3 361/5/3 368/5/3
f 370/6/3 364/6/3 355/6/3
f 370/6/3 365/6/3 364/6/3
f 371/5/3 366/5/3 365/5/3
f 371/6/3 365/6/3 370/6/3
f 372/5/3 366/5/3 371/5/3
f 373/5/3 368/5/3 367/5/3
f 374/5/3 368/5/3 373/5/3
f 375/6/3 362/6/3 345/6/3
f 376/6/3 362/6/3 375/6/3
f 379/7/3 378/7/3 377/7/3
f 380/7/3 378/7/3 379/7/3
f 381/7/3 379/7/3 377/7/3
f 382/7/3 379/7/3 381/7/3
f 383/1/3 380/1/3 379/1/3
f 383/7/3 379/7/3 382/7/3
f 384/1/3 383/1/3 382/1/3
f 385/7/3 378/7/3 380/7/3
f 385/1/3 383/1/3 384/1/3
f 385/1/3 380/1/3 383/1/3
f 386/7/3 378/7/3 385/7/3
f 387/1/3 384/1/3 382/1/3
f 388/1/3 384/1/3 387/1/3
f 391/1/3 384/1/3 388/1/3
f 392/1/3 384/1/3 391/1/3
f 393/1/3 390/1/3 389/1/3
f 394/1/3 390/1/3 393/1/3
f 402/1/3 396/1/3 395/1/3
f 402/2/3 397/2/3 396/2/3
f 403/1/3 398/1/3 397/1/3
f 403/2/3 397/2/3 402/2/3
f 404/1/3 400/1/3 399/1/3
f 405/7/3 401/7/3 400/7/3
f 405/1/3 400/1/3 404/1/3
f 406/7/3 401/7/3 405/7/3
f 407/1/3 402/1/3 395/1/3
f 407/1/3 403/1/3 402/1/3
f 408/1/3 398/1/3 403/1/3
f 408/1/3 403/1/3 407/1/3
f 413/1/3 410/1/3 409/1/3
f 413/2/3 411/2/3 410/2/3
f 414/1/3 412/1/3 411/1/3
f 414/2/3 411/2/3 413/2/3
f 418/1/3 413/1/3 409/1/3
f 418/1/3 414/1/3 413/1/3
f 419/1/3 412/1/3 414/1/3
f 419/1/3 414/1/3 418/1/3
f 420/1/3 416/1/3 415/1/3
f 421/7/3 417/7/3 416/7/3
f 421/1/3 416/1/3 420/1/3
f 422/7/3 417/7/3 421/7/3
f 428/1/3 424/1/3 423/1/3
f 429/1/3 426/1/3 425/1/3
f 430/1/3 426/1/3 429/1/3
f 431/1/3 428/1/3 427/1/3
f 431/1/3 424/1/3 428/1/3
f 435/1/3 432/1/3 431/1/3
f 435/1/3 431/1/3 427/1/3
f 436/1/3 432/1/3 435/1/3
f 437/7/3 435/7/3 434/7/3
f 437/1/3 432/1/3 436/1/3
f 437/7/3 436/7/3 435/7/3
f 438/7/3 433/7/3 432/7/3
f 438/1/3 432/1/3 437/1/3
f 439/7/3 437/7/3 434/7/3
f 439/7/3 438/7/3 437/7/3
f 440/7/3 433/7/3 438/7/3
f 440/7/3 438/7/3 439/7/3
f 443/6/3 442/6/3 441/6/3
f 444/6/3 442/6/3 443/6/3
f 447/6/3 446/6/3 445/6/3
f 448/6/3 446/6/3 447/6/3
f 451/6/3 450/6/3 449/6/3
f 452/6/3 450/6/3 451/6/3
f 455/6/3 454/6/3 453/6/3
f 456/6/3 454/6/3 455/6/3
f 459/6/3 458/6/3 457/6/3
f 460/6/3 458/6/3 459/6/3
f 463/6/3 462/6/3 461/6/3
f 464/6/3 462/6/3 463/6/3
f 467/6/3 466/6/3 465/6/3
f 468/6/3 466/6/3 467/6/3
f 471/6/3 470/6/3 469/6/3
f 472/6/3 470/6/3 471/6/3
f 475/6/3 474/6/3 473/6/3
f 476/6/3 474/6/3 475/6/3
f 479/6/3 478/6/3 477/6/3
f 480/6/3 478/6/3 479/6/3
f 483/6/3 482/6/3 481/6/3
f 484/6/3 482/6/3 483/6/3
f 487/6/3 486/6/3 485/6/3
f 488/6/3 486/6/3 487/6/3
f 491/6/3 490/6/3 489/6/3
f 492/6/3 490/6/3 491/6/3
f 495/6/3 494/6/3 493/6/3
f 496/6/3 494/6/3 495/6/3
f 497/5/4 498/5/4 499/5/4
f 499/5/4 498/5/4 500/5/4
f 499/5/4 500/5/4 502/5/4
f 500/5/4 501/5/4 502/5/4
f 502/5/4 501/5/4 503/5/4
f 503/5/4 501/5/4 504/5/4
f 502/5/4 503/5/4 505/5/4
f 505/5/4 503/5/4 506/5/4
f 507/5/4 508/5/4 509/5/4
f 509/5/4 508/5/4 510/5/4
f 509/5/4 510/5/4 512/5/4
f 510/5/4 511/5/4 512/5/4
f 512/5/4 511/5/4 513/5/4
f 513/5/4 511/5/4 514/5/4
f 512/5/4 513/5/4 515/5/4
f 515/5/4 513/5/4 516/5/4
f 517/5/4 518/5/4 519/5/4
f 519/5/4 518/5/4 520/5/4
f 519/5/4 520/5/4 522/5/4
f 520/5/4 521/5/4 522/5/4
f 522/5/4 521/5/4 523/5/4
f 523/5/4 521/5/4 524/5/4
f 522/5/4 523/5/4 525/5/4
f 525/5/4 523/5/4 526/5/4
f 527/7/4 528/7/4 530/7/4
f 528/6/4 529/6/4 531/6/4
f 530/7/4 528/7/4 531/7/4
f 531/6/4 529/6/4 532/6/4
f 540/6/5 534/6/5 533/6/5
f 541/6/5 534/6/5 540/6/5
f 542/6/5 536/6/5 535/6/5
f 543/6/5 536/6/5 542/6/5
f 544/6/5 538/6/5 537/6/5
f 545/6/5 538/6/5 544/6/5
f 547/7/5 541/7/5 540/7/5
f 547/7/5 540/7/5 539/7/5
f 547/1/5 542/1/5 541/1/5
f 548/7/5 543/7/5 542/7/5
f 548/1/5 542/1/5 547/1/5
f 549/1/5 544/1/5 543/1/5
f 549/7/5 543/7/5 548/7/5
f 550/7/5 546/7/5 545/7/5
f 550/1/5 544/1/5 549/1/5
f 550/7/5 545/7/5 544/7/5
f 551/7/5 547/7/5 539/7/5
f 551/7/5 549/7/5 548/7/5
f 551/7/5 550/7/5 549/7/5
f 551/7/5 548/7/5 547/7/5
f 552/7/5 546/7/5 550/7/5
f 552/7/5 550/7/5 551/7/5
f 561/6/5 554/6/5 553/6/5
f 562/6/5 554/6/5 561/6/5
f 563/6/5 556/6/5 555/6/5
f 564/6/5 556/6/5 563/6/5
f 565/6/5 558/6/5 557/6/5
f 566/6/5 558/6/5 565/6/5
f 567/6/5 560/6/5 559/6/5
f 568/6/5 560/6/5 567/6/5
f 573/5/5 570/5/5 569/5/5
f 574/5/5 570/5/5 573/5/5
f 575/5/5 572/5/5 571/5/5
f 576/5/5 572/5/5 575/5/5
f 589/5/5 578/5/5 577/5/5
f 590/5/5 578/5/5 589/5/5
f 591/5/5 580/5/5 579/5/5
f 592/5/5 580/5/5 591/5/5
f 593/5/5 582/5/5 581/5/5
f 594/5/5 582/5/5 593/5/5
f 595/5/5 584/5/5 583/5/5
f 596/5/5 584/5/5 595/5/5
f 597/5/5 586/5/5 585/5/5
f 598/5/5 586/5/5 597/5/5
f 599/5/5 588/5/5 587/5/5
f 600/5/5 588/5/5 599/5/5
f 601/6/6 602/6/6 605/6/6
f 605/6/6 602/6/6 606/6/6
f 603/6/6 604/6/6 607/6/6
f 607/6/6 604/6/6 608/6/6
f 609/6/6 610/6/6 613/6/6
f 613/6/6 610/6/6 614/6/6
f 611/6/6 612/6/6 615/6/6
f 615/6/6 612/6/6 616/6/6
f 617/6/6 618/6/6 621/6/6
f 621/6/6 618/6/6 622/6/6
f 619/6/6 620/6/6 623/6/6
f 623/6/6 620/6/6 624/6/6
f 625/6/6 626/6/6 629/6/6
f 629/6/6 626/6/6 630/6/6
f 627/6/6 628/6/6 631/6/6
f 631/6/6 628/6/6 632/6/6
f 633/5/6 634/5/6 646/5/6
f 646/5/6 634/5/6 647/5/6
f 635/5/6 636/5/6 648/5/6
f 648/5/6 636/5/6 649/5/6
f 637/5/6 638/5/6 650/5/6
f 650/5/6 638/5/6 651/5/6
f 639/5/6 640/5/6 652/5/6
f 652/5/6 640/5/6 653/5/6
f 641/5/6 642/5/6 654/5/6
f 654/5/6 642/5/6 655/5/6
f 643/5/6 644/5/6 656/5/6
f 656/5/6 644/5/6 657/5/6
f 646/7/6 647/7/6 659/7/6
f 645/7/6 646/7/6 659/7/6
f 659/7/6 647/7/6 660/7/6
f 657/7/6 658/7/6 661/7/6
f 656/7/6 657/7/6 661/7/6
f 661/7/6 658/7/6 662/7/6
f 645/7/6 659/7/6 663/7/6
f 663/7/6 659/7/6 664/7/6
f 662/7/6 658/7/6 665/7/6
f 665/7/6 658/7/6 666/7/6
f 645/7/6 663/7/6 667/7/6
f 667/7/6 663/7/6 668/7/6
f 666/7/6 658/7/6 669/7/6
f 669/7/6 658/7/6 670/7/6
f 648/7/6 649/7/6 671/7/6
f 650/7/6 651/7/6 671/7/6
f 649/7/6 650/7/6 671/7/6
f 671/7/6 651/7/6 672/7/6
f 654/7/6 655/7/6 673/7/6
f 652/7/6 653/7/6 673/7/6
f 653/7/6 654/7/6 673/7/6
f 673/7/6 655/7/6 674/7/6
f 672/7/6 651/7/6 675/7/6
f 675/7/6 651/7/6 676/7/6
f 652/7/6 673/7/6 677/7/6
f 677/7/6 673/7/6 678/7/6
f 676/7/6 651/7/6 679/7/6
f 679/7/6 651/7/6 680/7/6
f 652/7/6 677/7/6 681/7/6
f 681/7/6 677/7/6 682/7/6
f 680/7/6 651/7/6 683/7/6
f 683/7/6 651/7/6 684/7/6
f 652/7/6 681/7/6 685/7/6
f 685/7/6 681/7/6 686/7/6
f 687/6/6 688/6/6 694/6/6
f 691/6/6 692/6/6 695/6/6
f 693/6/6 694/6/6 698/6/6
f 695/6/6 696/6/6 699/6/6
f 697/6/6 698/6/6 702/6/6
f 699/6/6 700/6/6 703/6/6
f 701/6/6 702/6/6 705/6/6
f 694/6/6 688/6/6 705/6/6
f 698/6/6 694/6/6 705/6/6
f 702/6/6 698/6/6 705/6/6
f 703/6/6 704/6/6 708/6/6
f 699/6/6 703/6/6 708/6/6
f 691/6/6 695/6/6 708/6/6
f 695/6/6 699/6/6 708/6/6
f 705/6/6 706/6/6 709/6/6
f 707/6/6 708/6/6 712/6/6
f 709/6/6 710/6/6 713/6/6
f 711/6/6 712/6/6 716/6/6
f 713/6/6 714/6/6 717/6/6
f 689/6/6 690/6/6 718/6/6
f 718/6/6 690/6/6 719/6/6
f 715/6/6 716/6/6 720/6/6
f 718/6/6 719/6/6 721/6/6
f 719/6/6 720/6/6 721/6/6
f 713/6/6 717/6/6 721/6/6
f 701/6/6 705/6/6 721/6/6
f 717/6/6 718/6/6 721/6/6
f 705/6/6 709/6/6 721/6/6
f 709/6/6 713/6/6 721/6/6
f 720/6/6 716/6/6 722/6/6
f 721/6/6 720/6/6 722/6/6
f 708/6/6 704/6/6 722/6/6
f 716/6/6 712/6/6 722/6/6
f 712/6/6 708/6/6 722/6/6
f 723/5/6 724/5/6 735/5/6
f 735/5/6 724/5/6 736/5/6
f 725/5/6 726/5/6 737/5/6
f 737/5/6 726/5/6 738/5/6
f 727/5/6 728/5/6 739/5/6
f 739/5/6 728/5/6 740/5/6
f 729/5/6 730/5/6 741/5/6
f 741/5/6 730/5/6 742/5/6
f 731/5/6 732/5/6 743/5/6
f 743/5/6 732/5/6 744/5/6
f 733/5/6 734/5/6 745/5/6
f 745/5/6 734/5/6 746/5/6
f 747/5/6 748/5/6 753/5/6
f 753/5/6 748/5/6 754/5/6
f 749/5/6 750/5/6 755/5/6
f 755/5/6 750/5/6 756/5/6
f 751/5/6 752/5/6 757/5/6
f 757/5/6 752/5/6 758/5/6
