# MagicaVoxel @ Ephtracy

# material
mtllib ElStore.mtl
usemtl palette

# normals
vn -1 0 0
vn 1 0 0
vn 0 0 1
vn 0 0 -1
vn 0 -1 0
vn 0 1 0

# texcoords
vt 0.162109 0.5
vt 0.306641 0.5
vt 0.931641 0.5
vt 0.974609 0.5

# verts
v -10 0 10
v -10 0 -10
v -10 13 10
v -10 13 -10
v 10 0 10
v 10 0 -10
v 10 13 10
v 10 13 -10
v -10 0 10
v -10 13 10
v -9 7 10
v -9 8 10
v -9 12 10
v -8 8 10
v -8 9 10
v -7 7 10
v -7 8 10
v -7 9 10
v -7 10 10
v -6 0 10
v -6 5 10
v -6 8 10
v -6 9 10
v -6 10 10
v -6 11 10
v -5 5 10
v -5 6 10
v -5 9 10
v -5 10 10
v -4 10 10
v -4 11 10
v -3 8 10
v -3 11 10
v -2 9 10
v -2 10 10
v -1 0 10
v -1 6 10
v -1 8 10
v -1 9 10
v -1 10 10
v -1 11 10
v 1 0 10
v 1 6 10
v 1 8 10
v 1 11 10
v 2 9 10
v 2 11 10
v 3 8 10
v 3 9 10
v 4 10 10
v 4 11 10
v 5 5 10
v 5 6 10
v 5 9 10
v 5 10 10
v 6 0 10
v 6 5 10
v 6 8 10
v 6 9 10
v 6 10 10
v 6 11 10
v 7 7 10
v 7 8 10
v 7 9 10
v 7 10 10
v 8 8 10
v 8 9 10
v 9 7 10
v 9 8 10
v 9 12 10
v 10 0 10
v 10 13 10
v -10 0 -10
v -10 13 -10
v 10 0 -10
v 10 13 -10
v -10 0 10
v -6 0 10
v -1 0 10
v 1 0 10
v 6 0 10
v 10 0 10
v -6 0 9
v -1 0 9
v 1 0 9
v 6 0 9
v -10 0 -10
v 10 0 -10
v -10 13 10
v 10 13 10
v -10 13 -10
v 10 13 -10

# faces
f 3/4/1 2/4/1 1/4/1
f 4/4/1 2/4/1 3/4/1
f 5/4/2 6/4/2 7/4/2
f 7/4/2 6/4/2 8/4/2
f 11/4/3 10/4/3 9/4/3
f 12/4/3 10/4/3 11/4/3
f 13/4/3 10/4/3 12/4/3
f 14/1/3 12/1/3 11/1/3
f 14/3/3 13/3/3 12/3/3
f 15/3/3 13/3/3 14/3/3
f 16/4/3 11/4/3 9/4/3
f 16/1/3 14/1/3 11/1/3
f 16/1/3 15/1/3 14/1/3
f 17/1/3 15/1/3 16/1/3
f 18/3/3 13/3/3 15/3/3
f 18/1/3 15/1/3 17/1/3
f 19/3/3 13/3/3 18/3/3
f 20/4/3 16/4/3 9/4/3
f 21/4/3 16/4/3 20/4/3
f 22/3/3 17/3/3 16/3/3
f 22/1/3 18/1/3 17/1/3
f 22/1/3 19/1/3 18/1/3
f 23/1/3 19/1/3 22/1/3
f 24/3/3 13/3/3 19/3/3
f 24/1/3 19/1/3 23/1/3
f 25/3/3 13/3/3 24/3/3
f 26/4/3 16/4/3 21/4/3
f 26/2/3 21/2/3 20/2/3
f 27/4/3 16/4/3 26/4/3
f 28/3/3 23/3/3 22/3/3
f 28/1/3 25/1/3 24/1/3
f 28/1/3 24/1/3 23/1/3
f 29/1/3 25/1/3 28/1/3
f 30/3/3 29/3/3 28/3/3
f 30/1/3 25/1/3 29/1/3
f 31/3/3 13/3/3 25/3/3
f 31/1/3 25/1/3 30/1/3
f 32/3/3 30/3/3 28/3/3
f 32/3/3 22/3/3 16/3/3
f 32/3/3 31/3/3 30/3/3
f 32/3/3 28/3/3 22/3/3
f 33/3/3 13/3/3 31/3/3
f 33/3/3 31/3/3 32/3/3
f 34/1/3 33/1/3 32/1/3
f 35/1/3 33/1/3 34/1/3
f 36/2/3 27/2/3 26/2/3
f 36/2/3 26/2/3 20/2/3
f 37/4/3 16/4/3 27/4/3
f 37/2/3 27/2/3 36/2/3
f 38/3/3 32/3/3 16/3/3
f 38/1/3 34/1/3 32/1/3
f 39/3/3 35/3/3 34/3/3
f 39/1/3 34/1/3 38/1/3
f 40/1/3 33/1/3 35/1/3
f 40/3/3 35/3/3 39/3/3
f 41/3/3 13/3/3 33/3/3
f 41/1/3 33/1/3 40/1/3
f 42/4/3 37/4/3 36/4/3
f 43/4/3 16/4/3 37/4/3
f 43/4/3 37/4/3 42/4/3
f 44/3/3 39/3/3 38/3/3
f 44/3/3 38/3/3 16/3/3
f 44/3/3 40/3/3 39/3/3
f 44/3/3 41/3/3 40/3/3
f 45/3/3 13/3/3 41/3/3
f 45/3/3 41/3/3 44/3/3
f 46/1/3 45/1/3 44/1/3
f 47/3/3 13/3/3 45/3/3
f 47/1/3 45/1/3 46/1/3
f 48/3/3 44/3/3 16/3/3
f 48/1/3 46/1/3 44/1/3
f 49/3/3 47/3/3 46/3/3
f 49/1/3 46/1/3 48/1/3
f 50/3/3 49/3/3 48/3/3
f 50/3/3 47/3/3 49/3/3
f 51/3/3 13/3/3 47/3/3
f 51/3/3 47/3/3 50/3/3
f 52/2/3 43/2/3 42/2/3
f 53/4/3 16/4/3 43/4/3
f 53/2/3 43/2/3 52/2/3
f 54/3/3 50/3/3 48/3/3
f 55/1/3 51/1/3 50/1/3
f 55/3/3 50/3/3 54/3/3
f 56/2/3 52/2/3 42/2/3
f 57/4/3 53/4/3 52/4/3
f 57/2/3 52/2/3 56/2/3
f 58/3/3 48/3/3 16/3/3
f 58/3/3 54/3/3 48/3/3
f 59/1/3 55/1/3 54/1/3
f 59/3/3 54/3/3 58/3/3
f 60/1/3 51/1/3 55/1/3
f 60/1/3 55/1/3 59/1/3
f 61/3/3 13/3/3 51/3/3
f 61/1/3 51/1/3 60/1/3
f 62/4/3 16/4/3 53/4/3
f 62/4/3 53/4/3 57/4/3
f 62/4/3 57/4/3 56/4/3
f 62/3/3 58/3/3 16/3/3
f 63/1/3 59/1/3 58/1/3
f 63/3/3 58/3/3 62/3/3
f 63/1/3 60/1/3 59/1/3
f 64/1/3 60/1/3 63/1/3
f 65/3/3 61/3/3 60/3/3
f 65/1/3 60/1/3 64/1/3
f 66/1/3 64/1/3 63/1/3
f 66/1/3 63/1/3 62/1/3
f 67/3/3 65/3/3 64/3/3
f 67/1/3 64/1/3 66/1/3
f 68/4/3 62/4/3 56/4/3
f 68/1/3 66/1/3 62/1/3
f 69/3/3 67/3/3 66/3/3
f 69/1/3 66/1/3 68/1/3
f 70/4/3 10/4/3 13/4/3
f 70/3/3 67/3/3 69/3/3
f 70/3/3 65/3/3 67/3/3
f 70/3/3 13/3/3 61/3/3
f 70/3/3 61/3/3 65/3/3
f 71/4/3 69/4/3 68/4/3
f 71/4/3 68/4/3 56/4/3
f 71/4/3 70/4/3 69/4/3
f 72/4/3 10/4/3 70/4/3
f 72/4/3 70/4/3 71/4/3
f 73/4/4 74/4/4 75/4/4
f 75/4/4 74/4/4 76/4/4
f 83/4/5 78/4/5 77/4/5
f 83/2/5 79/2/5 78/2/5
f 84/4/5 80/4/5 79/4/5
f 84/2/5 79/2/5 83/2/5
f 85/2/5 81/2/5 80/2/5
f 85/4/5 80/4/5 84/4/5
f 86/4/5 82/4/5 81/4/5
f 86/2/5 81/2/5 85/2/5
f 87/4/5 85/4/5 84/4/5
f 87/4/5 84/4/5 83/4/5
f 87/4/5 86/4/5 85/4/5
f 87/4/5 83/4/5 77/4/5
f 88/4/5 82/4/5 86/4/5
f 88/4/5 86/4/5 87/4/5
f 89/4/6 90/4/6 91/4/6
f 91/4/6 90/4/6 92/4/6
